<?xml version="1.0" encoding="UTF-8" standalone="no"?>
<!-- Created with Inkscape (http://www.inkscape.org/) -->

<svg
   xmlns:dc="http://purl.org/dc/elements/1.1/"
   xmlns:cc="http://creativecommons.org/ns#"
   xmlns:rdf="http://www.w3.org/1999/02/22-rdf-syntax-ns#"
   xmlns:svg="http://www.w3.org/2000/svg"
   xmlns="http://www.w3.org/2000/svg"
   xmlns:sodipodi="http://sodipodi.sourceforge.net/DTD/sodipodi-0.dtd"
   xmlns:inkscape="http://www.inkscape.org/namespaces/inkscape"
   width="210mm"
   height="297mm"
   viewBox="0 0 210 297"
   version="1.1"
   id="svg8"
   inkscape:version="0.92.2 (5c3e80d, 2017-08-06)"
   sodipodi:docname="case.svg">
  <defs
     id="defs2" />
  <sodipodi:namedview
     id="base"
     pagecolor="#ffffff"
     bordercolor="#666666"
     borderopacity="1.0"
     inkscape:pageopacity="0.0"
     inkscape:pageshadow="2"
     inkscape:zoom="0.35"
     inkscape:cx="-5.4555681"
     inkscape:cy="560"
     inkscape:document-units="mm"
     inkscape:current-layer="layer1"
     showgrid="false"
     inkscape:window-width="1920"
     inkscape:window-height="1001"
     inkscape:window-x="-9"
     inkscape:window-y="-9"
     inkscape:window-maximized="1" />
  <metadata
     id="metadata5">
    <rdf:RDF>
      <cc:Work
         rdf:about="">
        <dc:format>image/svg+xml</dc:format>
        <dc:type
           rdf:resource="http://purl.org/dc/dcmitype/StillImage" />
        <dc:title></dc:title>
      </cc:Work>
    </rdf:RDF>
  </metadata>
  <g
     inkscape:label="Ebene 1"
     inkscape:groupmode="layer"
     id="layer1">
    <rect
       style="opacity:1;vector-effect:none;fill:#aa0000;fill-opacity:1;stroke:none;stroke-width:0.68578637;stroke-linecap:butt;stroke-linejoin:miter;stroke-miterlimit:10;stroke-dasharray:none;stroke-dashoffset:0;stroke-opacity:1"
       id="rect1416"
       width="415"
       height="140"
       x="-98.734573"
       y="-86.916252"
       ry="7.1815476" />
    <path
       inkscape:connector-curvature="0"
       style="opacity:1;vector-effect:none;fill:#ffeeaa;fill-opacity:1;stroke:none;stroke-width:0.54768151;stroke-linecap:butt;stroke-linejoin:miter;stroke-miterlimit:10;stroke-dasharray:none;stroke-dashoffset:0;stroke-opacity:1"
       d="m -93.734316,-80.935503 v 10.016445 60.002538 h 7.920964 v 5.29e-4 h 7.078638 v -12.000301 h -4.999693 V -70.919058 H 26.265594 v 48.002753 h -5.000213 v 12.000301 h 5.000213 v -5.29e-4 h 9.999905 v 5.29e-4 h 4.999697 V -22.916305 H 36.265499 V -70.919058 H 146.2655 v 48.002753 h -5.00021 v 12.000301 h 5.00021 9.99991 5.00021 v -12.000301 h -5.00021 v -48.002753 h 110.00001 v 48.002753 h -5.00023 v 12.000301 h 5.00023 5.0002 V 15.58367 h 12.50001 v 32.909102 h 9.99992 V 15.58367 h 12.5 V -49.416495 H 276.26532 V -80.935503 H 273.09136 266.26542 156.26541 146.2655 36.265499 26.265594 Z"
       id="rect1474" />
    <circle
       style="opacity:1;vector-effect:none;fill:#6c5353;fill-opacity:1;stroke:none;stroke-width:0.82677162;stroke-linecap:butt;stroke-linejoin:miter;stroke-miterlimit:10;stroke-dasharray:none;stroke-dashoffset:0;stroke-opacity:1"
       id="path1555"
       cx="288.77448"
       cy="48.095211"
       r="5" />
    <rect
       style="opacity:1;vector-effect:none;fill:#aa0000;fill-opacity:1;stroke:none;stroke-width:0.68578637;stroke-linecap:butt;stroke-linejoin:miter;stroke-miterlimit:10;stroke-dasharray:none;stroke-dashoffset:0;stroke-opacity:1"
       id="rect1416-0"
       width="415"
       height="140"
       x="-97.222664"
       y="106.0004"
       ry="7.1815476" />
    <path
       inkscape:connector-curvature="0"
       style="opacity:1;vector-effect:none;fill:#ffeeaa;fill-opacity:1;stroke:none;stroke-width:0.54768151;stroke-linecap:butt;stroke-linejoin:miter;stroke-miterlimit:10;stroke-dasharray:none;stroke-dashoffset:0;stroke-opacity:1"
       d="m -92.222239,240.02011 v -10.01644 -60.00254 h 7.92096 v -5.3e-4 h 7.07864 v 12.0003 h -4.99969 v 48.00277 h 110 v -48.00276 h -5.00021 v -12.0003 h 5.00021 v 5.3e-4 h 9.9999 v -5.3e-4 h 4.9997 v 12.0003 h -4.9997 v 48.00276 H 147.77758 v -48.00276 h -5.00021 v -12.0003 h 5.00021 9.99991 5.00021 v 12.0003 h -5.00021 v 48.00276 h 109.99999 v -48.00276 h -5.00022 v -12.0003 h 5.00022 5.00021 v -26.49967 h 12.50002 v -32.9091 h 9.9999 v 32.9091 h 12.50001 v 65.00016 h -30.00024 v 31.51901 h -3.17394 -6.82596 -109.99999 -9.99991 -110.000009 -9.9999 z"
       id="rect1474-1" />
    <path
       inkscape:connector-curvature="0"
       style="fill:#00aacc;fill-opacity:1;stroke:none;stroke-width:0.2;stroke-miterlimit:4;stroke-dasharray:none;stroke-opacity:1"
       d="m -71.22251,126.00069 c -3.324,0 -6.000152,2.67616 -6.000152,6.00017 v 37.99975 h -5.00021 v 11.99978 h 5.00021 v 38.00025 c 0,3.32402 2.676152,5.99964 6.000152,5.99964 h 87.999793 c 3.324,0 6.000152,-2.67562 6.000152,-5.99964 v -38.00025 h 4.999694 v -11.99978 h -4.999694 v -37.99975 c 0,-3.32401 -2.676152,-6.00017 -6.000152,-6.00017 z"
       id="path1778" />
    <path
       inkscape:connector-curvature="0"
       style="fill:#00aacc;fill-opacity:1;stroke:none;stroke-width:0.2;stroke-miterlimit:4;stroke-dasharray:none;stroke-opacity:1"
       d="m 48.777399,126.00069 c -3.324,0 -6.000152,2.67616 -6.000152,6.00017 v 37.99975 h -4.999694 v 11.99978 h 4.999694 v 38.00025 c 0,3.32402 2.676152,5.99964 6.000152,5.99964 h 87.999791 c 3.324,0 6.00015,-2.67562 6.00015,-5.99964 v -38.00025 h 5.00021 v -11.99978 h -5.00021 v -37.99975 c 0,-3.32401 -2.67615,-6.00017 -6.00015,-6.00017 z"
       id="path1776" />
    <path
       inkscape:connector-curvature="0"
       style="fill:#00aacc;fill-opacity:1;stroke:none;stroke-width:0.2;stroke-miterlimit:4;stroke-dasharray:none;stroke-opacity:1"
       d="m 168.77731,126.00069 c -3.324,0 -6.00015,2.67616 -6.00015,6.00017 v 37.99975 h -4.9997 v 11.99978 h 4.9997 v 38.00025 c 0,3.32402 2.67615,5.99964 6.00015,5.99964 h 87.99978 c 3.32402,0 6.00017,-2.67562 6.00017,-5.99964 v -38.00025 h 5.0002 v -11.99978 h -5.0002 v -37.99975 c 0,-3.32401 -2.67615,-6.00017 -6.00017,-6.00017 z"
       id="path1774" />
    <rect
       style="opacity:1;vector-effect:none;fill:#ffeeaa;fill-opacity:1;stroke:none;stroke-width:0.54768151;stroke-linecap:butt;stroke-linejoin:miter;stroke-miterlimit:10;stroke-dasharray:none;stroke-dashoffset:0;stroke-opacity:1"
       id="rect1474-3"
       width="35"
       height="65"
       x="272.77734"
       y="143.50041"
       ry="0" />
    <rect
       style="opacity:1;vector-effect:none;fill:#aa0000;fill-opacity:1;stroke:none;stroke-width:0.68578637;stroke-linecap:butt;stroke-linejoin:miter;stroke-miterlimit:10;stroke-dasharray:none;stroke-dashoffset:0;stroke-opacity:1"
       id="rect1416-0-3"
       width="415"
       height="140"
       x="-94.015411"
       y="300.52338"
       ry="7.1815476" />
    <path
       inkscape:connector-curvature="0"
       style="fill:#00aacc;fill-opacity:1;stroke:none;stroke-width:0.2;stroke-miterlimit:4;stroke-dasharray:none;stroke-opacity:1"
       d="m 259.98472,320.52371 c 3.324,0 6.00015,2.67615 6.00015,6.00014 v 37.99975 h 4.99969 v 11.9998 h -4.99969 v 38.00026 c 0,3.32398 -2.67615,5.99963 -6.00015,5.99963 h -87.9998 c -3.324,0 -6.00015,-2.67565 -6.00015,-5.99963 V 376.5234 h -5.00021 v -11.9998 h 5.00021 v -37.99975 c 0,-3.32399 2.67615,-6.00014 6.00015,-6.00014 z m -2.99982,5.0002 h -82.00016 c -2.216,0 -3.99976,1.78377 -3.99976,3.99976 v 82.00017 c 0,2.21599 1.78376,3.99976 3.99976,3.99976 h 82.00016 c 2.216,0 3.99976,-1.78377 3.99976,-3.99976 v -82.00017 c 10e-6,-2.21599 -1.78376,-3.99976 -3.99976,-3.99976 z"
       id="path1795" />
    <path
       inkscape:connector-curvature="0"
       style="fill:#00aacc;fill-opacity:1;stroke:none;stroke-width:0.2;stroke-miterlimit:4;stroke-dasharray:none;stroke-opacity:1"
       d="m 139.98481,320.52371 c 3.324,0 6.00015,2.67615 6.00015,6.00014 v 37.99975 h 4.9997 v 11.9998 h -4.9997 v 38.00026 c 0,3.32398 -2.67615,5.99963 -6.00015,5.99963 H 51.985017 c -3.324,0 -6.00015,-2.67565 -6.00015,-5.99963 V 376.5234 h -5.00021 v -11.9998 h 5.00021 v -37.99975 c 0,-3.32399 2.67615,-6.00014 6.00015,-6.00014 z m -2.99982,5.0002 H 54.984827 c -2.216,0 -3.99975,1.78377 -3.99975,3.99976 v 82.00017 c 0,2.21599 1.78375,3.99976 3.99975,3.99976 h 82.000163 c 2.216,0 3.99976,-1.78377 3.99976,-3.99976 v -82.00017 c 1e-5,-2.21599 -1.78376,-3.99976 -3.99976,-3.99976 z"
       id="path1793" />
    <path
       inkscape:connector-curvature="0"
       style="fill:#00aacc;fill-opacity:1;stroke:none;stroke-width:0.2;stroke-miterlimit:4;stroke-dasharray:none;stroke-opacity:1"
       d="m 19.984387,320.52371 c 3.32399,0 6.00015,2.67615 6.00015,6.00014 v 37.99975 h 5.00021 v 11.9998 h -5.00021 v 38.00026 c 0,3.32398 -2.67616,5.99963 -6.00015,5.99963 h -87.9998 c -3.32399,0 -6.00015,-2.67565 -6.00015,-5.99963 V 376.5234 h -4.99969 v -11.9998 h 4.99969 v -37.99975 c 0,-3.32399 2.67616,-6.00014 6.00015,-6.00014 z m -2.99982,5.0002 h -82.00016 c -2.216,0 -3.99976,1.78377 -3.99976,3.99976 v 82.00017 c 0,2.21599 1.78376,3.99976 3.99976,3.99976 h 82.00016 c 2.216,0 3.99976,-1.78377 3.99976,-3.99976 v -82.00017 c 10e-6,-2.21599 -1.78376,-3.99976 -3.99976,-3.99976 z"
       id="path1791" />
    <rect
       style="opacity:1;vector-effect:none;fill:#ffeeaa;fill-opacity:1;stroke:none;stroke-width:0.54768151;stroke-linecap:butt;stroke-linejoin:miter;stroke-miterlimit:10;stroke-dasharray:none;stroke-dashoffset:0;stroke-opacity:1"
       id="rect1474-3-9"
       width="35"
       height="65"
       x="275.98465"
       y="338.02338"
       ry="0" />
    <path
       inkscape:connector-curvature="0"
       style="fill:#ececec;fill-opacity:1;stroke:none;stroke-width:0.2;stroke-miterlimit:4;stroke-dasharray:none;stroke-opacity:1"
       d="m 256.9849,325.52391 h -82.00016 c -2.216,0 -3.99976,1.78377 -3.99976,3.99976 v 82.00017 c 0,2.21599 1.78376,3.99976 3.99976,3.99976 h 82.00016 c 2.216,0 3.99976,-1.78377 3.99976,-3.99976 v -82.00017 c 10e-6,-2.21599 -1.78376,-3.99976 -3.99976,-3.99976 z"
       id="path1789" />
    <path
       inkscape:connector-curvature="0"
       style="fill:#f9f9f9;fill-opacity:1;stroke:none;stroke-width:0.2;stroke-miterlimit:4;stroke-dasharray:none;stroke-opacity:1"
       d="M 136.985,325.52391 H 54.984827 c -2.216,0 -3.99975,1.78377 -3.99975,3.99976 v 82.00017 c 0,2.21599 1.78375,3.99976 3.99975,3.99976 H 136.985 c 2.21599,0 3.99975,-1.78377 3.99975,-3.99976 v -82.00017 c 1e-5,-2.21599 -1.78376,-3.99976 -3.99975,-3.99976 z"
       id="path1787" />
    <path
       inkscape:connector-curvature="0"
       style="fill:#f2f2f2;fill-opacity:1;stroke:none;stroke-width:0.2;stroke-miterlimit:4;stroke-dasharray:none;stroke-opacity:1"
       d="m 16.984567,325.52391 h -82.00017 c -2.21599,0 -3.99976,1.78377 -3.99976,3.99976 v 82.00017 c 0,2.21599 1.78377,3.99976 3.99976,3.99976 h 82.00017 c 2.216,0 3.99975,-1.78377 3.99975,-3.99976 v -82.00017 c 10e-6,-2.21599 -1.78375,-3.99976 -3.99975,-3.99976 z"
       id="path1395-47-7" />
    <ellipse
       style="opacity:1;vector-effect:none;fill:#00ff00;fill-opacity:1;stroke:none;stroke-width:0.15165584;stroke-linecap:butt;stroke-linejoin:miter;stroke-miterlimit:10;stroke-dasharray:none;stroke-dashoffset:0;stroke-opacity:1"
       id="path1854-0-4"
       cx="293.88449"
       cy="-69.758522"
       rx="3.25"
       ry="3.3" />
    <ellipse
       style="opacity:1;vector-effect:none;fill:#00ff00;fill-opacity:1;stroke:none;stroke-width:0.15165584;stroke-linecap:butt;stroke-linejoin:miter;stroke-miterlimit:10;stroke-dasharray:none;stroke-dashoffset:0;stroke-opacity:1"
       id="path1854-0-0"
       cx="-90.895271"
       cy="43.63435"
       rx="3.25"
       ry="3.3" />
    <ellipse
       style="opacity:1;vector-effect:none;fill:#00ff00;fill-opacity:1;stroke:none;stroke-width:0.15165584;stroke-linecap:butt;stroke-linejoin:miter;stroke-miterlimit:10;stroke-dasharray:none;stroke-dashoffset:0;stroke-opacity:1"
       id="path1854-0-4-0"
       cx="295.39655"
       cy="-228.84315"
       rx="3.25"
       ry="3.3"
       transform="scale(1,-1)" />
    <ellipse
       style="opacity:1;vector-effect:none;fill:#00ff00;fill-opacity:1;stroke:none;stroke-width:0.15165584;stroke-linecap:butt;stroke-linejoin:miter;stroke-miterlimit:10;stroke-dasharray:none;stroke-dashoffset:0;stroke-opacity:1"
       id="path1854-0-0-8"
       cx="-89.383194"
       cy="-115.45023"
       rx="3.25"
       ry="3.3"
       transform="scale(1,-1)" />
  </g>
</svg>
