<?xml version="1.0" encoding="UTF-8" standalone="no"?>
<!-- Created with matplotlib (http://matplotlib.org/) -->

<svg
   xmlns:dc="http://purl.org/dc/elements/1.1/"
   xmlns:cc="http://creativecommons.org/ns#"
   xmlns:rdf="http://www.w3.org/1999/02/22-rdf-syntax-ns#"
   xmlns:svg="http://www.w3.org/2000/svg"
   xmlns="http://www.w3.org/2000/svg"
   xmlns:sodipodi="http://sodipodi.sourceforge.net/DTD/sodipodi-0.dtd"
   xmlns:inkscape="http://www.inkscape.org/namespaces/inkscape"
   height="720pt"
   version="1.1"
   viewBox="0 0 720 720"
   width="720pt"
   id="svg3520"
   sodipodi:docname="mandelbrot.svg"
   inkscape:version="0.92.2 (5c3e80d, 2017-08-06)">
  <metadata
     id="metadata3524">
    <rdf:RDF>
      <cc:Work
         rdf:about="">
        <dc:format>image/svg+xml</dc:format>
        <dc:type
           rdf:resource="http://purl.org/dc/dcmitype/StillImage" />
        <dc:title />
      </cc:Work>
    </rdf:RDF>
  </metadata>
  <sodipodi:namedview
     pagecolor="#ffffff"
     bordercolor="#666666"
     borderopacity="1"
     objecttolerance="10"
     gridtolerance="10"
     guidetolerance="10"
     inkscape:pageopacity="0"
     inkscape:pageshadow="2"
     inkscape:window-width="1920"
     inkscape:window-height="1001"
     id="namedview3522"
     showgrid="false"
     inkscape:zoom="2.7812867"
     inkscape:cx="209.10428"
     inkscape:cy="666.15342"
     inkscape:window-x="-9"
     inkscape:window-y="-9"
     inkscape:window-maximized="1"
     inkscape:current-layer="svg3520" />
  <defs
     id="defs3165">
    <style
       type="text/css"
       id="style3163">
*{stroke-linecap:butt;stroke-linejoin:round;}
  </style>
  </defs>
  <defs
     id="defs3518">
    <clipPath
       id="pe44941d437">
      <rect
         height="576.0"
         width="537.587195732"
         x="100.206402134"
         y="72.0"
         id="rect3515" />
    </clipPath>
  </defs>
  <path
     style="fill:#35fd0b;stroke-width:0.29210448;stroke-linecap:butt;stroke-linejoin:round"
     d="m 251.18078,517.86372 c -9.42229,0 -17.0083,7.5859 -17.0083,17.0083 v 249.44825 c 0,9.42227 7.58601,17.00829 17.0083,17.00829 h 249.44824 c 9.4224,0 17.0083,-7.58602 17.0083,-17.00829 V 534.87202 c 0,-9.4224 -7.5859,-17.0083 -17.0083,-17.0083 z m 8.50342,14.17383 h 8.51221 c -0.1365,0.70036 -0.30138,1.41047 -0.44824,1.80469 -0.20243,0.54339 -0.51855,1.58401 -0.70313,2.31298 -0.18456,0.72896 -0.69264,2.43655 -1.12793,3.79395 -0.43531,1.3574 -0.97213,3.34104 -1.19385,4.40918 -0.22173,1.06815 -0.85303,3.26781 -1.40185,4.88672 -0.54882,1.6189 -1.02455,3.29013 -1.05762,3.71484 -0.0331,0.42472 -0.17711,1.14176 -0.3208,1.59375 -0.14369,0.452 -0.63533,1.98267 -1.09277,3.40137 -0.45744,1.41874 -1.08848,3.69757 -1.40186,5.06396 -0.31336,1.3664 -0.95744,3.74367 -1.43115,5.28223 -0.96492,3.13397 -1.10363,3.65653 -1.39014,5.2456 -0.11056,0.61323 -0.57973,2.10402 -1.04296,3.31349 -0.46322,1.20947 -0.81577,2.49887 -0.7837,2.86522 0.0321,0.36636 -0.55526,2.41675 -1.30517,4.55568 -0.74994,2.13895 -1.42881,4.30672 -1.50733,4.81787 -0.0785,0.51114 -0.29366,1.48789 -0.479,2.1709 -0.33319,1.22788 -1.71768,5.47357 -3.1626,9.78516 v -57.67969 c 0,-6.2816 5.05639,-11.33789 11.33789,-11.3379 z M 503.4635,738.3769 v 37.43994 c 0,6.28161 -5.0564,11.33791 -11.3379,11.33791 H 282.2135 c 1.98845,-0.25192 3.36291,-0.40575 6.82178,-0.76027 1.19532,-0.12248 3.89488,-0.43973 5.99853,-0.70605 6.62325,-0.83843 6.96782,-0.8754 8.4668,-0.90675 1.70356,-0.0357 5.9974,-0.54856 6.19189,-0.73974 0.073,-0.0717 1.00241,-0.10857 2.06397,-0.082 2.52873,0.0633 5.39044,-0.12546 7.27147,-0.479 1.52358,-0.28644 2.86719,-0.36217 6.00879,-0.33838 0.93908,0.007 2.38464,-0.13895 3.21094,-0.32519 0.82632,-0.18615 1.87676,-0.29017 2.33496,-0.23145 0.45821,0.0588 1.86925,-0.0575 3.13477,-0.25782 1.26554,-0.20034 2.36803,-0.29502 2.45068,-0.21093 0.0827,0.0841 0.58273,0.045 1.11182,-0.0864 0.52909,-0.13122 2.14065,-0.33811 3.58008,-0.45996 2.69296,-0.22794 5.93557,-0.65982 9.57568,-1.27441 1.14297,-0.19295 2.46726,-0.36536 2.94287,-0.38379 0.47565,-0.0184 1.51465,-0.2173 2.3086,-0.44092 3.42426,-0.96447 5.29871,-1.43162 7.46191,-1.86035 1.26775,-0.25122 2.38335,-0.53489 2.47998,-0.62989 0.0966,-0.0949 1.38143,-0.48147 2.85498,-0.85986 3.86331,-0.99201 3.58124,-0.90792 8.47559,-2.50927 5.87957,-1.92372 6.89799,-2.23492 7.56445,-2.30567 0.30599,-0.0325 1.33375,-0.39259 2.28369,-0.80127 0.94997,-0.40867 2.79326,-1.08693 4.09717,-1.50586 1.30384,-0.41895 2.44762,-0.83643 2.5415,-0.92871 0.094,-0.0923 0.5416,-0.1782 0.99463,-0.19043 0.45303,-0.0127 1.90156,-0.42602 3.21826,-0.91992 2.36811,-0.88832 7.91143,-2.67736 15.23731,-4.91602 4.83857,-1.47857 6.4595,-1.89957 7.77392,-2.02002 0.58417,-0.0536 1.15676,-0.19044 1.27149,-0.30322 0.36778,-0.36149 4.67579,-1.73618 5.25586,-1.67725 0.30782,0.0314 0.68153,-0.063 0.83057,-0.20947 0.14904,-0.1465 0.77699,-0.3051 1.39599,-0.35303 0.61898,-0.048 2.02384,-0.42065 3.12158,-0.82763 1.09772,-0.40699 2.5088,-0.82292 3.13477,-0.92432 1.61253,-0.26112 2.12754,-0.38836 5.28808,-1.30224 1.54649,-0.44716 3.93408,-1.04905 5.30567,-1.33887 1.37159,-0.28981 3.65748,-0.87738 5.07861,-1.30518 3.67325,-1.10574 4.41742,-1.30081 5.15039,-1.34619 0.35696,-0.0221 1.9809,-0.46534 3.60937,-0.98584 1.62849,-0.5205 3.83838,-1.11356 4.91016,-1.3169 1.07179,-0.20331 3.11433,-0.72078 4.53955,-1.1499 3.55808,-1.07127 4.36084,-1.28214 5.09033,-1.34325 0.70827,-0.0594 3.80956,-0.93887 5.88135,-1.667 0.75345,-0.2648 1.94517,-0.552 2.64844,-0.63867 0.70328,-0.0866 2.42852,-0.48796 3.8335,-0.89209 1.40499,-0.40412 2.94491,-0.80729 3.42187,-0.89502 3.30312,-0.60749 4.68608,-0.92334 4.88379,-1.11768 0.12505,-0.12293 0.86391,-0.32046 1.64209,-0.43798 0.77817,-0.11759 2.55545,-0.54029 3.94922,-0.94043 0.84129,-0.24153 1.7428,-0.47609 2.5503,-0.6753 z"
     id="path4724"
     inkscape:connector-curvature="0" />
  <path
     style="fill:#d5eb00;stroke-width:0.29210448;stroke-linecap:butt;stroke-linejoin:round"
     d="m 567.88183,527.15771 c -9.42229,0 -17.0083,7.5859 -17.0083,17.0083 v 249.44825 c 0,9.42227 7.58601,17.00829 17.0083,17.00829 h 249.44826 c 9.42239,0 17.00829,-7.58602 17.00829,-17.00829 V 544.16601 c 0,-9.4224 -7.5859,-17.0083 -17.00829,-17.0083 z m 8.50342,14.17383 h 60.47461 c 0.12224,0.7027 0.22699,1.37239 0.27978,1.875 0.2793,2.65884 -0.1577,7.1169 -0.91406,9.3208 -0.9231,2.68975 -2.97363,6.37717 -4.82812,8.6836 -2.61039,3.24657 -3.83924,5.05422 -7.08838,10.42382 -3.18246,5.25939 -3.87667,6.74182 -4.13964,8.84912 -0.20108,1.61136 -0.0161,2.38797 1.13964,4.78565 4.91552,10.19659 5.42975,12.08538 5.71436,20.98681 0.43497,13.60425 -0.37478,18.86308 -3.81446,24.75587 -2.49648,4.27693 -5.55351,7.52989 -11.01123,11.71582 -2.91566,2.23621 -4.44111,4.04993 -7.08105,8.42285 -4.205,6.96534 -7.89788,10.09703 -14.77295,12.52588 -3.77769,1.33458 -8.24033,3.73328 -9.80273,5.26904 -1.6816,1.65291 -1.4773,2.60401 1.34473,6.25489 0.89053,1.15209 2.31469,3.25347 3.16553,4.66992 0.85079,1.41645 2.38395,3.73709 3.40721,5.15625 5.13196,7.11757 5.94745,12.57493 3.26807,21.88184 -0.80804,2.80677 -0.96281,4.03293 -0.90821,7.1997 0.16575,9.61104 -0.0428,11.54125 -1.71971,15.96094 -0.98817,2.6044 -2.17582,4.71673 -4.47071,7.95263 -0.89693,1.26471 -2.41647,3.46867 -3.37793,4.89698 -2.39445,3.55711 -5.93282,7.01464 -8.96044,8.75683 -3.06406,1.76306 -3.90117,2.6517 -4.15137,4.40625 -0.63754,4.4706 -0.98764,5.99556 -1.70801,7.43994 -0.2779,0.5572 -0.77865,1.40229 -1.38281,2.37159 V 552.66943 c 0,-6.2816 5.05639,-11.33789 11.33788,-11.33789 z m 213.65333,0 h 18.78809 c 6.28161,0 11.33799,5.05629 11.33789,11.33789 v 9.43799 c -2.19003,-1.3351 -5.37904,-2.99765 -10.9922,-5.87109 -1.95912,-1.00289 -4.86532,-2.47361 -6.45849,-3.26807 -4.30623,-2.14738 -5.92096,-3.26422 -8.43897,-5.83594 -1.69527,-1.73042 -2.94474,-3.41954 -4.23632,-5.80078 z m -156.51271,28.76807 c 0.13281,0.0197 0.24327,0.11163 0.27246,0.24023 l -0.31639,0.27393 c -0.036,-0.0307 -0.0732,-0.065 -0.11426,-0.10694 -0.13167,-0.13404 -0.15994,-0.26853 -0.0864,-0.3457 0.0246,-0.0256 0.0602,-0.045 0.10693,-0.0557 0.0468,-0.0106 0.0934,-0.0124 0.13769,-0.006 z m -17.16064,86.29981 c 0.0218,-0.0155 0.0764,-0.006 0.1626,0.0322 l -0.12012,0.10254 c -0.0484,-0.0706 -0.0653,-0.11683 -0.0425,-0.1333 z m -26.07129,16.18652 c 0.0538,0.0215 0.1151,0.063 0.17139,0.12012 0.11266,0.11463 0.1051,0.30555 -0.0161,0.4248 -0.1214,0.11928 -0.25409,0.0669 -0.29591,-0.11718 -0.0418,-0.1842 -0.0344,-0.3766 0.0161,-0.42627 0.0253,-0.0248 0.0707,-0.023 0.12451,-10e-4 z m 218.50342,25.67139 0.1919,0.082 c 0.11266,0.11463 0.16338,0.24914 0.1128,0.29883 -0.0505,0.0496 -0.24278,0.0527 -0.42628,0.007 -0.1834,-0.0449 -0.23417,-0.17806 -0.11279,-0.29736 0.0653,-0.0641 0.15168,-0.0939 0.23437,-0.0908 z m -15.41016,6.11572 c 2.22852,0.019 4.31515,0.33096 6.60059,0.96973 5.04737,1.41065 6.9294,1.66516 13.37549,1.80469 3.18078,0.0688 5.2556,0.13617 6.80128,0.25488 v 77.70849 c 0,6.28161 -5.05639,11.33791 -11.33789,11.33791 H 576.38525 c -6.2815,0 -11.33789,-5.0563 -11.33789,-11.33791 v -7.94531 c 3.04267,-2.14909 7.40682,-4.91454 9.14649,-5.74512 1.45656,-0.6954 2.98688,-1.02004 7.46777,-1.58056 1.75861,-0.21999 2.66253,-1.04192 4.47802,-4.0752 1.80977,-3.02364 5.29843,-6.46234 9.02637,-8.89599 1.50946,-0.98538 3.73911,-2.46785 4.95411,-3.29444 6.02644,-4.09996 11.0316,-5.83144 16.85742,-5.83008 1.76937,4.1e-4 4.93971,0.0586 7.04589,0.12891 3.15987,0.10535 4.42292,-0.0303 7.22022,-0.77929 9.36814,-2.50814 14.78214,-1.599 21.84375,3.66943 1.38681,1.03469 3.66658,2.59978 5.06543,3.47753 1.39888,0.87774 3.47334,2.34013 4.61133,3.24903 3.60925,2.88264 4.55355,3.10086 6.23437,1.44873 1.5624,-1.53577 4.03813,-5.95628 5.4375,-9.71045 2.67994,-7.18957 6.14687,-10.9541 14.12549,-15.33398 2.71599,-1.49093 4.51494,-3.01856 6.88477,-5.84912 4.08417,-4.87828 5.61864,-6.47257 7.92627,-8.23829 4.36467,-3.3397 8.34622,-5.16928 13.13964,-6.03661 3.61299,-0.65373 19.00467,-0.48966 21.8628,0.2329 0.54714,0.13826 1.15416,0.21532 1.34766,0.17139 0.76503,-0.17366 5.76033,1.60955 9.19042,3.28125 7.01873,3.42062 7.34032,3.54143 9.03223,3.38819 2.23621,-0.20255 3.76384,-0.87218 9.1377,-4.00782 5.90021,-3.4428 6.32295,-3.7186 9.90527,-6.46582 4.79349,-3.67601 9.30441,-5.56859 14.11084,-5.91943 0.78716,-0.0575 1.54525,-0.084 2.28808,-0.0776 z m -128.23974,44.49902 0.2622,0.0776 c 0.11267,0.11464 0.16337,0.24913 0.1128,0.29883 -0.0506,0.0497 -0.24143,0.0545 -0.4248,0.009 -0.18335,-0.045 -0.23421,-0.17952 -0.1128,-0.29883 0.0467,-0.046 0.10363,-0.0748 0.1626,-0.0864 z"
     id="path4732"
     inkscape:connector-curvature="0" />
  <path
     style="fill:#1252ee;stroke-width:0.29210448;stroke-linecap:butt;stroke-linejoin:round"
     d="m -62.42805,511.65696 c -9.4223,0 -17.0083,7.5859 -17.0083,17.0083 v 249.44825 c 0,9.42227 7.586,17.00829 17.0083,17.00829 h 249.44824 c 9.42241,0 17.0083,-7.58602 17.0083,-17.00829 V 528.66526 c 0,-9.4224 -7.58589,-17.0083 -17.0083,-17.0083 z m 8.50341,14.17383 H 23.6447 c 0.0987,0.12795 0.17474,0.23503 0.31055,0.3999 0.69501,0.84372 0.78324,0.86931 1.28613,0.375 0.70124,-0.68928 1.70234,-0.76396 2.20313,-0.16406 0.83538,1.00076 1.15202,1.11181 1.77978,0.62402 0.39828,-0.30943 0.82356,-0.37444 1.15723,-0.17724 0.29002,0.17146 1.37398,0.28254 2.4082,0.24609 1.95755,-0.0689 2.68603,0.23815 2.0962,0.8833 -1.80785,1.97747 -2.41977,2.53594 -2.91212,2.6543 -0.42564,0.10239 -0.63896,0.38547 -0.83056,1.10449 -0.24699,0.92687 -0.28598,0.96257 -0.9126,0.85108 -0.35987,-0.0641 -0.96488,0.0683 -1.34472,0.29296 -0.59247,0.35052 -0.67612,0.66327 -0.59181,2.19873 0.10929,1.98476 0.17576,1.96069 -2.04638,0.73683 -0.76352,-0.42048 -0.85383,-0.38888 -1.94092,0.67968 -1.00236,0.98526 -1.09692,1.18203 -0.77197,1.62305 0.20337,0.27612 0.24279,0.83275 0.0879,1.23633 -0.31458,0.81964 0.30695,1.69914 0.99023,1.40185 0.7605,-0.33088 1.1287,0.45455 0.65186,1.39161 -0.85024,1.67085 -0.85751,1.67505 -1.62012,1.14111 -0.54172,-0.37938 -1.03388,-0.4089 -1.90722,-0.11719 l -1.17627,0.39258 -0.022,-0.92579 c -0.0255,-1.12315 -0.52599,-1.3086 -1.34912,-0.4995 -0.60695,0.59658 -1.29949,0.39111 -1.12207,-0.33252 0.045,-0.18345 -0.05,-0.46772 -0.2124,-0.63282 -0.39075,-0.39751 -1.13595,0.35496 -0.89649,0.90528 0.26328,0.60517 -1.74904,2.58224 -2.3496,2.30859 -0.53577,-0.24416 -1.1051,0.27697 -0.7251,0.66357 0.15514,0.15784 0.51657,0.26729 0.80273,0.24317 0.8359,-0.0705 1.66116,1.88982 1.04883,2.49169 -0.54638,0.53708 -0.42182,1.46039 0.23731,1.76075 0.33642,0.15326 0.72739,-0.0462 1.40918,-0.71631 0.51916,-0.51033 0.99817,-0.87211 1.06494,-0.8042 0.0667,0.0678 0.16837,0.54546 0.22558,1.06201 0.12405,1.1203 0.46745,1.51181 1.66553,1.8999 0.49372,0.15993 0.93024,0.32458 0.96973,0.36475 0.19548,0.19889 -0.38934,1.41153 -0.65772,1.36377 -0.92613,-0.16482 -2.22034,0.38859 -2.77734,1.18799 -0.71074,1.02009 -0.37343,2.58165 0.62402,2.89307 0.74183,0.23157 0.88402,0.71719 0.36035,1.23193 -0.21657,0.21287 -0.32264,0.96094 -0.23437,1.66259 0.0883,0.70169 0.0932,1.34387 0.0102,1.4253 -0.24635,0.24216 -2.13426,-0.9126 -2.48144,-1.51758 -0.45405,-0.79114 -1.56022,-1.05753 -2.51807,-0.60498 -1.02021,0.48199 -1.63453,-0.0706 -1.23487,-1.11182 0.34104,-0.88861 -0.13976,-1.2944 -0.88769,-0.74853 -0.28039,0.2046 -1.0238,0.32311 -1.65088,0.26367 -0.72559,-0.0688 -1.17663,0.0445 -1.24218,0.31202 -0.0567,0.23103 -0.38107,0.70089 -0.72071,1.04296 -0.59466,0.59834 -0.58408,0.65294 0.2915,1.46777 0.90177,0.83917 0.90355,0.85317 0.19337,1.55127 -0.41353,0.40647 -0.81937,0.59958 -0.95948,0.45704 -0.82337,-0.83768 -3.18339,0.0741 -3.19335,1.2334 -0.003,0.36288 -0.3182,0.47935 -1.30079,0.48193 l -1.29638,0.004 0.0557,-1.45751 c 0.0304,-0.80144 -0.0959,-1.61039 -0.27978,-1.79737 -0.22892,-0.23289 -0.15079,-0.51957 0.24609,-0.90967 0.45214,-0.44444 0.49561,-0.75746 0.20068,-1.42529 -0.20796,-0.47083 -0.5098,-0.82468 -0.67089,-0.78808 -0.44838002,0.10182 -1.38297002,3.154 -1.06494002,3.47754 0.36654,0.3729 0.007,1.99874 -0.48927,2.21484 -0.2125,0.0926 -0.66908998,-0.0588 -1.01366998,-0.33545 -1.0484,-0.84199 -1.43587,-0.28503 -0.479,0.68848 0.6112,0.6218 0.7513,0.9343 0.52002,1.16161 -0.36899,0.3627 -3.32546,1.30225 -3.76172,1.19532 -0.40185,-0.0985 -0.94652,0.46562 -0.6958,0.7207 0.11027,0.11224 0.73754,0.0475 1.39307,-0.14502 0.6555,-0.19255 1.8003,-0.38705 2.54589,-0.43066 l 1.35644998,-0.0791 -0.13037,0.90966 c -0.0713,0.50043 -0.28943,1.12285 -0.48486998,1.38135 -0.19539,0.25854 -0.23556,1.04983 -0.0893,1.75928 0.23525998,1.14116 0.18125,1.34317 -0.4746,1.75489 -0.52716,0.33099 -0.6446,0.51523 -0.40577,0.6372 0.3626,0.18528 1.97913998,-1.00905 2.37890998,-1.75781 0.13474,-0.2523 0.12361,-0.69875 -0.0249,-0.9917 -0.14867,-0.2929 -0.12355,-0.67631 0.0557,-0.85254 0.17926,-0.17621 0.44787,-0.82027 0.59765,-1.43115 l 0.27246002,-1.11182 1.07373,0.45264 c 1.33094,0.55983 1.438,0.66704 1.19531,1.1997 -0.41676,0.91452 1.6831,2.25273 2.73048,1.74024 0.3694,-0.18068 1.18967,1.63108 0.87744,1.93799 -0.12393,0.12166 -0.42594,0.21889 -0.6709,0.21679 -0.24494,-9.9e-4 -0.68498,0.29228 -0.97706,0.65333 -0.46189,0.57097 -0.44638,0.72361 0.1128,1.17334 0.35356,0.28443 0.71662,0.88797 0.80713,1.34179 0.20808,1.04388 0.2293,1.06206 0.85986,0.7002 0.31643,-0.18165 0.69508,-0.12536 0.95801,0.14209 0.58588,0.59606 1.40572,0.20732 1.28613,-0.60938 -0.13911,-0.94997 0.67208,-1.1505 1.4502,-0.35889 0.78719,0.80085 1.91751,0.92487 2.5708,0.28272 0.26191,-0.25745 0.63581,-0.4286 0.83057,-0.38086 0.19479,0.0477 0.66722,-0.0509 1.05175,-0.21973 0.59247,-0.25996 0.72884,-0.20881 0.88769,0.33252 0.11774,0.40143 -0.0248,0.84685 -0.38378,1.19971 -0.63612,0.62526 -0.99139,1.98482 -0.61963,2.37305 0.13236,0.13868 0.28952,0.46955 0.34716,0.73682 0.0848,0.39255 -0.13271,0.46782 -1.13085,0.39404 -1.36213,-0.1007 -1.7402,0.10939 -1.67139,0.92578 0.0252,0.2987 -0.17807,0.88704 -0.45264,1.3081 l -0.4995,0.76612 1.29052,1.04296 c 0.82005,0.66254 1.51832,1.01204 1.91602,0.95948 0.58548,-0.0774 0.62033,-0.0323 0.53027,0.70752 -0.0529,0.43499 0.002,1.10804 0.12305,1.4956 0.20976,0.66987 0.17991,0.71309 -0.62256,0.87305 -0.47886,0.0955 -1.04212,-0.0328 -1.30078,-0.2959 -0.35189,-0.358 -0.69392,-0.33826 -1.49854,0.0864 -1.4884,0.7857 -1.70572,1.07462 -1.59082,2.11231 0.0836,0.75413 -0.0388,1.01512 -0.67236,1.42969 -0.9162,0.59948 -1.10177,0.46984 -1.29639,-0.90968 -0.10563,-0.74805 -0.33751,-1.15291 -0.83643,-1.45752 -0.49815,-0.30412 -0.66189,-0.59053 -0.59033,-1.02685 0.0868,-0.52883 -0.0171,-0.52317 -0.82031,0.0454 -1.16817,0.82677 -1.24131,1.16657 -0.3794,1.75195 0.96936,0.65836 1.11639,2.14939 0.23292,2.35693 -0.51291,0.12054 -0.61824,0.35129 -0.62696,1.36524 -0.008,0.99171 -0.15137,1.31188 -0.76025,1.71094 -0.41196,0.27001 -0.86983,0.43039 -1.01807,0.35596 -0.35187,-0.1766 -0.8562,0.3261 -0.75879,0.75585 0.0419,0.1845 0.43686,0.17641 0.87891,-0.0176 1.28484,-0.56373 2.12977,-0.50381 2.32617,0.16553 0.0927,0.31585 0.0391,0.81808 -0.11865,1.11622 -0.1578,0.29809 -0.14418,0.68622 0.0293,0.86279 0.24145,0.24565 0.41616,0.1564 0.74413,-0.38087 0.23574,-0.38613 0.50776,-0.81175 0.60498,-0.94628 0.10241,-0.14171 0.51358,0.14516 0.97852,0.68115 1.03706,1.19549 1.52441,1.05582 1.57178,-0.44971 0.0369,-1.17066 0.0605,-1.2048 0.7251,-1.09716 0.53266,0.0862 0.69726,0.23092 0.73242,0.64892 0.0637,0.75679 1.5189,1.98494 2.23974,1.88965 0.33101,-0.0437 0.77602,-0.24936 0.98731,-0.45703 0.58375,-0.57381 2.00396,-0.76525 2.20752,-0.29737 0.0978,0.22485 -0.0328,0.61579 -0.2915,0.87012 -0.25871,0.2543 -0.52892,0.91124 -0.59912,1.45898 -0.11337,0.88422 -0.0208,1.07283 0.82617,1.68604 0.92043,0.66638 0.93166,0.70175 0.30615,1.01221 -0.35657,0.17693 -1.02969,0.68375 -1.49707,1.125 -0.84704,0.79966 -0.85361,0.79966 -1.66992,-0.0308 -0.75146,-0.76449 -0.85757,-0.78627 -1.28614,-0.2666 -0.7648,0.92731 -0.82556,1.24305 -0.33398,1.74317 0.66235,0.67388 0.34804,3.00008 -0.47021,3.48047 -0.7782,0.4569 -0.65362,1.16844 0.1831,1.0459 0.40151,-0.0588 0.72182,0.0982 0.89648,0.44238 0.30777,0.6067 2.20546,0.6068 3.24024,0 0.33176,-0.19474 1.22985,-0.28058 1.99658,-0.19043 l 1.39453,0.16406 0.23438,1.08838 c 0.27724,1.28586 -0.44459,2.08082 -1.29785,1.42823 -0.29001,-0.22182 -0.66793,-0.26517 -0.83936,-0.0967 -0.52205,0.51313 -0.71341,1.50992 -0.35889,1.87061 0.38948,0.39623 0.49801,1.67672 0.16993,2.0083 -0.62921,0.63623 -0.45151,1.1112 0.57715,1.54395 0.77631,0.32658 1.30996,0.29348 2.31006,-0.14356 1.25689,-0.54926 2.103,-0.49843 2.24706,0.13623 0.0407,0.17946 -0.18905,0.38239 -0.5581,0.49072 -0.91055,0.26718 -1.27346,1.17281 -0.83789,2.09473 0.20823,0.44071 0.25506,1.03431 0.104,1.31982 -0.40494,0.76532 0.35575,1.33426 1.5586,1.16456 l 1.05321,-0.14942 0.18458,1.09424 c 0.10099,0.60225 0.13955,1.28518 0.0864,1.51758 -0.13362,0.58416 0.43227,1.09052 1.27295,1.13964 0.65209,0.0381 0.72487,0.12966 0.99756,1.22608 0.22948,0.92276 0.4327,1.22823 0.91846,1.37988 0.43006,0.13433 0.76178,0.46712 1.06934,1.07373 0.2452,0.48366 1.0699,1.70843 1.83252,2.72168 0.76257,1.01328 1.46717,2.1171 1.56591,2.45361 0.32602,1.11123 -0.51721,1.45507 -2.25586,0.91846 -0.88922,-0.27447 -2.14463,-0.61588 -2.79053,-0.75732 -0.6459,-0.14145 -1.30547,-0.38863 -1.46484,-0.55078 -0.15938,-0.16213 -0.72792,-0.28652 -1.26416,-0.27539 -0.53624,0.0113 -1.28206,-0.23153 -1.65673,-0.53907 -0.49541,-0.40669 -0.82064,-0.45568 -1.19239,-0.18163 -0.55258,0.40726 -2.13065,-0.0821 -2.27198,-0.7046 -0.13713,-0.60438 -1.14002,-0.54233 -1.52929,0.0952 -0.29246,0.47919 -0.57908,0.50492 -1.68017,0.14795 -0.82842,-0.26858 -1.46129,-0.66163 -1.68604,-1.04444 -0.24847,-0.42312 -0.50152,-0.55126 -0.81592,-0.41455 -0.70835,0.30822 -1.0515,1.5732 -0.62402,2.30127 0.61745,1.05169 0.0969,1.10592 -0.89795,0.0937 -0.77888,-0.79239 -1.21988,-0.964 -2.98828,-1.16015 -1.65502,-0.18359 -1.99565,-0.30647 -1.68896,-0.60791 0.53142,-0.52235 0.48483,-0.91147 -0.11719,-0.97266 -0.73044,-0.0743 -1.28819,0.59008 -1.29639,1.54395 -0.008,0.99622 0.54888,1.62701 1.44287,1.63476 1.6824,0.0145 0.6773,1.94768 -1.03271,1.98633 -0.73442,0.0166 -1.14417,-0.20109 -1.97168,-1.04297 -1.08819,-1.10705 -2.37323,-1.57878 -2.89746,-1.06347 -0.16133,0.15858 -0.59084002,0.19577 -0.95508002,0.082 -0.36424,-0.11379 -1.25624,0.0166 -1.98193998,0.29004 -0.7257,0.27344 -1.41216,0.40327 -1.5249,0.28858 -0.11265,-0.11463 -0.18226,-0.68226 -0.15527,-1.26123 0.0484,-1.03713 0.0414,-1.04576 -0.41748,-0.59473 -0.55883,0.54931 -0.49723,1.98523 0.11279,2.625 0.54065,0.56809 1.60216,0.60498 2.14014,0.0762 0.29242,-0.28742 0.54485998,-0.24843 0.92723998,0.14063 0.84807,0.86278 0.95088,1.70006 0.29004,2.34961 -0.33702,0.33126 -0.51472,0.77154 -0.40869,1.01514 0.26487,0.60885 -0.0383,0.80755 -1.39452998,0.9126 -1.14718,0.0889 -1.18774,0.11727 -1.23193,0.87304 -0.0612,1.04513 -0.56243,0.99 -1.89551,-0.20801 -0.90972,-0.81756 -1.13993,-0.90593 -1.40186,-0.54346 -0.27048,0.37414 -0.39386,0.31337 -0.90234,-0.44384 -0.39435,-0.58718 -0.66779,-0.80167 -0.82617,-0.646 -0.1301,0.12786 -0.56924,0.0797 -0.97559,-0.10693 -0.4123,-0.18948 -0.80616,-0.1811 -0.89209,0.019 -0.0847,0.19719 -0.24948,0.57771 -0.36621,0.84522 -0.15676,0.3592 -0.55959,0.40505 -1.54101,0.17431 -0.88462,-0.20795 -1.56262,-0.15681 -2.02734,0.15234 -0.9113,0.60626 -0.88433,0.74079 0.19628,0.97559 0.62521,0.13573 1.06667,0.44618 1.44873,1.01514 0.4573,0.68101 0.64279,0.77036 1.10449,0.53613 0.30528,-0.1549 0.66596,-0.16974 0.79981,-0.0337 0.31566,0.32113 -0.79386,3.23763 -1.31836,3.46582 -0.785,0.34154 -0.21818,0.92494 0.79687,0.81885 0.88421,-0.092 1.05521,-0.0129 1.22608,0.56982 0.25123,0.85625 -0.47635,1.59711 -2.02148,2.05665 -0.64464,0.19168 -1.4938,0.55682 -1.88673,0.81152 -0.42015,0.27238 -0.9222,0.33902 -1.22021,0.16113 -0.60621,-0.36193 -0.96373,-0.0998 -0.69727,0.51269 0.1055,0.24258 0.52748,0.46087 0.9375,0.48487 0.54362,0.0318 0.88157,0.25877 1.24512,0.83789 0.45212,0.72016 0.42636,0.85384 -0.2666,1.42676 -0.54738,0.45264 -0.7389,0.83567 -0.67675,1.35351 0.0856,0.71502 0.079,0.7225 -0.62256,0.62695 -0.39048,-0.0534 -0.91099,-0.30172 -1.15723,-0.55224 -0.24624,-0.25051 -0.70455,-0.43499 -1.0166,-0.4087 -0.31207,0.0263 -0.78925,-0.17808 -1.06055,-0.45409 -0.27129,-0.276 -0.68194,-0.41968 -0.9126,-0.31934 -0.23071,0.10042 -0.65183,0.0596 -0.93604,-0.0908 -0.71113,-0.37628 -1.10193,0.10593 -0.97998,1.20703 0.12771,1.15304 -0.0375,1.31544 -1.28759,1.26563 -0.55064,-0.0219 -1.17217,0.12831 -1.38135,0.33398 -0.46651,0.45857 -1.04972,-0.0737 -1.42822,-1.30518 -0.15497,-0.50413 -0.43077,-0.89475 -0.63282,-0.89648 -0.43704,-0.004 -0.81756,1.57565 -0.57714,2.39502 0.23061,0.786 -0.0917,1.04936 -1.61865,1.32715 -0.7031,0.12786 -1.39195,0.3455 -1.53223,0.48339 -0.14023,0.13785 -0.58127,0.26486 -0.97852,0.28125 -1.14016,0.047 -0.85194,0.43093 0.75879,1.01221 1.03122,0.37215 1.57441,0.41 1.77979,0.12452 0.16263,-0.22593 0.87994,-0.47236 1.59375,-0.54639 1.37734,-0.14281 1.82605,0.24495 1.90429,1.64062 0.0291,0.5198 0.15623,0.68973 0.51563,0.69287 0.66467,0.006 0.70137,0.86657 0.0645,1.49268 -0.27764,0.27291 -0.37367,0.60948 -0.21827,0.76758 0.15249,0.15513 0.29271,0.7797 0.31055,1.3872 0.0364,1.24125 0.52064,1.44192 1.39893,0.57862 0.69716,-0.68527 1.57347,-0.43544 2.01709,0.57568 0.44339,1.0105 0.43399,1.00741 1.03564,0.41602 0.3551,-0.34904 0.73679,-0.42412 1.16748,-0.22705 0.92235,0.42204 0.70004,1.95076 -0.5083,3.48925 -0.86017,1.09521 -0.89043,1.21553 -0.32812,1.35059 0.79477,0.19094 1.50739,1.64073 0.958,1.94971 -0.20706,0.1166 -0.64854,0.38472 -0.97998,0.59619 -0.3314,0.21155 -0.96865,0.38032 -1.4165,0.37647 -0.81032,-0.007 -0.81388,2.2e-4 -0.78369,1.03564 0.0215,0.73979 -0.18067,1.24858 -0.69727,1.75634 -0.90708,0.89163 -0.67592,1.6678 0.44092,1.48096 0.57564,-0.0962 0.87284,0.0318 1.14404,0.49366 0.2943,0.50124 0.50848,0.56206 1.08838,0.30761 0.42269,-0.18547 0.8838,-0.15295 1.11182,0.0791 0.21424,0.21798 0.64781,0.37512 0.9624,0.34863 0.75217,-0.0634 0.85122,0.79662 0.16992,1.46631 -0.27377,0.2691 -0.40582,0.75719 -0.30175,1.11182 0.10198,0.34764 0.0113,0.91773 -0.20215,1.26709 -0.69675,0.99729 0.42509,0.95674 1.11767,1.12061 1.13794,0.26751 1.35954,0.41569 1.48682,0.98877 0.0823,0.37042 -0.0232,0.84274 -0.23438,1.05029 -0.21113,0.20753 -0.28012,0.41375 -0.15381,0.4585 0.1263,0.0449 0.6351,0.22049 1.13087,0.39111 0.69583,0.23951 0.86195,0.38823 0.72802,0.65039 -0.0954,0.18678 0.0764,0.59402 0.38232,0.90527 0.8352,0.84969 0.7298,1.45895 -0.30908,1.77979 -0.47179,0.14571 -1.03846,0.18295 -1.25976,0.082 -0.25944,-0.11829 -0.5581,0.0402 -0.83935,0.44677 -0.23996,0.34689 -0.52126,0.54402 -0.6255,0.438 -0.10422,-0.10605 -0.47364,-0.23901 -0.82031,-0.2959 -0.54241,-0.089 -0.67285,0.009 -0.94189,0.71044 -0.25202,0.65673 -0.46734,0.86003 -1.10596,1.04737 -0.43562,0.12785 -0.90248,0.11933 -1.03857,-0.019 -0.13616,-0.13856 -0.5225,-0.22901 -0.8584,-0.20069 -0.52358,0.0442 -0.59938,0.17607 -0.52735,0.92286 0.0461,0.4791 0.30516,1.09441 0.57423,1.36816 0.5499,0.55945 0.11553,1.2011 -1.04298,1.54101 -0.36903,0.10832 -1.15854,0.65381 -1.75341,1.21143 -1.00651,0.94358 -1.12329,0.97853 -1.69336,0.51855 -0.55402,-0.44704 -1.73588,-0.62018 -1.70948,-0.25048 0.006,0.0826 0.31396,0.57299 0.68555,1.08984 0.60986,0.84821 0.81085,0.93702 2.06543,0.91113 1.27798,-0.0264 1.43945,0.0476 2.00098,0.91992 0.46419,0.72117 0.51728,1.09893 0.21826,1.57471 -0.31927,0.50809 -0.26772,0.75551 0.27832,1.31104 0.59399,0.6043 0.61298,0.80624 0.15674,1.72558 -0.46158,0.93013 -0.61082,1.05206 -1.40186,1.13965 -0.48706,0.054 -0.94142,0.15305 -1.00927,0.21973 -0.19461,0.1913 0.75153,1.0396 1.30371,1.16894 0.65055,0.15246 0.7164,1.76097 0.0967,2.37012 -0.24459,0.24041 -0.49224,0.7528 -0.54933,1.13965 -0.1239,0.8397 -1.01297,1.79614 -1.91601,2.06104 -0.51084,0.14988 -0.65328,0.334 -0.65772,0.85107 -0.006,0.60454 0.0503,0.66131 0.65479,0.6665 0.51709,0.004 0.70415,-0.13484 0.86279,-0.64307 0.28044,-0.89832 1.25162,-1.77141 2.09327,-1.88085 0.38778,-0.0504 0.90754,-0.29064 1.15429,-0.53321 0.76635,-0.75327 1.81387,-0.49678 2.62354,0.6416 0.7945,1.11705 0.96041,1.09074 1.12353,-0.18164 0.10127,-0.7894 0.22513,-0.9373 1.16309,-1.38281 0.92703,-0.44032 1.12866,-0.41828 1.72266,0.18604 0.54603,0.5555 0.7917,0.61225 1.30517,0.30175 0.48083,-0.2908 0.85726,-0.2319 1.57031,0.24464 0.86757,0.57981 0.9341,0.73606 0.88331,2.07714 -0.0361,0.9529 0.1026,1.5214 0.40283,1.6582 0.25122,0.1145 0.67981,0.43485 0.95215,0.71192 0.68958,0.70154 1.22088,0.072 0.67383,-0.79834 -0.84564,-1.34556 -0.84318,-1.3661 0.23437,-2.33496 0.63312,-0.56927 1.16506,-1.32959 1.36963,-1.95704 0.38593,-1.18407 0.78844,-1.37363 1.46191,-0.68847 0.26243,0.26699 0.86796,0.53004 1.34619,0.58447 0.74544,0.0848 0.87852,0.0121 0.93165,-0.51123 0.034,-0.33537 -0.0499,-0.72286 -0.18604,-0.86133 -0.13615,-0.13854 -0.13599,-0.6052 0,-1.03857 0.19833,-0.63527 0.40404,-0.84616 1.06494,-1.08691 0.70547,-0.25695 0.8077,-0.38775 0.72802,-0.93165 -0.0509,-0.34756 -0.17847,-0.71866 -0.28271,-0.8247 -0.10422,-0.10605 0.0987,-0.38427 0.44971,-0.61817 0.41138,-0.27421 0.57498998,-0.56934 0.46142998,-0.83056 -0.097,-0.22306 -0.0512,-0.78909 0.10253,-1.2583 0.31277,-0.95415 0.94207,-1.13773 1.60108,-0.46729 0.20423,0.20779 0.65565002,0.44672 1.00342002,0.53027 0.50609,0.12167 0.66707,0.32725 0.80712,1.02979 0.21959,1.10193 0.30625,1.18601 0.76025,0.73975 0.20159,-0.19814 0.66815,-0.28785 1.03712,-0.19922 0.57078,0.13714 0.7145,0.36204 0.9624,1.50439 0.16025,0.73841 0.32865,1.38109 0.375,1.42823 0.0463,0.0471 0.37358,-0.0843 0.72656,-0.29151 0.35295,-0.20731 0.92566,-0.28815 1.27148,-0.18018 0.35279,0.11013 0.84243,-0.0151 1.11621,-0.28417 0.68132,-0.66971 1.53824,-0.55321 1.46192,0.19775 -0.0319,0.3141 0.11821,0.74885 0.33252,0.9668 0.23125,0.23526 0.25158,0.69616 0.0498,1.13525 -0.27595,0.60059 -0.22353,0.81157 0.28272,1.1206 0.4595,0.28047 0.58712,0.57737 0.48486,1.1294 -0.20146,1.0886 0.58245,1.32269 1.47949,0.44092 0.51659,-0.50777 1.02873,-0.70225 1.76807,-0.66797 1.03564,0.048 1.04041,0.0457 1.04736,-0.76465 0.004,-0.44787 0.18418,-1.08288 0.40137,-1.41064 0.2172,-0.32771 0.48808,-0.75886 0.60205,-0.95801 0.29466,-0.51481 1.78472,0.26192 1.95263,1.01807 0.11421,0.51448 0.26859,0.4751 1.34766,-0.34278 1.55904,-1.18168 3.09048,-1.37913 3.49659,-0.44971 0.18963,0.43401 0.10905,0.81551 -0.2461,1.16456 -0.60164,0.59138 -0.60471,0.58183 0.39844,1.04296 1.00333,0.46097 1.23776,1.34202 0.54053,2.02735 -0.87831,0.86332 -0.68675,1.34986 0.55371,1.40771 0.60709,0.0283 1.22885,0.17885 1.38135,0.33399 0.15277,0.15544 0.49181,0.0706 0.75586,-0.18897 0.6567,-0.64549 1.4379,-0.62166 1.49414,0.0454 0.0321,0.38034 0.2107,0.51961 0.71338,0.55665 1.37713,0.1014 1.75678,0.56191 1.59081,1.93212 -0.0862,0.71245 -0.34404,1.42485 -0.57275,1.5835 -0.28894,0.20041 -0.26062,0.74522 0.0937,1.78271 0.55348,1.62049 0.93233,1.91409 0.99902,0.7749 0.0232,-0.3969 0.15708,-0.83475 0.29736,-0.97265 0.14024,-0.13784 0.36979,-0.82412 0.50977,-1.52491 0.30401,-1.52196 0.57454,-1.83932 1.35645,-1.59521 0.81512,0.25449 2.40007,-0.0991 2.4038,-0.53613 10e-4,-0.20202 -0.38482,-0.48528 -0.88623,-0.64893 -1.22475,-0.39964 -1.74677,-0.99018 -1.28027,-1.44873 0.20918,-0.2056 0.36989,-0.82458 0.35742,-1.37548 -0.0283,-1.25076 0.13691,-1.41165 1.2876,-1.26417 1.09887,0.14086 1.58714,-0.24343 1.22315,-0.96093 -0.14542,-0.2868 -0.17909,-0.7086 -0.0747,-0.9375 0.10422,-0.22894 -0.032,-0.64245 -0.30323,-0.91846 -0.27132,-0.27603 -0.46671,-0.75629 -0.43505,-1.06787 0.0317,-0.31157 -0.14488,-0.77196 -0.39112,-1.02246 -0.24622,-0.25051 -0.48499,-0.77467 -0.53173,-1.16601 -0.0841,-0.70371 -0.0781,-0.71061 0.63574,-0.61231 0.51662,0.071 0.90474,-0.11521 1.3667,-0.65479 0.58481,-0.6829 0.71745,-0.70611 1.42969,-0.24169 0.57278,0.37347 0.79502,0.71561 0.81738,1.25976 0.0169,0.41035 0.22803,0.83512 0.46875,0.94482 0.60776,0.27694 0.87585,-0.0747 0.52441,-0.68701 -0.17271,-0.30111 -0.098,-0.80334 0.18164,-1.21875 0.26139,-0.38849 0.64101,-1.23082 0.84375,-1.87207 0.48603,-1.53707 1.23852,-2.25078 2.09034,-1.98486 0.57933,0.18087 0.65649,0.35236 0.54931,1.23486 -0.12532,1.03205 0.45302,1.58354 0.81885,0.78077 0.24577,-0.53925 3.14339,-1.56448 3.47315,-1.22901 0.13473,0.13714 0.11469,0.49579 -0.0454,0.79834 -0.2421,0.45761 -0.15448,0.6458 0.51856,1.11474 0.56226,0.39184 0.86372,0.83891 0.98877,1.46631 0.21617,1.08444 0.35081,1.11314 0.97265,0.21241 0.31707,-0.45938 0.37875,-1.13492 0.18604,-2.02295 -0.15925,-0.73386 -0.13341,-1.39878 0.0571,-1.47657 0.19056,-0.0778 0.57361,-0.23598 0.85107,-0.35156 0.37364,-0.15566 0.41998,-0.40435 0.17872,-0.95508 -0.1797,-0.40948 -0.21962,-0.85048 -0.0879,-0.97998 0.1531,-0.15046 -0.0184,-0.40951 -0.4746,-0.71923 -0.5694,-0.38664 -0.65145,-0.58756 -0.41016,-0.99171 0.24951,-0.41802 0.12261,-0.69028 -0.72803,-1.55566 -1.16684,-1.1871 -1.20124,-1.74353 -0.10987,-1.78857 0.71133,-0.0292 0.7531,-0.088 0.85987,-1.21436 0.12842,-1.35426 0.33184,-1.65519 0.93604,-1.37988 0.2418,0.11013 0.68545,-0.0598 1.02246,-0.39111 0.66082,-0.64956 1.49715,-0.53026 2.34521,0.33252 0.38238,0.38901 0.41545,0.64128 0.12305,0.92871 -0.53799,0.52881 -0.51862,1.58931 0.0395,2.14014 0.62961,0.62046 2.06323,0.70751 2.62207,0.15819 0.45888,-0.45105 0.4509,-0.45776 -0.5874,-0.42773 -0.57935,0.017 -1.14558,-0.0626 -1.25831,-0.17725 -0.1128,-0.11463 0.029,-0.79812 0.31494,-1.51904 0.28586,-0.72088 0.43261,-1.60994 0.3252,-1.97607 -0.10746,-0.36615 -0.0633,-0.79502 0.0982,-0.95362 0.51808,-0.50925 0.0753,-1.80777 -0.98438,-2.88573 -1.21857,-1.23972 -1.39566,-2.55918 -0.46435,-3.47462 0.71041,-0.69829 1.43762,-0.46462 1.42969,0.4585 -0.007,0.89404 0.61359,1.46074 1.60986,1.46924 0.95388,0.008 1.62758,-0.53694 1.56591,-1.26856 -0.0508,-0.60302 -0.43976,-0.65718 -0.97119,-0.13476 -0.30666,0.30143 -0.42352,-0.0428 -0.57861,-1.70069 -0.16569,-1.7715 -0.32854,-2.21346 -1.10742,-3.00586 -0.99495,-1.01222 -0.93104,-1.53339 0.10986,-0.89794 0.72062,0.43995 1.98972,0.11988 2.31006,-0.58301 0.14219,-0.31213 0.0174,-0.5676 -0.40137,-0.82324 -0.37883,-0.23132 -0.75932,-0.87073 -1.01367,-1.70362 -0.33796,-1.10706 -0.30833,-1.393 0.17578,-1.67725 0.64422,-0.37822 0.72501,-1.37881 0.12305,-1.52636 -0.61999,-0.15202 -1.08184,-1.7397 -0.66504,-2.28516 0.28027,-0.36702 0.23548,-0.69294 -0.1626,-1.19531 -0.30102,-0.3799 -0.53011,-1.12957 -0.50976,-1.66553 0.0204,-0.53597 -0.094,-1.10787 -0.25342,-1.27002 -0.15937,-0.16214 -0.39557,-0.82539 -0.52588,-1.47363 -0.13039,-0.64824 -0.44987,-1.9099 -0.70898,-2.80371 -0.50666,-1.74758 -0.14887,-2.58486 0.95654,-2.23974 0.33479,0.1045 1.42725,0.82848 2.42725,1.60839 1.00002,0.77988 2.21005,1.62591 2.68945,1.8794 0.60129,0.31785 0.92929,0.65457 1.05615,1.08691 0.14327,0.4883 0.44364,0.69656 1.3623,0.94189 1.09164,0.29152 1.18157,0.36833 1.2085,1.021 0.0416,1.008 0.34411,1.20535 2.13721,1.39893 l 1.59375,0.17138 -0.16992,1.06934 c -0.19284,1.21529 0.35751,1.989 1.13379,1.59522 0.2881,-0.1461 0.88129,-0.0883 1.31836,0.12744 0.91425,0.45134 1.82512,0.10455 2.10791,-0.80127 0.11461,-0.3672 0.32077,-0.59461 0.49951,-0.55079 0.63207,0.15498 0.669,1.00276 0.0981,2.25 -0.45419,0.99245 -0.49628,1.52677 -0.1831,2.3086 0.4074,1.01701 0.88635,1.22077 1.49853,0.63867 0.35364,-0.33578 1.62774,-0.25235 2.00537,0.13183 0.7662,0.77949 2.46462,-0.27027 1.82959,-1.13085 -0.63786,-0.86442 0.16926,-1.57374 1.4502,-1.27442 l 1.08545,0.25342 0.13915,1.39746 c 0.0769,0.76818 -0.0236,1.66531 -0.22411,1.99366 -0.62525,1.02418 -0.65991,2.92205 -0.0586,3.24023 0.3412,0.18058 0.49489,0.50189 0.4292,0.90235 -0.13699,0.83445 0.57132,0.97091 1.04151,0.20067 0.49443,-0.80988 2.82542,-1.08401 3.48779,-0.41015 0.49158,0.50008 0.80865,0.44546 1.74902,-0.30322 0.527,-0.41961 0.50831,-0.52602 -0.24316,-1.29053 -0.8163,-0.83046 -0.81866,-0.83491 -0.004,-1.66846 0.44943,-0.45951 0.9668,-1.12605 1.14991,-1.47949 0.32038,-0.61849 0.3586,-0.60647 0.99463,0.30469 0.77776,1.11416 1.7213,1.22052 3.06884,0.34716 1.40955,-0.91359 1.59819,0.20144 0.40137,2.36573 -0.35984,0.65075 -0.32354,0.9608 0.19775,1.69775 0.40424,0.57155 0.87688,0.94743 1.29053,1.02393 0.53938,0.0999 0.67071,0.23732 0.75147,0.79688 0.094,0.65139 0.0515,0.67775 -1.11182,0.69433 -1.50616,0.0215 -1.65499,0.50696 -0.47754,1.56446 0.52792,0.47408 0.80702,0.89022 0.66357,0.99023 -0.13615,0.0949 -0.56643,0.35977 -0.95654,0.58886 -0.54279,0.31872 -0.63555,0.49256 -0.39404,0.73829 0.17357,0.17658 0.56199,0.195 0.86279,0.0425 0.30076,-0.15264 0.80349,-0.19625 1.11768,-0.0982 0.66586,0.20788 0.7118,1.05267 0.12598,2.32764 -0.20154,0.43861 -0.21609,0.83527 -0.0322,0.88037 0.42805,0.10478 0.93944,-0.39093 0.76904,-0.74561 -0.0719,-0.14956 0.0964,-0.6064 0.37353,-1.01367 0.40947,-0.60193 0.73211,-0.7383 1.72412,-0.72949 0.98544,0.008 1.24672,-0.10083 1.35938,-0.56982 0.23152,-0.96384 1.6256,-0.86097 2.31885,0.17138 0.6516,0.97042 1.04824,0.8809 1.87207,-0.42626 0.43148,-0.68469 0.44338,-0.8434 0.0542,-0.69141 -0.37935,0.14814 -0.62567,0.0125 -0.99023,-0.54492 -0.35073,-0.53598 -0.7743,-0.78738 -1.52344,-0.90675 -1.38096,-0.21912 -1.50765,-0.40615 -0.8921,-1.3125 0.42543,-0.6264 0.6874,-0.74392 1.43994,-0.64746 1.03554,0.13278 1.32897,-0.0795 2.14014,-1.55419 0.43854,-0.79719 0.46323,-1.13909 0.11133,-1.49708 -0.25864,-0.26314 -0.37612,-0.82802 -0.27246,-1.30517 0.17374,-0.7996 0.21714,-0.82917 0.8833,-0.60791 0.3854,0.128 1.05831,0.19484 1.49414,0.14941 0.74133,-0.0772 0.78618,-0.042 0.69873,0.542 -0.0595,0.39672 0.27747,1.10083 0.92578,1.93213 l 1.021,1.30956 0.77344,-0.48633 c 0.42577,-0.26724 1.01868,-0.46095 1.31689,-0.43065 0.81509,0.0828 1.03084,-0.29163 0.95362,-1.65528 -0.0565,-0.99928 0.0221,-1.215 0.41308,-1.12353 0.2662,0.0623 0.59595,0.22421 0.73242,0.35888 0.37734,0.37386 1.74331,0.0508 2.36426,-0.55957 0.60285,-0.59257 1.6048,-0.64134 1.73145,-0.0835 0.0436,0.19225 -0.0438,0.47115 -0.19483,0.61963 -0.15106,0.1485 -0.25335,0.52583 -0.22705,0.83789 0.0263,0.31207 -0.14466,0.75658 -0.37939,0.98731 -0.66944,0.65801 -0.58937,1.77616 0.18164,2.56055 0.81215,0.82625 0.61925,1.63999 -0.3501,1.48095 -0.81453,-0.13362 -1.21577,0.67689 -0.62989,1.27295 0.26294,0.26748 0.31299,0.64913 0.12598,0.96241 -0.37269,0.62424 -0.35603,0.64557 0.68408,0.87158 0.45228,0.0983 1.05037,0.47213 1.32862,0.83056 0.43878,0.56538 0.59267,0.58299 1.16309,0.1377 0.38976,-0.30423 0.677,-0.82169 0.70312,-1.26855 0.0502,-0.858 -0.002,-0.84887 1.29492,-0.21534 0.64184,0.31336 0.92505,0.57079 0.83057,0.75586 -0.53043,1.03844 0.77181,3.16075 1.69336,2.75977 0.53676,-0.23351 0.64237,-0.12461 1.1792,1.21582 l 0.43359,1.08252 -1.11621,0.25195 c -0.61335,0.13925 -1.26068,0.39801 -1.43994,0.57422 -0.17927,0.17621 -0.56364,0.1947 -0.85401,0.041 -0.29027,-0.15365 -0.73711,-0.17274 -0.99169,-0.0425 -0.75551,0.38685 -1.97783,1.98237 -1.79883,2.34815 0.11785,0.24091 0.30456,0.12742 0.64453,-0.39404 0.4221,-0.64737 0.62787,-0.70088 1.75488,-0.45264 0.70201,0.15462 1.51413,0.14533 1.80615,-0.0205 0.29212,-0.16584 0.92196,-0.36395 1.39893,-0.43945 l 0.86718,-0.13623 -0.104,1.33887 c -0.0573,0.73632 -0.27079,1.87183 -0.47461,2.52392 -0.20379,0.65212 -0.28025,1.27789 -0.16992,1.39014 0.25068,0.25503 0.82543,-0.28064 0.73389,-0.68408 -0.0994,-0.438 0.88931,-3.37705 1.2583,-3.73975 0.23124,-0.22729 0.5416,-0.0828 1.15283,0.53906 0.95684,0.97344 1.5196,0.59542 0.6958,-0.46729 -0.27078,-0.3493 -0.41255,-0.80713 -0.3164,-1.01806 0.22458,-0.49287 1.8556,-0.82409 2.22217,-0.45117 0.32982,0.33556 3.38799,-0.56744 3.50244,-1.03418 0.047,-0.19175 -0.2894,-0.44033 -0.84082,-0.62109 -0.64205,-0.21044 -1.07572,-0.14863 -1.43555,0.20507 -0.33782,0.33205 -0.63061,0.38832 -0.84961,0.16553 -0.18377,-0.18698 -0.98971,-0.32566 -1.7915,-0.30908 l -1.45899,0.0308 0.0264,-1.29639 c 0.0195,-0.98235 0.14103,-1.29511 0.50391,-1.29199 1.13523,0.01 2.11579,-2.33079 1.31689,-3.14355 -0.1728,-0.1758 -0.011,-0.53163 0.44531,-0.97999 0.71023,-0.69811 0.72372,-0.69593 1.54688,0.21973 0.79966,0.88938 0.85466,0.90184 1.46338,0.31787 0.3477,-0.33387 0.82267,-0.65048 1.05468,-0.70312 0.26849,-0.0609 0.39027,-0.51116 0.33399,-1.2378 -0.0487,-0.62801 0.0822,-1.36819 0.2915,-1.64502 0.55862,-0.73842 0.16043,-1.22804 -0.73388,-0.90234 -1.04802,0.38167 -1.58935,-0.24067 -1.08985,-1.25244 0.46895,-0.94993 0.22215,-2.06072 -0.56103,-2.52832 -0.59894,-0.35754 -1.71999,-2.26419 -1.47364,-2.50635 0.0828,-0.0814 0.72377,-0.0666 1.42383,0.0337 0.70004,0.10029 1.44897,0.008 1.66553,-0.20508 0.52371,-0.51477 1.00728,-0.36483 1.22607,0.38085 0.2942,1.00266 1.85067,1.36692 2.88282,0.67383 0.80886,-0.54317 1.38372,-1.82653 1.23486,-2.75537 -0.0432,-0.26915 1.17999,-0.83316 1.37549,-0.63427 0.0394,0.0401 0.19574,0.47919 0.34717,0.97558 0.36744,1.20459 0.75261,1.55444 1.8706,1.69775 0.51549,0.0661 0.99238,0.17532 1.05908,0.24317 0.0667,0.0678 -0.30405,0.54142 -0.82324,1.05175 -0.68176,0.67013 -0.88589,1.05855 -0.73828,1.39746 0.289,0.66417 1.20704,0.80366 1.75342,0.26661 0.61231,-0.60189 2.56038,0.25674 2.47558,1.09131 -0.029,0.28572 0.0735,0.64929 0.22851,0.80712 0.37995,0.38655 0.91026,-0.17491 0.6753,-0.71484 -0.13235,-0.30416 0.1219,-0.73373 0.86719,-1.46631 0.74533,-0.73262 1.18065,-0.97978 1.48242,-0.84228 0.54609,0.24887 1.31207,-0.48291 0.92138,-0.88037 -0.16228,-0.16511 -0.4472,-0.26587 -0.63134,-0.22412 -0.7266,0.16495 -0.91894,-0.52989 -0.31201,-1.12647 0.82313,-0.80908 0.64647,-1.31465 -0.47607,-1.35938 l -0.92579,-0.0366 0.41309,-1.17041 c 0.30676,-0.86818 0.28499,-1.35905 -0.085,-1.90723 -0.52074,-0.77168 -0.51631,-0.77969 1.16894,-1.60108 0.94513,-0.46065 1.72527,-0.0794 1.38135,0.6753 -0.30903,0.67806 0.55932,1.31411 1.38427,1.01367 0.40616,-0.14793 0.96089,-0.0983 1.23341,0.10986 0.43534,0.33255 0.63536,0.24257 1.63769,-0.74267 1.08709,-1.06854 1.1192,-1.16003 0.71192,-1.93067 -1.1864,-2.24466 -1.21224,-2.17592 0.80127,-2.03027 1.53405,0.11097 1.87884,0.0294 2.21777,-0.52588 0.22077,-0.36155 0.3486,-0.96537 0.28564,-1.3418 -0.11027,-0.65875 -0.0773,-0.69358 0.8584,-0.92578 0.75074,-0.18632 1.00445,-0.3771 1.11475,-0.83643 0.0786,-0.3271 0.63409,-1.02288 1.23486,-1.54687 0.60074,-0.52405 1.26503,-1.10609 1.4751,-1.29346 0.66686,-0.59374 0.96274,0.18454 0.83789,2.20606 -0.0665,1.07817 0.0282,2.11247 0.21094,2.29834 0.20527,0.20884 0.14038,0.61982 -0.16993,1.07666 -0.49621,0.73068 -0.40097,1.05012 0.5669,1.88672 0.59122,0.51099 0.49907,1.50946 -0.20215,2.19873 -0.50287,0.49428 -0.47866,0.58255 0.35302,1.29199 1.13127,0.96489 1.27944,0.99517 1.89845,0.38672 0.6939,-0.68207 0.97735,-0.28483 0.66796,0.93896 -0.14139,0.5592 -0.10968,1.48203 0.0703,2.05079 0.39693,1.25395 0.14095,1.86184 -0.59766,1.4209 -0.54396,-0.32477 -1.15392,-0.0337 -1.03418,0.49365 0.0347,0.15267 0.6837,0.3421 1.44287,0.42187 0.92477,0.0971 1.46808,0.31778 1.64649,0.66944 0.67308,1.32681 1.74822,-0.30879 1.16308,-1.76954 -0.40238,-1.0045 -0.40088,-1.01014 0.46875,-1.13965 0.58949,-0.0878 1.07836,0.0749 1.5044,0.49952 0.34751,0.34549 0.83688,0.63062 1.08837,0.63281 0.33425,0.003 0.40499,0.24314 0.26367,0.89355 -0.11983,0.5513 -0.006,1.08052 0.3003,1.3916 0.33792,0.3438 0.39039,0.72527 0.16699,1.21143 -0.39716,0.86446 -0.14034,1.18698 0.73975,0.92871 0.45808,-0.13446 0.71723,-0.0404 0.84814,0.30615 0.1038,0.27495 0.5957,1.02338 1.09131,1.6626 l 0.90088,1.16163 -0.94043,0.81444 c -0.52939,0.45843 -0.84981,0.90744 -0.73242,1.02686 0.2091,0.21274 0.864,-0.29056 2.01123,-1.54541 0.69263,-0.75754 1.32661,-0.63154 1.92187,0.38232 0.51348,0.87458 0.79749,0.45789 0.40284,-0.59033 -0.27781,-0.73791 -0.49002,-0.92355 -1.4502,-1.27294 l -1.12353,-0.41016 0.13329,-1.3125 c 0.15939,-1.56027 0.41397,-1.88904 1.26123,-1.62451 0.83012,0.25912 1.46005,-0.39122 1.30079,-1.34327 -0.1083,-0.64758 -0.0377,-0.7665 0.479,-0.81006 0.33329,-0.0281 1.06371,0.14116 1.62305,0.37647 0.91412,0.38456 1.02044,0.50183 1.04736,1.1543 0.0281,0.68137 0.054,0.70183 0.4292,0.33838 0.22025,-0.21255 0.66598,-0.53786 0.9917,-0.72217 0.47959,-0.27139 0.50853,-0.41984 0.15234,-0.78223 -0.51202,-0.52092 -0.24463,-1.3418 0.43506,-1.33594 0.25736,0.003 0.77768,-0.30073 1.15577,-0.67236 0.62655,-0.61586 0.74243,-0.61936 1.3081,-0.044 0.36287,0.36915 0.54006,0.80946 0.42627,1.05909 -0.21167,0.4645 0.008,0.77004 0.53321,0.84814 v 93.31787 c 0,6.28161 -5.0564,11.33791 -11.3379,11.33791 H -53.92464 c -6.28149,0 -11.33788,-5.0563 -11.33788,-11.33791 V 537.16869 c 0,-6.28161 5.05639,-11.3379 11.33788,-11.3379 z m 199.18214,0 h 33.25927 c 6.28161,0 11.33799,5.05629 11.3379,11.3379 v 27.60644 c -0.31926,0.23929 -0.66022,0.51271 -1.04883,0.86133 -0.97617,0.8757 -1.86024,1.59174 -1.96583,1.59082 -0.10563,-9.1e-4 -0.2071,-0.36746 -0.22558,-0.81446 -0.0194,-0.47142 -0.3009,-1.04626 -0.66943,-1.36816 -0.58564,-0.51151 -0.57828,-0.6207 0.085,-1.39014 0.65053,-0.75461 0.66457,-0.90405 0.14502,-1.54687 -0.44735,-0.55362 -0.82169,-0.69083 -1.68458,-0.62402 -0.64485,0.0499 -1.4131,-0.14628 -1.83691,-0.46729 -0.66243,-0.50178 -0.67878,-0.6161 -0.18457,-1.26856 0.29904,-0.39471 0.80224,-0.77601 1.11767,-0.84667 0.77339,-0.17181 0.85928,-1.54494 0.14356,-2.29102 -0.78769,-0.82145 -0.85837,-1.95071 -0.13183,-2.11084 0.31905,-0.0703 0.8027,0.0392 1.07519,0.24463 0.51612,0.38903 1.48787,0.0906 1.6333,-0.50244 0.0523,-0.21381 -0.29251,-0.40949 -0.91699,-0.52002 -1.11092,-0.19667 -1.57286,-0.54552 -1.56738,-1.18213 0.003,-0.28967 -0.3334,-0.44069 -1.06055,-0.47461 -1.07458,-0.0502 -1.95623,0.48405 -1.81641,1.1001 0.13671,0.60215 -0.44127,0.86508 -1.23339,0.56103 -0.7308,-0.28046 -0.82995,-0.22973 -1.67432,0.86426 -0.81649,1.05787 -0.93347,1.1252 -1.30372,0.74854 -0.22374,-0.22764 -0.31944,-0.60594 -0.2124,-0.84083 0.31487,-0.69096 -0.72645,-1.49266 -1.68896,-1.30078 -1.14057,0.22734 -1.30742,-0.019 -0.70166,-1.02831 0.39175,-0.65273 0.39589,-1.00272 0.019,-1.56593 -0.31831,-0.47574 -0.35491,-0.79811 -0.104,-0.9375 0.21045,-0.11688 0.7089,-0.44444 1.10742,-0.72655 0.70479,-0.49892 0.70333,-0.513 -0.0425,-0.5625 -0.42179,-0.028 -0.95213,-0.24068 -1.1792,-0.47169 -0.60059,-0.61101 -1.88722,-0.47982 -2.31445,0.23584 -0.59353,0.9942 -2.1155,1.92396 -2.50342,1.5293 -0.18833,-0.1916 -0.5445,-0.34941 -0.79102,-0.35157 -0.6647,-0.006 -1.16517,-1.85106 -0.6416,-2.36571 0.49454,-0.48611 0.44615,-0.54868 -0.73535,-0.93604 -0.98888,-0.32415 -1.11743,-0.27078 -2.1914,0.91552 -0.87376,0.96516 -1.74759,0.96621 -2.03028,0.003 -0.10591,-0.36089 -0.10146,-0.74537 0.009,-0.854 0.32426,-0.31873 -0.30955,-0.77498 -0.9917,-0.71485 -0.34555,0.0305 -0.9635,0.38457 -1.37402,0.78809 -0.56103,0.55145 -0.80338,0.63666 -0.97266,0.34131 -0.63085,-1.10051 -1.0107,-1.26418 -1.87207,-0.8042 -0.57202,0.30545 -1.00176,0.33549 -1.24658,0.0864 -0.20549,-0.20906 -0.59697,-0.2799 -0.87012,-0.15673 -0.27316,0.12321 -1.17587,0.28918 -2.00537,0.36913 -0.82952,0.0799 -2.7105,0.55794 -4.18066,1.06056 -1.47014,0.50259 -2.74261,0.84186 -2.82715,0.75585 -0.0845,-0.0859 0.27785,-1.35123 0.80567,-2.8125 0.52782,-1.4613 1.03665,-3.3336 1.13085,-4.16162 0.0942,-0.82801 0.27643,-1.72852 0.4043,-1.99951 0.12785,-0.271 0.0648,-0.66253 -0.14063,-0.87158 -0.24482,-0.24906 -0.20839,-0.67845 0.10694,-1.24512 0.47473,-0.85334 0.31753,-1.23703 -0.77198,-1.88671 -0.29242,-0.17432 -0.20359,-0.41388 0.35742,-0.96534 0.41052,-0.40352 0.77657,-1.01586 0.813,-1.36084 0.0719,-0.68102 -0.37449,-1.32214 -0.69873,-1.00342 -0.11057,0.10859 -0.49503,0.10531 -0.85401,-0.007 -0.95848,-0.29923 -0.94194,-1.17324 0.0381,-2.03028 1.20457,-1.05346 1.26069,-1.17952 0.95361,-2.17382 -0.36689,-1.18793 -0.42832,-1.23758 -0.92285,-0.75147 -0.52358,0.51465 -2.35974,-0.0179 -2.35401,-0.68261 3e-5,-0.007 -0.003,-0.0162 -0.003,-0.0234 z m 41.01709,109.17188 c 0.50763,-0.0393 1.32349,0.20007 1.90722,0.60645 0.38046,0.26479 1.09235,0.49521 1.67286,0.56103 v 10.0459 c -0.58853,-0.48806 -1.65466,-0.60241 -2.25294,-0.21094 -0.57569,0.37675 -0.83541,0.34886 -1.43701,-0.15527 -0.45355,-0.37996 -0.97727,-0.54454 -1.36963,-0.4292 -0.96067,0.28244 -5.25441,0.28012 -5.53271,-0.003 -0.13418,-0.13644 -0.0441,-0.46713 0.20068,-0.73389 2.05248,-2.23701 2.71367,-2.85073 3.18457,-2.95605 0.57623,-0.12897 0.77724,-0.48145 0.98291,-1.72705 0.12097,-0.73221 0.17199,-0.75635 0.98438,-0.46142 0.47113,0.17106 1.08535,0.14307 1.36523,-0.063 0.70492,-0.51894 0.85658,-3.02011 0.22265,-3.66504 -0.26988,-0.27459 -0.4103,-0.57717 -0.31347,-0.67236 0.0805,-0.0791 0.21604,-0.12314 0.38526,-0.13623 z m 3.58008,12.17432 v 1.05762 l -0.48194,0.0967 0.39257,-0.91406 c 0.0351,-0.0815 0.0612,-0.16054 0.0894,-0.24023 z"
     id="path4726"
     inkscape:connector-curvature="0"
     sodipodi:nodetypes="sssssssssscccccccccccccccccccccccccccccccccccccccccccccccccccccccccccccccccccccccccccccccccccccccccccccccccccccccccccccccccccccccccccccccccccccccccccccccccccccccccccccccccccccccccccccccccccccccccccccsccccccccccccccccccccccccccccccccccccccccccccccccccccccccccccccccscccccccccsccccccccccccccccccccccccccccccccccccccccccccccccccccccccccccccccccccccccccccccccccccccccccccscccccccccccccccccccccccccccccccccccccccccccccccccccccccccccccccccccsccccccccccccccccccccccccccccscccccccccccccccccccccccccccccccccccccccccccccccccccccccccccccccccccccccccccccccccccccccccccccccccccccccccccccccccccccccccccsccccccccccccccccccccccccccccccccccccccccccccccccccccccccccccccccccsssssscscccccccccccccccccccccccsccccccccccccccccccccccccccccccccccccccccccccccccccccccccccccccc" />
  <path
     style="fill:#cccccc;fill-opacity:1;stroke:none;stroke-width:0.5669291;stroke-linecap:butt;stroke-linejoin:round;stroke-miterlimit:4;stroke-dasharray:none;stroke-opacity:1"
     d="m -71.424453,188.1581 c -9.42237,0 -17.00829,7.58593 -17.00829,17.00831 v 249.44823 c 0,9.42237 7.58592,17.00831 17.00829,17.00831 H 178.0238 c 9.42235,0 17.0083,-7.58594 17.0083,-17.00831 V 205.16641 c 0,-9.42237 -7.58595,-17.00831 -17.0083,-17.00831 z m 8.50342,14.17383 h 93.21094 c 0.150817,0.35587 0.275599,0.7346 0.33252,1.15869 0.29842,2.2234 -0.770896,3.4772 -1.356446,4.11768 -1.209459,1.32293 -1.896228,2.30323 -2.972168,3.03516 -0.17502,0.45044 -0.479347,0.99447 -1.335937,1.79443 -0.29564,0.27609 -0.692877,0.43223 -1.066407,0.61963 -0.0181,0.38002 -0.0225,0.86097 -0.363281,1.70508 -0.33775,0.83661 -1.380243,2.06379 -2.644042,2.61035 0.132679,1.29586 -0.06219,2.45829 -0.537598,3.39258 -0.42624,0.83763 0.115323,1.36991 -2.279297,3.06152 -0.67512,0.47693 -1.707712,0.66111 -2.701172,0.70459 0.11707,0.10581 0.04519,-0.0134 0.209473,0.15381 v 0.003 c 1.23903,1.26064 1.319126,2.4628 1.347656,3.12891 0.0285,0.66611 -0.05489,1.05112 -0.127441,1.37695 -0.14505,0.65167 -0.315491,1.04558 -0.514161,1.45898 -0.19868,0.41341 -0.397801,0.79236 -0.829101,1.32422 -0.17995,0.22191 -0.476502,0.5104 -0.877442,0.82617 0.29819,1.25488 0.05161,2.33425 -0.379394,3.26368 0.0357,0.35992 0.07357,0.71345 0.07617,1.08105 0.002,0.25246 0.003,0.50081 -0.04394,0.89648 -0.0236,0.19784 -0.0523,0.42826 -0.164063,0.81885 -0.11157,0.38993 -0.130975,0.99344 -1.217285,2.06104 h -0.0015 c -1.72096,1.69055 -3.2565297,1.39334 -3.9433597,1.30664 -0.68706,-0.0867 -1.035081,-0.22799 -1.35205,-0.3501 -0.633922,-0.24422 -1.058017,-0.48623 -1.501462,-0.75732 -0.443452,-0.2711 -0.86514,-0.56128 -1.30518,-0.92432 -0.0252,-0.0208 -0.06406,-0.0808 -0.08936,-0.10107 -0.360817,0.053 -0.6303,0.18394 -1.019527,0.16552 -0.0708,0.11316 -0.149153,0.32353 -0.209475,0.40283 -0.42699,0.56134 -0.647085,0.73077 -0.830565,0.91114 h -0.0015 c -0.481478,0.47326 -0.96144,0.8942 -1.82079803,1.30371 -0.0844,0.0402 -0.274927,0.0586 -0.369142,0.0996 0.188212,0.18119 0.524445,0.40092 0.64893003,0.55078 0.546135,0.65752 0.774645,1.12578 1.006342,1.6377 0.19062,0.42116 0.33144,0.89442 0.45996,1.4414 0.387105,0.11475 0.68517,0.28372 1.00635,0.46875 0.314753,-0.146 0.756608,-0.20064 1.27002,-0.24023 0.577088,-0.31234 1.566938,-0.93798 3.776368,-0.10547 1.23936,0.46698 2.1340817,1.49749 2.5078117,2.14453 0.373731,0.64703 0.466542,1.02981 0.550782,1.31689 v 0.001 c 0.461979,1.5751 0.01667,3.01935 -0.66504,4.25684 0.0255,0.13459 0.05562,0.21192 0.09082,0.375 0.11296,0.52281 0.333802,1.4866 -0.213867,2.87842 -0.12582,0.31974 -0.404295,0.54372 -0.609375,0.82471 0.99664,1.35342 0.947038,2.42712 0.946288,2.93847 -6.39e-4,0.43582 -0.03259,0.62481 -0.05859,0.82324 0.0633,0.19017 0.133148,0.34786 0.205078,0.86133 0.0943,0.67307 0.08157,2.22941 -0.84082,3.52295 -0.9224197,1.29355 -2.0037107,1.65294 -2.5224607,1.82373 -3.9057314,1.04049 -1.7614121,0.51561 0.761721,1.07082 0.94676,0.21573 2.6576027,0.86089 3.5302727,2.8667 0.73092,1.68045 0.422621,2.82785 0.130371,3.70166 -7.7e-4,0.002 -0.0034,0.004 -0.0044,0.006 0.24282,0.33585 0.495777,0.6891 0.725097,1.4458 0.28731,0.94801 0.208366,2.40444 -0.246093,3.36914 -0.36462,0.77398 -0.758558,1.08259 -1.100098,1.37988 1.738376,0.39266 3.090722,1.75873 3.46582,3.50098 l 0.234375,1.08691 c 0.21119,0.98028 0.260907,2.08385 -0.06152,3.21387 0.27651,0.12974 0.548723,0.21284 0.826173,0.41162 1.011129,0.72439 1.785822,1.98199 2.033202,3.07178 v 0.003 c 0.211901,0.93436 0.08308,1.74817 -0.155273,2.46973 0.808359,0.69595 1.34824,1.6524 1.526367,2.7041 l 0.184571,1.09277 v 0.003 c 0.003,0.0184 0.0029,0.0344 0.0059,0.0527 0.36522,0.26013 0.777405,0.37717 1.032715,0.69141 0.85705,1.0549 1.022151,1.6531 1.113281,2.15625 0.780123,0.68062 1.415745,1.44049 1.760742,2.11963 -0.197771,-0.39487 0.761988,1.18404 1.407715,2.04199 0.45452,0.60395 0.873449,1.20681 1.233398,1.77099 0.359951,0.56419 0.569577,0.45427 1.066407,2.14747 0.24944,0.85023 0.453712,2.01626 -0.02051,3.43066 -0.4742,1.4144 -1.831685,2.69941 -2.998535,3.17432 -2.3337,0.9498 -3.644734,0.38599 -4.976074,-0.0249 -0.75229,-0.23222 -2.068502,-0.5837 -2.419922,-0.66065 -0.54913,-0.12026 -1.040161,-0.26578 -1.54541,-0.45556 -0.286631,-0.10767 -0.550796,-0.14106 -0.936035,-0.34278 -0.70662,-0.0256 -1.419352,-0.15267 -1.999512,-0.39697 -1.12377,0.15502 -1.989915,-0.17666 -2.7656247,-0.41748 -0.21849,-0.0678 -0.451764,-0.24159 -0.669434,-0.33106 -0.21136,0.0607 -0.412594,0.24398 -0.618164,0.26221 -0.61237,0.0543 -0.985949,-0.005 -1.372559,-0.0601 -0.839558,0.76601 -1.83993,1.39141 -2.670413,1.47802 -1.21746,0.12697 -1.93215,-0.01 -2.416987,-0.22411 -1.18562303,1.2831 -2.77373303,1.89912 -4.6875,1.94238 -0.629235,0.0142 -1.554338,-0.2609 -2.399415,-0.54639 -0.242138,1.33534 -1.249013,2.77501 -2.132813,3.35303 -0.904747,0.59172 -1.52694,0.81197 -2.041995,0.90674 -1.0755903,0.9918 -2.7703573,1.82182 -3.9726523,1.68897 -0.745313,-0.0824 -0.962963,-0.29157 -1.410645,-0.44679 0.0444,0.13311 0.17094,0.36295 0.200685,0.46436 0.560955,1.91526 -0.26853,4.45747 -1.461915,5.67187 -0.601395,0.612 -1.21236,1.03566 -1.8252,1.35352 -0.011,0.27703 0.106395,0.41291 0.04687,0.73242 -0.25713,1.37988 -0.752498,2.0883 -1.239255,2.57227 -0.109283,0.69772 -0.364395,1.53046 -1.256835,2.43457 -1.39707,1.41534 -2.954123,1.42278 -3.530273,1.41357 -0.57615,-0.009 -0.765172,-0.0584 -0.949222,-0.0835 l -0.0029,-0.003 c -1.05222,-0.1439 -1.72689,-0.37598 -2.397953,-0.78076 -0.434647,0.41957 -0.889552,0.66523 -1.32861,0.87451 0.262305,0.59525 0.414053,1.17573 0.454103,1.70947 0.216097,0.12461 0.44928,0.22769 0.640132,0.37354 0.732683,-0.008 1.435035,0.059 1.984868,0.31054 1.245367,0.56985 2.355975,1.78711 2.830072,2.98389 0.474105,1.19678 0.467408,2.27256 0.336915,3.16553 -0.125017,0.85556 -0.374505,1.59058 -0.694335,2.2705 0.246068,0.56673 0.501915,1.11729 0.512693,2.07129 0.009,0.81756 -0.354293,2.1132 -1.160153,3.1875 0.17418,0.10379 0.367335,0.13129 0.531735,0.26075 1.153463,0.90829 1.767428,2.29801 1.896975,3.41894 0.0964,0.83427 -0.0997,1.46479 -0.28125,2.10352 0.862838,0.8227 1.49448,1.91627 1.719728,2.63086 0.0533,0.0456 0.0727,0.0405 0.128902,0.0908 0.512385,0.45739 1.108635,1.37781 1.400393,2.44042 0.71703,0.92036 1.387657,2.11171 1.042972,4.08692 -0.235305,1.34833 -1.093432,2.53245 -1.88379,3.17139 -0.790365,0.63891 -1.501672,0.91295 -2.13135,1.10742 -0.385342,0.11901 -0.737925,0.1462 -1.095705,0.20068 -0.0425,0.0312 -0.04269,0.0591 -0.08788,0.0908 -0.386025,0.27075 -0.864907,0.60713 -1.870605,0.81152 -0.0393,0.008 -0.118815,-0.0137 -0.161137,-0.007 -0.332438,0.29523 -0.593205,0.32811 -0.927248,0.51416 -0.151507,0.73833 -0.395752,1.42682 -0.73974,1.93506 -0.3555,0.52524 -0.730875,0.75265 -1.101562,1.07227 0.259215,0.49359 0.557602,0.86162 0.673822,1.70654 0.0426,0.30999 -0.05191,0.6316 -0.07471,0.95508 0.302212,0.54982 0.596835,1.17283 0.672367,2.00683 0.105668,1.16671 -0.0901,1.89259 -0.328125,2.46827 0.57834,-0.22809 1.30725,-0.41295 2.474123,-0.28712 0.833827,0.0899 1.449517,0.39593 1.99365,0.70752 0.327277,-0.0174 0.65514,-0.10623 0.966795,-0.0571 0.690345,0.10866 0.946275,0.36666 1.385745,0.57861 0.41502,-0.50338 0.97068,-1.00914 1.964355,-1.47656 0.430537,-0.20253 0.93456,-0.21616 1.42236,-0.27392 0.181552,-0.30062 0.209092,-0.53495 0.480472,-0.83057 0.007,-0.0412 -0.01416,-0.11699 -0.0059,-0.15527 0.219765,-1.00263 0.56622,-1.47924 0.84375,-1.86181 0.0332,-0.0457 0.06124,-0.045 0.09375,-0.0879 0.0606,-0.3576 0.09383,-0.71159 0.21972,-1.09571 h 0.0029 c 0.41172,-1.256 1.36602,-3.11877 3.735353,-3.81006 1.7823673,-0.52002 3.2522103,0.11617 4.3754853,0.86133 -0.0453,-0.007 -0.02795,0.003 -0.08935,-0.0117 0.04901,0.0118 0.145072,0.0661 0.200685,0.082 0.322237,0.2236 0.76944,0.40676 0.98877,0.62988 -0.286568,-0.29154 -0.319808,-0.30615 -0.420413,-0.39843 0.630915,0.25299 1.30035,0.66612 1.92774,1.29932 0.671378,0.18427 1.931258,0.91452 2.80077797,1.85888 0.64386,-0.17095 1.279852,-0.35611 2.11523203,-0.24316 1.120733,0.15153 2.50164,0.79569 3.38526,1.96435 0.123368,0.16319 0.144533,0.35097 0.243158,0.52295 1.168552,-0.83562 2.567754,-1.11331 3.363284,-1.06054 0.85508,0.0567 1.32101,0.3003 1.8266597,0.52734 0.70508,-0.32541 1.474133,-0.56253 2.362793,-0.67676 0.89536,-0.11509 1.972733,-0.10271 3.161133,0.39258 1.1884,0.49529 2.383492,1.6265 2.931153,2.87988 0.242179,0.5543 0.297935,1.25837 0.276855,1.99219 0.14424,0.19567 0.245636,0.43357 0.367676,0.65479 0.542719,0.0542 1.106585,0.21643 1.686035,0.48632 0.21691,-0.43909 0.474653,-0.8928 0.905273,-1.32422 -0.390189,-0.67134 -0.612966,-1.3482 -0.739746,-2.40966 h 0.0015 c -0.022,-0.1841 -0.07021,-0.37461 -0.07031,-0.94923 -1.11e-4,-0.57462 0.02809,-2.12622 1.464843,-3.5039 0.91962,-0.88184 1.761327,-1.1235 2.463867,-1.22168 0.49249,-0.48054 1.207123,-0.96784 2.598633,-1.20117 0.320331,-0.0537 0.454027,0.0676 0.730957,0.0615 0.32807,-0.60643 0.761003,-1.20858 1.382813,-1.79883 1.23588,-1.17316 3.792802,-1.95915 5.695312,-1.36523 0.0563,0.0176 0.191953,0.096 0.257813,0.11719 -0.10466,-0.42094 -0.20421,-0.851 -0.241699,-1.46485 -0.0772,-1.26389 0.805599,-2.81395 1.787109,-3.81445 0.10435,-0.51153 0.329686,-1.12578 0.933106,-2.01562 0.594489,-0.87669 2.059071,-1.8682 3.402831,-2.08302 -0.17592,-0.47427 -0.410398,-0.90501 -0.483398,-1.45312 -0.25372,-1.90501 0.552217,-4.15533 1.904297,-5.48438 0.0269,-0.0265 0.0834,-0.0438 0.111328,-0.0703 -0.2204,-0.48921 -0.361488,-1.20552 -0.208008,-2.46679 0.10095,-0.82961 0.743273,-1.82179 1.524903,-2.64844 -0.0474,-0.38521 -0.103061,-0.75463 -0.03955,-1.36231 0.0216,-0.20674 0.21044,-0.40614 0.27539,-0.61815 -0.0863,-0.22047 -0.254956,-0.45882 -0.319336,-0.67969 -0.22738,-0.78009 -0.54418,-1.65101 -0.36914,-2.77295 -0.23402,-0.58431 -0.347817,-1.29813 -0.361817,-2.00391 -0.19521,-0.38835 -0.226749,-0.65343 -0.329589,-0.94189 -0.18129,-0.50852 -0.316855,-1.00114 -0.427735,-1.55274 -0.072,-0.35775 -0.399864,-1.68008 -0.618164,-2.43311 -0.38798,-1.33825 -0.930266,-2.65797 0.06152,-4.97607 0.495909,-1.15905 1.803855,-2.49294 3.225585,-2.94141 1.42173,-0.44847 2.582655,-0.22722 3.427734,0.0366 1.683231,0.52539 1.572393,0.73654 2.129883,1.10596 0.557481,0.36943 1.151929,0.79668 1.747559,1.26123 0.85322,0.6654 2.4391,1.66757 2.01416,1.44287 0.67194,0.35519 1.422627,1.00433 2.091797,1.79736 0.50702,0.10104 1.107386,0.27573 2.151855,1.16163 0.317531,0.26931 0.430722,0.69149 0.687012,1.07226 l 0.779297,0.085 c 1.192974,0.13003 2.287153,0.72341 3.046875,1.65234 0.71811,-0.21804 1.523965,-0.33343 2.441895,-0.10839 1.08535,0.26612 2.332691,1.06224 3.039551,2.08593 0.19433,0.28145 0.270458,0.55716 0.395508,0.83643 1.135479,-0.3033 2.237952,-0.2384 3.215331,-0.0102 l 1.08545,0.25342 c 1.733236,0.40776 3.072654,1.78375 3.433593,3.52734 0.29593,-0.32957 0.597156,-0.70354 1.353516,-1.05469 0.95201,-0.44196 2.402832,-0.52385 3.360352,-0.22998 0.82887,0.2544 1.243566,0.53947 1.583496,0.8086 0.4934,-0.14835 1.008837,-0.29045 1.810547,-0.25049 0.98757,0.0492 2.336614,0.52556 3.240234,1.42675 0.90362,0.9012 1.265676,1.96004 1.395996,2.72608 0.22174,1.30351 0.07598,2.06529 -0.120117,2.77295 0.068,0.065 0.133384,0.0692 0.200683,0.14063 0.0486,0.0516 0.04709,0.0979 0.09229,0.14941 0.139059,-0.078 0.208191,-0.18072 0.363281,-0.25049 0.0517,-0.0233 0.09081,-0.0138 0.14209,-0.0351 0.0467,-0.38758 -0.0075,-0.75266 0.0835,-1.17041 0.0505,-0.23248 0.08889,-0.48098 0.268066,-0.9961 0.179201,-0.51511 0.557911,-1.58871 1.869141,-2.49023 1.31122,-0.90151 2.868602,-0.88688 3.539063,-0.78076 0.51291,0.0812 0.671412,0.15181 0.859863,0.21826 0.19808,-0.0224 0.387462,-0.0506 0.820312,-0.0439 0.51155,0.008 1.583129,-0.0255 2.92383,0.99756 0.28594,-0.20132 0.51599,-0.47721 0.83936,-0.59766 1.40158,-0.52206 2.35805,-0.28399 2.87695,-0.1626 0.0856,0.02 0.12079,0.035 0.19776,0.0513 0.80989,-0.46563 1.66886,-0.79139 2.68359,-0.83936 0.79785,-0.0377 1.74042,0.0417 2.81982,0.61817 1.0794,0.57642 2.2239,1.90336 2.54737,3.32812 v 0.003 c 0.36539,1.61124 0.10992,2.5723 -0.44239,3.48633 -0.0336,0.35197 0.01,0.8152 -0.0937,1.10449 0.11494,0.22063 0.21578,0.43085 0.29883,0.68262 0.1898,0.0947 0.40657,0.19915 0.53321,0.25342 1.00916,0.44639 2.06514,1.02299 2.71142,1.604 0.11304,0.10293 0.25856,0.40775 0.38818,0.54492 0.0197,-0.0458 0.0199,-0.14437 0.0395,-0.1875 0.47123,-1.03756 0.95044,-1.50349 1.41797,-1.96288 0.18395,-0.18082 0.35751,-0.39974 0.92725,-0.81739 0.08,-0.0587 0.29053,-0.13223 0.4043,-0.20069 -0.0116,-0.38931 0.12536,-0.65549 0.18457,-1.01513 -0.0199,-0.0257 -0.0793,-0.0667 -0.0996,-0.0923 -0.35542,-0.44618 -0.6389,-0.87181 -0.90235,-1.31983 -0.26344,-0.44802 -0.49765,-0.87658 -0.73096,-1.51464 -0.11665,-0.31904 -0.25176,-0.66794 -0.32666,-1.35645 -0.0749,-0.6885 -0.34587,-2.23083 1.37549,-3.92285 1.08892,-1.06994 1.69202,-1.07895 2.08448,-1.18359 0.39265,-0.10468 0.62364,-0.12793 0.82177,-0.14795 0.39628,-0.04 0.6432,-0.0356 0.89502,-0.0293 0.36527,0.009 0.7158,0.0536 1.07227,0.0952 0.93677,-0.41615 2.0219,-0.6434 3.27539,-0.32227 0.31954,-0.39168 0.61004,-0.68287 0.83349,-0.8584 0.53816,-0.4227 0.92093,-0.61631 1.33741,-0.80859 0.41647,-0.19228 0.81468,-0.35578 1.46924,-0.49072 0.32727,-0.0675 0.71167,-0.14484 1.37841,-0.10547 0.66675,0.0394 1.87175,0.14072 3.11133,1.40186 0.16277,0.16566 0.0461,0.0914 0.14942,0.20947 0.0605,-0.98869 0.26383,-2.01321 0.75,-2.6792 1.72828,-2.36754 2.25605,-1.82278 3.10253,-2.23535 0.94055,-0.45842 2.1026,-0.632 3.39112,-0.48047 0.57464,-1.28684 1.86803,-2.2945 2.71435,-2.61035 0.82759,-0.30884 1.29184,-0.30302 1.667,-0.31348 0.17884,-0.34395 0.31054,-0.71132 0.57128,-0.9917 0.93198,-1.00218 1.57457,-1.35607 2.0625,-1.49414 0.0231,-0.0268 0.0474,-0.0547 0.0703,-0.0835 0.41293,-0.51755 0.85228,-0.97868 1.38282,-1.4414 0.59108,-0.51564 1.27678,-1.12111 1.43555,-1.2627 l 0.004,-0.001 c 0.66355,-0.59079 2.0062,-1.67771 4.27002,-1.27734 2.26382,0.40037 3.41392,2.26184 3.76758,3.19336 0.70732,1.86303 0.48999,2.72137 0.41162,3.99023 -0.0147,0.23884 -0.006,0.4302 0,0.59327 0.33573,0.94728 0.37829,1.90313 0.271,2.58252 -0.007,0.047 -0.0343,0.0584 -0.0425,0.104 0.2135,0.42473 0.37849,0.80117 0.48633,1.24512 0.7425,0.3837 1.42383,0.88439 1.81494,1.43408 0.48055,0.6754 0.65563,1.20512 0.77344,1.68897 0.89851,0.18735 1.64728,0.51661 2.38183,0.99316 0.027,0.006 0.0518,0.0135 0.0791,0.0205 -0.0103,-0.003 -0.0419,-0.003 -0.0527,-0.007 0.30173,0.19777 0.70204,0.31105 0.9375,0.54346 -0.14075,-0.13994 -0.18243,-0.16948 -0.34424,-0.26368 -0.0319,-0.0186 -0.10262,-0.0656 -0.13623,-0.0982 0.33486,0.11607 0.6675,0.21436 1.02539,0.44531 0.59306,0.38274 1.04651,0.93241 1.40918,1.50147 0.57744,-0.51786 1.18837,-0.93452 1.65528,-1.09863 0.74106,-0.26048 1.14932,-0.27273 1.4414,-0.29736 1.07894,-0.091 1.44646,0.0526 1.91602,0.16992 0.43053,-0.32739 0.90613,-0.58899 1.40625,-0.78663 0.16197,-0.15541 0.2799,-0.29019 0.60644,-0.52587 0.49372,-0.35634 1.46107,-0.941 2.82129,-0.98438 0.63865,-0.0204 1.2287,0.10144 1.73584,0.27539 v 99.94922 c 0,6.28158 -5.05631,11.33789 -11.33789,11.33789 H -62.921443 c -6.28157,0 -11.33789,-5.05631 -11.33789,-11.33789 V 213.66982 c 0,-6.28157 5.05632,-11.33789 11.33789,-11.33789 z M 160.67272,339.22012 c -0.0109,-0.0308 -0.0177,-0.0615 -0.0293,-0.0923 -0.001,0.0678 -0.009,0.12316 0.001,0.16553 0.0449,0.18754 0.0328,0.17735 0.0278,0.11865 -0.003,-0.0287 0.002,-0.13915 0,-0.19189 z m -0.0293,-0.0923 c 0.004,-0.23221 -0.0571,-0.66497 -1.06494,-1.69043 0.4999,0.50865 0.84189,1.09632 1.06494,1.69043 z m -28.95703,-136.7959 h 0.002 v 0.004 c -0.004,0.87754 -0.002,0.84612 -0.002,-0.004 z m 0.003,0 h 37.83106 c 6.28159,0 11.33792,5.05632 11.33789,11.33789 v 33.55078 c -0.0483,0.0357 -0.0887,0.0713 -0.14063,0.1084 -0.12211,0.0872 -0.24571,0.1755 -0.48632,0.31641 -0.12032,0.0705 -0.26256,0.15555 -0.54346,0.27685 -0.28091,0.1213 -0.57067,0.39376 -1.88233,0.38233 -2.66658,-0.0227 -3.59778,-1.67601 -3.96825,-2.29688 -0.37047,-0.62087 -0.45928,-0.97259 -0.54786,-1.29052 -0.0521,-0.1871 -0.0396,-0.3123 -0.0718,-0.47461 v -0.001 c -0.0713,-0.36116 -0.14381,-0.72032 -0.15967,-1.05762 0.0234,0.51539 0.0461,0.83348 0.15528,1.05322 -0.0966,-0.10991 -0.12609,-0.10141 -0.24316,-0.25634 -0.32736,-0.4332 -0.65142,-1.27172 -0.83643,-2.17969 -0.40752,-0.20599 -0.78086,-0.28597 -1.24073,-0.63428 -0.22491,-0.17037 -0.49446,-0.35313 -0.93163,-0.81299 -0.43718,-0.45987 -1.16509,-1.41131 -1.35938,-2.75976 -0.0597,-0.41435 0.0152,-0.75565 0.0527,-1.12061 -0.8307,0.097 -1.7019,0.0738 -2.3628,-0.18896 -1.23434,-0.49081 -1.59272,-1.00583 -1.81787,-1.23487 v -0.001 c -0.2903,-0.29537 -0.37718,-0.63599 -0.60937,-0.9375 -0.90396,-0.20824 -1.95546,-0.61983 -2.81836,-1.88965 -0.35691,-0.52521 -0.36019,-0.98265 -0.48633,-1.4707 -0.73789,0.0556 -1.53749,0.0389 -2.49023,-0.47607 0.26562,0.0754 0.53379,0.11706 1.21435,0.12304 -0.74095,-0.007 -1.21538,-0.29319 -1.75049,-0.51709 -0.2273,-0.16512 -0.45773,-0.27516 -0.67969,-0.50097 0.24339,0.24762 0.34042,0.30315 0.48487,0.44385 -0.84582,-0.39529 -1.48417,-0.8399 -1.875,-1.32422 -0.33506,0.058 -0.54254,0.23505 -0.93311,0.23584 -1.07182,0.002 -2.10494,-0.49494 -2.98828,-1.16162 -0.84098,0.15328 -1.8892,0.19257 -2.87695,-0.25196 -0.20747,-0.0934 -0.30787,-0.22674 -0.4834,-0.33545 -0.0387,0.003 -0.0482,0.0221 -0.0879,0.0249 -0.43211,0.0298 -0.98255,-0.098 -1.51758,-0.22265 -0.0336,0.005 -0.0953,0.0299 -0.13184,0.0366 -0.50888,0.0936 -1.04175,0.16887 -1.5996,0.22265 0.24689,-0.0238 -1.9612,0.43322 -3.14063,0.83643 -0.81897,0.27999 -1.57366,0.51388 -2.23242,0.68994 -0.32938,0.088 -0.61874,0.16195 -0.99902,0.22998 -0.19014,0.034 -0.38194,0.0715 -0.78663,0.0894 -0.20234,0.009 -0.45226,0.0267 -0.93017,-0.0439 -0.47772,-0.0706 -1.3475,-0.0357 -2.62061,-1.33008 -1.27588,-1.29702 -1.22523,-2.16914 -1.28759,-2.64844 -0.0624,-0.4793 -0.0418,-0.72656 -0.0293,-0.92871 0.025,-0.40431 0.0667,-0.59717 0.104,-0.78662 0.0746,-0.3789 0.15386,-0.66695 0.24756,-0.99463 0.1874,-0.65538 0.43264,-1.40404 0.72656,-2.21777 0.42267,-1.17018 0.91658,-3.36695 0.88916,-3.12598 0.0635,-0.55806 0.14642,-1.08919 0.24903,-1.59668 0.008,-0.0372 0.0352,-0.10055 0.041,-0.13476 -0.11472,-0.53554 -0.23198,-1.08712 -0.19483,-1.51758 0.003,-0.0391 0.0239,-0.0483 0.0278,-0.0864 -0.10498,-0.17606 -0.23728,-0.27756 -0.32666,-0.48487 -0.42993,-0.99709 -0.37203,-2.04849 -0.20361,-2.88867 -0.65171,-0.89469 -1.13419,-1.93491 -1.11328,-3.00732 0.008,-0.39113 0.1909,-0.59585 0.25488,-0.93018 -0.79791,-0.6675 -1.84326,-1.80324 -1.83106,-3.83789 z m 41.52832,41.91065 c 0.11846,0.23512 0.32782,0.4083 0.72071,0.75146 -0.15714,-0.13725 -0.43692,-0.42949 -0.72071,-0.75146 z M 20.434538,213.63466 c 0.10916,0.0194 0.270749,0.0511 0.495117,0.0762 -0.153844,-0.0231 -0.256794,-0.0337 -0.495117,-0.0762 z m 0.495117,0.0762 c 0.394223,0.0592 0.635573,0.0802 0.742676,0.0337 -0.330358,0.005 -0.555264,-0.0127 -0.742676,-0.0337 z m 115.475095,1.41064 c 0.21139,0.20584 0.30557,0.22201 0.17871,0.13916 -0.0496,-0.0297 -0.12426,-0.10416 -0.17871,-0.13916 z m -1.27441,0.375 c 0.0726,0.69587 0.42755,1.35992 1.17773,2.13281 -0.57796,-0.60282 -0.95269,-1.36402 -1.17773,-2.13281 z M 14.172291,236.10536 c -0.33038,0.69663 -0.723197,1.35809 -1.103027,1.73145 1.1437,-1.12417 1.151247,-1.50558 1.103027,-1.73145 z m -3.571389,18.95362 c -0.18783,0.26381 -0.292386,0.62103 -0.506836,0.83643 0.45187,-0.45981 0.443787,-0.56012 0.500977,-0.7793 0.002,-0.009 0.0029,-0.0473 0.0059,-0.0571 z m 1.119141,22.14698 c -0.23604,0.39271 -0.380566,0.82975 -0.742676,1.18652 1.31783,-1.29595 0.761066,-0.85267 0.742676,-1.18652 z m 165.941937,29.7041 c 1.36615,-0.004 2.2634,0.3437 3.19629,0.90088 v 21.57128 c -1.85483,0.19526 -3.64261,-0.75455 -4.51905,-2.40087 -0.39327,-0.13185 -0.82517,-0.22033 -1.10448,-0.38965 -0.10251,0.005 -0.25718,0.0484 -0.36915,0.0557 -0.67497,0.0438 -1.38684,0.0617 -2.08887,0.0615 -0.70203,-2.4e-4 -1.37493,-0.0159 -2.01855,-0.0659 -0.32181,-0.025 -0.62358,-0.0529 -1.03272,-0.12744 -0.20457,-0.0373 -0.43227,-0.0795 -0.7954,-0.19922 -0.36314,-0.11977 -0.87956,-0.12024 -1.92774,-1.18653 -1.72578,-1.75499 -1.46882,-3.72222 -1.19092,-4.7373 0.27791,-1.01509 0.71449,-1.67846 1.28467,-2.2998 1.05032,-1.14477 1.75483,-1.8987 2.44189,-2.53712 0.22476,-0.20884 0.51268,-0.43254 0.78516,-0.65332 0.0343,-0.12633 0.0122,-0.13234 0.0718,-0.30615 0.18763,-0.54718 0.86785,-1.59168 1.93799,-2.36572 -0.006,-0.0557 -0.0261,-0.0594 -0.0308,-0.11865 -0.0686,-0.85895 0.10549,-2.47689 1.38427,-3.73389 1.29302,-1.27052 2.46056,-1.37536 3.23877,-1.43555 0.26128,-0.0202 0.50526,-0.0316 0.73682,-0.0322 z m -165.139163,5.64697 c -0.19682,0.32249 -0.74075,0.80782 -1.3125,1.2583 0.5016,-0.26813 0.94815,-0.66159 1.3125,-1.2583 z m 0.744141,2.42725 c 0,6.4e-4 0.04458,0.0381 0.06738,0.0557 -0.0331,-0.0331 -0.03288,-0.0207 -0.06738,-0.0557 z m 1.319824,1.01956 c 0.23564,0.0835 0.33685,0.0475 0.417481,0.041 -0.16006,4.6e-4 -0.270681,-0.0365 -0.417481,-0.041 z m -19.8911107,1.72558 c -0.23466,0.37484 -0.411255,0.82913 -0.69141,1.1045 0.266003,-0.26147 0.4635,-0.50684 0.66504,-1.00489 0.009,-0.0226 0.01637,-0.0753 0.02637,-0.0996 z m -22.3154643,18.91406 c 0.0732,0.0467 0.237795,0.11454 0.325192,0.14209 -0.0505,-0.0352 -0.109567,-0.0886 -0.16113,-0.12744 -0.0501,-0.008 -0.11589,-0.006 -0.164062,-0.0147 z m 0.773437,0.0791 c -0.0211,0.0237 -0.0281,0.0513 -0.04981,0.0747 0.283582,0.0301 0.47871,0.0865 1.086915,0.0351 -0.4866,0.041 -0.666758,-0.0939 -1.037108,-0.10986 z m -2.100585,1.39746 c -0.0108,0.004 -0.0186,0.003 -0.02929,0.007 0.008,0.10253 0.05622,0.25363 0.06152,0.34717 -0.002,-0.027 -0.02013,-0.20935 -0.03223,-0.35449 z m 72.515625,6.95069 c 0.003,0.0829 -0.05254,0.19641 0.03516,0.45556 -0.002,-0.15942 -0.03906,-0.28062 -0.03516,-0.45556 z m 133.880896,1.9585 c -1.21189,-0.007 -1.48277,0.15865 -1.61719,0.29296 0.52532,-0.19035 1.07178,-0.2943 1.61719,-0.29296 z m -54.06153,0.25488 c -0.0316,-0.006 -0.0713,-0.005 -0.14062,0.0132 -0.28619,0.0731 -0.74725,0.33664 -1.50879,1.08398 0.37991,-0.37249 1.04072,-0.75321 1.74023,-1.0708 -0.0369,-0.008 -0.0593,-0.0206 -0.0908,-0.0264 z m -76.374022,0.36328 c -0.60387,0.35453 -1.002208,0.79422 -1.278808,1.29199 0.45971,-0.56362 0.953838,-1.10119 1.278808,-1.29199 z m -5.475586,17.73196 c -0.153474,0.0336 -0.3742,0.1696 -0.587402,0.31348 0.194333,-0.10331 0.400623,-0.20112 0.587402,-0.31348 z m -59.440431,0.30908 c 0.0166,0.25257 -0.01,0.46963 -0.0293,0.69727 0.004,-0.25639 0.0777,-0.50842 0.0293,-0.69727 z m 58.84424,0.009 c -0.196849,0.105 -0.381225,0.21663 -0.521484,0.3545 -0.198505,0.189 0.141657,-0.0973 0.521484,-0.3545 z m -18.859863,19.86042 c -0.0616,0.60566 -0.01045,0.80238 0.01465,1.08545 0.0247,-0.0221 0.05274,-0.0269 0.07764,-0.0483 -0.01,-0.37035 -0.141555,-0.55203 -0.09228,-1.0371 z m 0.01758,1.48243 c 0.0261,0.0876 0.09769,0.25068 0.143556,0.3252 -0.008,-0.0461 -0.0079,-0.10747 -0.01465,-0.15528 -0.0394,-0.054 -0.09341,-0.11703 -0.128907,-0.16992 z m -1.694823,1.59375 c 0.0884,0.007 0.231645,0.0554 0.328125,0.0644 0.002,-0.006 0.0039,-0.0105 0.0059,-0.0161 -0.11875,-0.0132 -0.299274,-0.0458 -0.333984,-0.0483 z"
     id="rect871-9"
     inkscape:connector-curvature="0"
     sodipodi:nodetypes="ssssssssscccccccccccccccccccccccccccccccccccccccccccccccccscccccccccccccccccccccccccccccccccccccccccccsccccccccscccccccccccccccccccccccccccccccccccccccccccccccccccccccccccscccccccccccccccccccscccccccccccccsccccccccccccccccccccccccccccccccccccccccccccccccccccccccccccccccccccscccscccccscccccccccccccccccccccccsssssscccccccccccccccsccccccsccccccccsccccccccccccccccccccccccccccccscsccccccccccccccccccccccccccccccccccccccccccccscccccccscccccccccccccccccccccccccccccccccccccccccccccccccccccccccccccccccccccccccc" />
  <path
     style="fill:#cccccc;fill-opacity:1;stroke:none;stroke-width:0.5669291;stroke-linecap:butt;stroke-linejoin:round;stroke-miterlimit:4;stroke-dasharray:none;stroke-opacity:1"
     d="m 248.46509,194.95389 c -9.42236,0 -17.00831,7.58594 -17.00831,17.0083 v 249.44824 c 0,9.42237 7.58595,17.0083 17.00831,17.0083 h 249.44824 c 9.42236,0 17.0083,-7.58593 17.0083,-17.0083 V 211.96219 c 0,-9.42236 -7.58594,-17.0083 -17.0083,-17.0083 z m 8.50342,14.17383 h 12.70312 a 4.1953386,4.1953386 0 0 1 -0.0732,0.80273 c -0.1567,0.80401 -0.2728,1.49647 -0.63428,2.4668 -0.0887,0.23795 -0.43002,1.33302 -0.56836,1.8794 -0.25094,0.99114 -0.7415,2.61557 -1.1997,4.04442 -0.37932,1.18278 -0.92379,3.22524 -1.08106,3.98292 -0.31011,1.49388 -0.9287,3.59146 -1.53515,5.38037 -0.25206,0.74353 -0.49329,1.51563 -0.66212,2.10791 -0.16882,0.59228 -0.259,1.50433 -0.1875,0.58594 -0.0777,0.99657 -0.21646,1.63442 -0.5039,2.53857 -0.15447,0.48592 -0.64232,1.99629 -1.1001,3.41602 -0.39971,1.23971 -1.03822,3.55134 -1.30517,4.71533 -0.35667,1.55518 -0.99255,3.9014 -1.50879,5.57812 -0.95968,3.11695 -0.99856,3.24111 -1.27149,4.75488 -0.26748,1.48359 -0.71699,2.66895 -1.25391,4.07081 -0.18048,0.47124 -0.35153,0.99571 -0.4497,1.35498 -0.0982,0.35926 0.0658,1.21663 -0.0718,-0.3545 0.13472,1.53757 -0.0821,1.44471 -0.17285,1.84863 -0.0907,0.40394 -0.20099,0.81885 -0.33398,1.28321 -0.26601,0.92871 -0.61923,2.03399 -1.01954,3.17578 -0.35939,1.02506 -0.70516,2.06872 -0.96094,2.88574 -0.25576,0.81704 -0.46014,1.83981 -0.35888,1.18067 -0.1311,0.85362 -0.3403,1.76343 -0.57568,2.63085 -0.46312,1.7067 -1.78556,5.68756 -3.23731,10.01954 a 4.1953386,4.1953386 0 0 1 -3.97559,2.85352 v -61.86475 c 0,-6.28157 5.05632,-11.33789 11.3379,-11.33789 z m 243.60351,202.14843 a 4.1953386,4.1953386 0 0 1 0.17578,0.001 v 41.62939 c 0,6.28158 -5.05631,11.33789 -11.33789,11.33789 H 275.30688 a 4.1953386,4.1953386 0 0 1 3.66358,-4.16162 c 2.01711,-0.25555 3.45266,-0.41644 6.92138,-0.77197 1.10385,-0.11311 3.82828,-0.43073 5.89893,-0.69287 6.62539,-0.8387 7.34905,-0.90787 8.90625,-0.94043 0.50613,-0.0106 2.02987,-0.13694 3.25342,-0.28271 0.5432,-0.0647 1.00591,-0.13045 1.36084,-0.18604 0.39746,-0.1705 0.63883,-0.15321 0.80273,-0.19043 0.28398,-0.0645 0.4389,-0.0827 0.58594,-0.0996 0.2941,-0.0339 0.52088,-0.0457 0.77197,-0.0557 0.50217,-0.02 1.06441,-0.0211 1.67432,-0.006 2.23939,0.0561 4.99924,-0.14883 6.38965,-0.41016 1.83294,-0.3446 3.59974,-0.43452 6.81738,-0.41016 0.47529,0.004 1.99922,-0.16155 2.25732,-0.21972 1.2393,-0.27919 1.90497,-0.54328 3.78956,-0.30176 -0.65639,-0.0842 -0.0642,-0.0156 0.38671,-0.0527 0.45089,-0.0371 1.03982,-0.10538 1.5586,-0.1875 0.71785,-0.11364 1.37936,-0.19859 1.96582,-0.24902 0.29323,-0.0252 0.55353,-0.045 0.89502,-0.0454 0.14705,-2e-4 0.33692,0.009 0.59326,0.0352 1.34573,-0.30986 2.50507,-0.40895 3.99024,-0.53467 2.53225,-0.21434 5.67725,-0.63039 9.23144,-1.23047 1.26084,-0.21285 2.28879,-0.39327 3.48047,-0.43945 -0.44676,0.0173 0.83813,-0.14627 1.33301,-0.28565 3.46764,-0.97668 5.49992,-1.48731 7.78125,-1.93945 a 4.1953386,4.1953386 0 0 1 0.003,0 c 0.50411,-0.0999 0.9464,-0.20077 1.29346,-0.28565 0.1576,-0.0817 0.2337,-0.0751 0.29882,-0.0732 0.0225,-0.006 0.0626,-0.0175 0.0835,-0.0234 0.006,-0.002 0.0376,-0.0266 0.0439,-0.0293 0.19345,-0.0836 0.32199,-0.13192 0.45409,-0.17871 0.26423,-0.0936 0.52241,-0.17378 0.82031,-0.26367 0.59582,-0.17977 1.32554,-0.38098 2.11231,-0.58301 3.87178,-0.99419 3.31558,-0.82916 8.21338,-2.43164 5.88817,-1.92653 6.91734,-2.33303 8.42578,-2.49317 -0.97169,0.1032 -0.34837,0.0607 -0.041,-0.0469 0.30735,-0.10762 0.73174,-0.27155 1.11181,-0.43506 1.21028,-0.52064 3.00668,-1.17611 4.47071,-1.64648 0.60522,-0.19446 1.17899,-0.39123 1.56738,-0.53321 0.0217,-0.008 0.0233,-0.009 0.0439,-0.0161 -0.13481,0.0847 -0.33492,0.23886 -0.71925,0.61523 0.31892,-0.31217 0.56149,-0.4957 0.77637,-0.6372 0.0891,-0.0334 0.16062,-0.061 0.20655,-0.0791 -0.0254,0.005 -0.0599,0.008 -0.11133,0.0205 0.38228,-0.23111 0.63672,-0.27392 0.84375,-0.34425 0.3345,-0.11361 0.57028,-0.16486 0.79687,-0.208 0.45185,-0.086 0.84834,-0.12393 1.29785,-0.13623 -0.92249,0.0259 -0.20807,0.0123 0.2505,-0.11865 0.45855,-0.13097 1.06794,-0.33176 1.61279,-0.53614 2.64921,-0.99376 8.12566,-2.75112 15.4834,-4.99951 4.87632,-1.49012 6.73026,-2.01273 8.61621,-2.18555 0.0146,-10e-4 0.0189,-0.004 0.0351,-0.006 0.0283,-0.009 0.12046,-0.0854 0.15088,-0.0996 0.299,-0.13974 0.56692,-0.24739 0.85693,-0.35889 0.58001,-0.223 1.2258,-0.44454 1.88526,-0.65478 0.65945,-0.21024 1.31987,-0.40536 1.92626,-0.56104 0.30321,-0.0778 0.58639,-0.14532 0.90528,-0.20508 0.053,-0.01 0.21511,-0.001 0.26221,-0.0146 0.52922,-0.27481 0.889,-0.31251 1.21875,-0.3955 0.52629,-0.13247 1.01915,-0.20917 1.57178,-0.25196 -0.56357,0.0437 1.20282,-0.28852 1.98925,-0.58008 1.32392,-0.49084 2.4938,-0.89938 3.92285,-1.13086 1.53829,-0.24909 1.64738,-0.28179 4.79151,-1.19091 1.68724,-0.48786 4.04688,-1.08416 5.60595,-1.41358 1.17269,-0.24779 3.48906,-0.84343 4.73584,-1.21875 3.6929,-1.11166 4.80311,-1.43588 6.09962,-1.51611 -1.15797,0.0717 -0.0998,-0.007 0.48193,-0.16553 0.58177,-0.15897 1.35104,-0.38749 2.10938,-0.62988 1.79731,-0.57446 3.9061,-1.15671 5.40673,-1.44141 0.74862,-0.14201 2.85353,-0.66704 4.11182,-1.04589 3.57891,-1.07754 4.67233,-1.39893 5.94873,-1.50587 -0.85373,0.0716 0.59138,-0.14357 1.63623,-0.43945 1.04485,-0.29588 2.2893,-0.68303 3.20508,-1.00488 1.16379,-0.40903 2.27709,-0.69132 3.52587,-0.84522 a 4.1953386,4.1953386 0 0 1 10e-4,0 c -0.0338,0.004 1.94562,-0.40387 3.18457,-0.76025 1.47612,-0.42459 2.6799,-0.77703 3.82325,-0.98731 1.62706,-0.29924 2.76962,-0.52716 3.43065,-0.67822 0.0973,-0.0222 0.12167,-0.0305 0.16554,-0.0425 0.37022,-0.22945 0.56015,-0.22293 0.75146,-0.2959 0.3045,-0.11613 0.54082,-0.18353 0.78516,-0.24902 0.48868,-0.13099 0.98557,-0.23326 1.52636,-0.31494 0.24597,-0.0372 2.18141,-0.46692 3.41748,-0.82178 0.91023,-0.26132 1.85394,-0.50839 2.70264,-0.71778 a 4.1953386,4.1953386 0 0 1 0.8291,-0.11865 z m -10.0122,2.51807 c -0.0864,0.0535 -0.17122,0.10724 -0.28272,0.19483 0.14525,-0.10781 0.2486,-0.16407 0.33984,-0.20948 -0.023,0.006 -0.042,0.0105 -0.0571,0.0147 z m -101.77881,27.65185 c 0.005,-9.3e-4 0.01,0.002 0.0146,0 0.0876,-0.0431 0.0903,-0.0397 0.0688,-0.0308 -0.009,0.004 -0.065,0.0235 -0.0835,0.0308 z m -27.56983,8.78175 c -0.035,0.0101 -0.0582,0.0169 -0.13037,0.0351 -0.0404,0.0102 -0.12321,0.027 -0.16845,0.0381 -0.10381,0.0538 -0.27005,0.18162 -0.48487,0.36768 0.27901,-0.21481 0.60137,-0.4287 0.83203,-0.44091 -0.0172,0.004 -0.0328,4.3e-4 -0.0483,0 z m -0.78369,0.44091 c -0.38421,0.29581 -0.67811,0.59638 -0.4541,0.41163 0.19413,-0.19072 0.32053,-0.29595 0.4541,-0.41163 z m -55.15136,6.5669 c -0.19349,0.0343 -0.49444,0.17485 -1.2378,0.90527 0.62909,-0.61789 0.94764,-0.77498 1.2378,-0.90527 z"
     id="rect871-9-8"
     inkscape:connector-curvature="0" />
  <path
     style="fill:#cccccc;stroke-width:0.29210448;stroke-linecap:butt;stroke-linejoin:round"
     d="m 562.63977,201.9988 c -9.42236,0 -17.0083,7.58594 -17.0083,17.0083 v 249.44824 c 0,9.42237 7.58594,17.0083 17.0083,17.0083 h 249.44824 c 9.4224,0 17.00827,-7.58593 17.00827,-17.0083 V 219.0071 c 0,-9.42236 -7.58587,-17.0083 -17.00827,-17.0083 z m 8.50342,14.17383 h 64.30078 c 0.0831,0.5059 0.15939,1.00269 0.20948,1.47949 0.36787,3.50195 0.0218,7.68187 -1.09718,10.94239 -1.13643,3.31134 -3.22381,7.04457 -5.458,9.82323 -2.54457,3.16473 -3.57492,4.68415 -6.7998,10.01368 -1.57284,2.59929 -2.49351,4.22056 -2.9751,5.25 -0.48159,1.02943 -0.55447,1.35239 -0.64893,2.10938 -0.14754,1.18239 -0.29114,0.43105 0.79395,2.68212 4.94992,10.26798 5.79915,13.4747 6.08788,22.5044 0.44075,13.78488 -0.526,20.26426 -4.32861,26.77881 -2.753,4.71637 -6.30844,8.46241 -11.9751,12.80859 -2.6373,2.02271 -3.59712,3.16038 -6.14355,7.37842 -4.45179,7.3741 -9.31349,11.50889 -16.74902,14.13574 -1.65912,0.58614 -3.58779,1.45486 -5.20313,2.32324 -1.33727,0.71889 -2.17442,1.3478 -2.65722,1.71973 0.18384,0.29512 0.21677,0.42687 1.13232,1.61133 1.05919,1.37025 2.45586,3.43867 3.41455,5.03466 0.75652,1.25949 2.30606,3.60513 3.23438,4.89258 5.55655,7.70649 6.67628,15.25566 3.83202,25.13526 -0.76266,2.64912 -0.81244,3.0623 -0.76025,6.08935 0.16684,9.67409 -0.19477,12.70179 -1.96435,17.36572 -1.10385,2.90929 -2.53251,5.42932 -4.92042,8.79638 -0.86463,1.21917 -2.3919,3.42999 -3.32812,4.82081 -2.72366,4.04617 -6.41108,7.73623 -10.2085,9.92138 -1.42303,0.81882 -2.12738,1.37613 -2.26611,1.52344 -0.0136,0.0144 -0.0137,0.006 -0.022,0.0117 0.003,0.0253 0.004,0.0554 -0.007,0.1333 -0.64795,4.54359 -2.23715,4.53823 -3.2124,6.49366 -0.40624,0.8145 -1.69218,3.19692 -2.32178,4.20702 -0.39008,0.62496 -0.83386,0.8709 -1.29638,0.8379 V 227.51052 c 0,-6.28157 5.0563,-11.33789 11.33788,-11.33789 z m -4.5,215.15185 c -0.009,-0.0871 -0.059,0.0387 0,0 z M 781.02308,216.17263 h 22.5615 c 6.28163,0 11.3379,5.05631 11.3379,11.33789 v 13.21875 c -0.65782,10e-4 -1.33365,-0.17231 -1.96432,-0.55664 -1.98863,-1.21231 -5.14395,-2.86483 -10.74758,-5.7334 -1.94572,-0.99603 -4.8555,-2.47085 -6.42187,-3.25195 -4.4367,-2.21242 -6.75083,-3.81626 -9.4512,-6.57422 -1.9053,-1.945 -3.43628,-4.02014 -4.85738,-6.64014 -0.318,-0.58604 -0.4578,-1.20071 -0.45705,-1.80029 z m 7.15433,159.2666 h 10e-4 c 2.55893,0.022 5.03063,0.3939 7.58348,1.10742 4.92652,1.37686 6.07972,1.53073 12.44242,1.66846 3.04148,0.0658 5.06753,0.13272 6.71775,0.25049 v 81.48632 c 0,6.28159 -5.05627,11.33789 -11.3379,11.33789 H 571.14319 c -6.28158,0 -11.33789,-5.0563 -11.33789,-11.33789 v -12.39697 c 2.00193,-0.95391 4.36333,-1.46605 5.99414,-2.2207 1.9733,-0.94211 5.59917,-3.8293 10.15283,-4.39893 0.077,-0.01 0.10644,-0.006 0.13183,-0.003 0.005,-0.009 -0.003,-0.0103 0.0146,-0.0264 0.15059,-0.13704 0.71693,-0.83106 1.56006,-2.23974 2.25958,-3.77515 6.01246,-7.38471 10.20117,-10.11915 1.48513,-0.96949 3.72474,-2.45445 4.89697,-3.25194 6.4215,-4.36872 12.40563,-6.4864 18.97998,-6.48487 1.85111,4.3e-4 5.00745,0.0597 7.17041,0.13183 3.01848,0.10065 3.48567,0.0516 6.11865,-0.65331 9.93896,-2.66098 17.44185,-1.40811 25.07814,4.28906 1.2615,0.94119 3.56355,2.52331 4.8135,3.30762 1.57358,0.98734 3.61568,2.42147 4.9599,3.49511 1.17278,0.93666 1.30808,0.97189 1.59968,1.16016 0.38017,-0.47639 1.0248,-1.30323 1.76655,-2.62793 0.8961,-1.60026 1.79947,-3.51332 2.41409,-5.16211 2.9016,-7.78434 7.47271,-12.72781 15.84667,-17.32471 2.37975,-1.30635 3.6117,-2.34123 5.80665,-4.96289 4.1229,-4.92461 5.988,-6.87098 8.5254,-8.81249 4.71578,-3.6084 9.41408,-5.7866 14.76263,-6.7544 2.78512,-0.50392 7.17487,-0.51045 11.9253,-0.45996 2.37525,0.0252 4.725,0.0938 6.70755,0.20508 1.98255,0.11129 3.36577,0.1723 4.82812,0.54199 0.0562,0.0142 0.1104,0.0225 0.1758,0.0352 -0.1341,0.0208 -0.31267,0.0527 -0.59032,0.11572 0.25372,-0.0576 0.44827,-0.086 0.63135,-0.1084 0.0502,0.009 0.11355,0.0242 0.14205,0.0278 0.032,0.004 0.1137,-0.0321 0.0967,-0.0513 0.51481,-0.0316 0.76478,0.0632 1.0503,0.10986 0.41295,0.0675 0.77611,0.15682 1.16895,0.26221 0.7857,0.21075 1.65885,0.49332 2.6118,0.83349 1.90598,0.68035 4.09223,1.57413 5.98095,2.49463 3.50483,1.70809 5.3634,2.58631 6.18458,2.89453 0.82125,0.30823 0.11708,0.19552 0.8526,0.12891 0.82282,-0.0745 1.16512,-0.14114 2.21625,-0.60206 1.0512,-0.46092 2.70653,-1.35801 5.35987,-2.90625 5.89179,-3.43788 5.94383,-3.46748 9.50978,-6.20214 5.20447,-3.9912 10.51357,-6.27981 16.13235,-6.68994 0.88238,-0.0645 1.74495,-0.0937 2.59425,-0.0864 z M 576.0841,440.93239 c -0.0289,0.0513 0.0862,0.009 0,0 z"
     id="path4732-1"
     inkscape:connector-curvature="0" />
</svg>
