<?xml version="1.0" encoding="UTF-8" standalone="no"?>
<!-- Created with Inkscape (http://www.inkscape.org/) -->

<svg
   xmlns:dc="http://purl.org/dc/elements/1.1/"
   xmlns:cc="http://creativecommons.org/ns#"
   xmlns:rdf="http://www.w3.org/1999/02/22-rdf-syntax-ns#"
   xmlns:svg="http://www.w3.org/2000/svg"
   xmlns="http://www.w3.org/2000/svg"
   xmlns:sodipodi="http://sodipodi.sourceforge.net/DTD/sodipodi-0.dtd"
   xmlns:inkscape="http://www.inkscape.org/namespaces/inkscape"
   width="210mm"
   height="297mm"
   viewBox="0 0 210 297"
   version="1.1"
   id="svg8"
   inkscape:version="0.92.2 (5c3e80d, 2017-08-06)"
   sodipodi:docname="reactiondiffusion.svg">
  <defs
     id="defs2" />
  <sodipodi:namedview
     id="base"
     pagecolor="#ffffff"
     bordercolor="#666666"
     borderopacity="1.0"
     inkscape:pageopacity="0.0"
     inkscape:pageshadow="2"
     inkscape:zoom="0.35355339"
     inkscape:cx="195.02032"
     inkscape:cy="624.47011"
     inkscape:document-units="mm"
     inkscape:current-layer="layer1"
     showgrid="false"
     inkscape:window-width="1920"
     inkscape:window-height="1001"
     inkscape:window-x="-9"
     inkscape:window-y="-9"
     inkscape:window-maximized="1" />
  <metadata
     id="metadata5">
    <rdf:RDF>
      <cc:Work
         rdf:about="">
        <dc:format>image/svg+xml</dc:format>
        <dc:type
           rdf:resource="http://purl.org/dc/dcmitype/StillImage" />
        <dc:title></dc:title>
      </cc:Work>
    </rdf:RDF>
  </metadata>
  <g
     inkscape:label="Ebene 1"
     inkscape:groupmode="layer"
     id="layer1">
    <path
       style="fill:#1dcc97;stroke-width:1"
       d="m 116.36016,98.855021 c -3.32399,0 -6.00015,2.676149 -6.00015,6.000149 v 87.99981 c 0,3.32399 2.67616,6.00014 6.00015,6.00014 h 87.9998 c 3.32399,0 6.00015,-2.67615 6.00015,-6.00014 v -87.99981 c 0,-3.324 -2.67616,-6.000149 -6.00015,-6.000149 z m 45.65872,5.000219 h 2.42361 v 1.52497 c 0,3.33873 -0.5144,4.17056 -2.18178,3.53105 -1.4305,-0.54865 -1.47228,-3.58833 -0.24183,-5.05602 z m 38.61935,0 h 0.72192 c 2.21599,0 3.99976,1.78375 3.99976,3.99975 v 3.02255 c -0.12698,0.22985 -0.25342,0.46852 -0.37156,0.70539 -0.46403,0.93028 -1.38467,1.79572 -2.04536,1.92288 -0.93734,0.18044 -1.33816,-0.72301 -1.82523,-4.11189 -0.3293,-2.2913 -0.53573,-4.70796 -0.47953,-5.53868 z m -24.10243,0.0729 c 1.3739,-1e-5 1.77041,5.91811 0.68937,10.29498 -0.25694,1.04022 -0.98435,1.68465 -1.90066,1.68465 -1.27534,0 -1.48415,-0.50992 -1.48415,-3.6313 0,-4.41436 1.27024,-8.34833 2.69544,-8.34833 z m -27.13633,1.56735 c 0.0807,-0.006 0.16288,-0.004 0.24549,0.004 0.44058,0.0444 0.90476,0.28696 1.36943,0.75137 0.93784,0.93739 1.05201,1.91907 0.56067,4.84829 -1.01888,6.07433 -5.02203,4.98891 -4.56303,-1.23714 0.19627,-2.6621 1.17661,-4.28395 2.38744,-4.36665 z m 40.58719,0.67902 c 1.34898,0 2.16855,4.61104 1.28984,7.26003 -0.42955,1.29498 -1.31979,2.19074 -2.32335,2.33836 -1.39936,0.20579 -1.6273,-0.11897 -1.6273,-2.32183 0,-3.43279 1.40539,-7.27656 2.66081,-7.27656 z m -68.18654,6.73913 c 2.32524,0 2.50585,2.33578 0.3478,4.49274 -1.94694,1.94597 -3.74552,1.92199 -3.74552,-0.0496 0,-2.57919 1.42563,-4.44314 3.39772,-4.44314 z m 13.39713,2.28565 c 0.73888,0.009 1.62113,0.88302 1.79628,2.39985 0.15854,1.37301 -0.10943,2.05362 -0.81081,2.05362 -1.50281,-1e-5 -2.04793,-0.7449 -2.04793,-2.80035 0,-1.14413 0.48779,-1.66039 1.06246,-1.65312 z m 27.40557,0.70848 c 0.82409,0 1.49809,0.4494 1.49809,0.99735 0,0.54796 0.8418,2.65329 1.87018,4.67931 1.02836,2.02602 1.87153,4.10507 1.87325,4.61987 0.005,1.48357 -1.84208,1.08989 -3.51811,-0.74931 -3.52803,-3.8715 -4.55292,-9.54722 -1.72341,-9.54722 z m 38.3341,1.68052 c 1.14054,-0.0418 2.08886,1.60256 2.11148,4.4974 0.007,0.94837 -0.58891,1.31051 -2.15749,1.31051 -2.5618,0 -3.28822,-1.34793 -2.05672,-3.81682 0.66504,-1.33323 1.41838,-1.96598 2.10273,-1.99109 z m -18.58492,5.14335 c 0.96039,0.0366 1.22833,0.37416 1.22833,1.21646 0,0.76739 -0.40471,1.7992 -0.89916,2.2934 -0.49445,0.4942 -1.69712,0.89814 -2.67218,0.89814 -1.49204,0 -1.73583,-0.32577 -1.53633,-2.05879 0.19751,-1.71582 0.64336,-2.09789 2.67218,-2.2934 0.48996,-0.0472 0.88702,-0.0681 1.20716,-0.0558 z m -31.90917,2.91094 c 1.74723,0 3.17035,1.41162 3.17035,3.14502 0,1.61925 -2.04245,1.7392 -4.02765,0.23668 -1.66497,-1.26015 -1.12705,-3.3817 0.8573,-3.3817 z m 42.18863,5.30665 c 0.44752,-0.0361 0.67982,0.37766 0.66405,1.24488 -0.031,1.70154 -1.67724,3.84092 -4.27209,5.55109 -1.13956,0.75105 -2.66219,1.36873 -3.38325,1.37149 -2.14128,0.008 -1.49469,-2.00612 1.17305,-3.65404 1.36626,-0.84396 3.10396,-2.21969 3.86178,-3.05666 0.84585,-0.93417 1.50897,-1.42066 1.95646,-1.45676 z m -27.86083,7.42229 c 2.54936,0 3.5043,1.71326 1.86758,3.34914 -1.4115,1.41081 -1.41438,1.41055 -2.85768,-0.032 -1.87891,-1.87792 -1.44947,-3.3171 0.9901,-3.3171 z m -37.60338,5.24205 c 1.22388,0 1.2781,3.14087 0.0749,4.34341 -1.44465,1.4439 -2.84686,1.03816 -2.84686,-0.82373 0,-1.90545 1.27113,-3.51968 2.77193,-3.51968 z m 76.14004,15.07867 c 0.0893,0.003 0.18455,0.0155 0.28631,0.0351 0.59415,0.11437 1.31879,0.9966 1.76631,2.07842 v 4.09123 c -0.46165,0.17757 -1.15518,-0.32339 -1.86296,-1.69137 -1.47111,-2.8434 -1.52959,-4.56729 -0.18966,-4.51342 z m -71.746,2.22725 c 0.0415,-0.001 0.0836,-4e-5 0.12557,0.004 0.67099,0.0586 1.3861,0.73584 1.56374,1.98024 0.18183,1.2738 -0.13395,1.6769 -1.31154,1.6769 -1.16615,0 -1.55083,-0.47773 -1.55083,-1.92701 0,-1.15209 0.55129,-1.71604 1.17306,-1.73375 z"
       id="path856"
       inkscape:connector-curvature="0" />
    <path
       style="fill:#4d3cc7;stroke-width:1"
       d="m 116.75496,-18.608904 c -3.324,0 -6.00015,2.67615 -6.00015,6.00015 v 87.9998 c 0,3.32401 2.67615,6.00014 6.00015,6.00014 h 87.99979 c 3.324,0 6.00015,-2.67613 6.00015,-6.00014 v -87.9998 c 0,-3.324 -2.67615,-6.00015 -6.00015,-6.00015 z m 6.87813,5.00021 h 4.61471 c -0.61145,1.11329 -1.01013,3.32097 -1.911,7.8176104 -0.79605,3.97343 -1.36199,4.84754003 -6.42751,9.91051 l -4.15427,4.15117 v -5.60276 c 0.51939,-0.95159 1.13822,-2.38605997 1.52807,-3.58427997 0.54771,-1.68342003 2.1858,-3.80771003 4.2261,-5.47873003 3.56236,-2.91763 4.15807,-4.9381904 2.1239,-7.2135204 z m 11.60549,0 h 4.97644 l -0.73535,2.47375 c -2.17209,7.3105204 -1.26005,11.12020043 3.70468,15.4770904 2.23675,1.96291 3.30564,2.358 6.38359,2.358 3.65966,0 3.72314,0.041 6.31899,4.0969096 1.4422,2.25337 4.03105,5.11776 5.75366,6.36499 2.14055,1.54982 3.98536,2.25893 5.82858,2.24069 6.4315,-0.0637 17.25698,-1.39747 19.07636,-2.35025 2.44173,-1.27871 12.11914,-15.3533196 13.17904,-19.1678196 0.98435,-3.54123 0.98285,-6.53884 -0.004,-10.0924104 -0.16135,-0.58071 -0.29464,-1.03541 -0.43615,-1.40095 h 2.47065 c 2.21601,0 3.99977,1.78376 3.99976,3.9997604 v 6.01048 l -0.26872,0.49248 c -1.46329,2.68343003 -1.32834,6.53006 0.26872,8.68216 v 8.1204296 c -0.61743,-0.48862 -1.40639,-1.64222 -1.90737,-2.84065 -1.01739,-2.4336996 -2.34761,-3.7108496 -3.8561,-3.7630796 -0.68569,-0.0238 -1.40879,0.20555 -2.15543,0.69453 -1.43253,0.93815 -1.82263,1.84078 -1.82263,4.2162796 0,2.38437 -0.57989,3.71654 -2.74815,6.30918 -3.82928,4.57873 -5.46177,5.0884 -14.27613,4.46381 -7.19106,-0.50956 -7.47843,-0.46844 -9.5927,1.34927 -2.05808,1.7694 -2.18081,2.20172 -2.20245,7.76129 -0.0224,5.74602 -0.0984,5.98475 -3.14089,9.9291 -1.71464,2.22287 -3.54369,5.56132 -4.06383,7.41815 -0.95661,3.41495 -0.8235,4.6233 1.54202,13.99915 0.41562,1.64735 0.93757,4.52261 1.1591,6.38927 0.22153,1.86669 1.03693,4.43571 1.81178,5.7092 l 0.6444,1.05887 h -4.92993 l -0.18086,-0.47646 c -0.40185,-1.05638 -0.73123,-3.9314 -0.73123,-6.38927 0,-3.33732 -0.49709,-5.44989 -1.96319,-8.34162 -1.68568,-3.32489 -1.90997,-4.53636 -1.58594,-8.57105 0.25163,-3.13338 1.0379,-5.8884 2.35954,-8.27029 5.61513,-10.11975 6.88205,-15.89509 4.42402,-20.16363 -1.70622,-2.96297 -10.63189,-10.28283 -15.59543,-12.7894 -2.06021,-1.04041 -6.02232,-3.5785896 -8.8036,-5.6399696 -5.74195,-4.25567 -5.72081,-4.18678 -3.93206,-13.52992 0.46142,-2.4100704 0.85877,-4.6697604 1.03095,-5.8280704 z m 25.42584,0 h 6.29212 l -0.83819,4.0380004 c -1.33272,6.42164 -0.32375,11.72032 3.00033,15.75098 3.49504,4.2379396 7.32438,3.75864 8.53695,-1.07022 0.45239,-1.8015 0.74121,-1.9289 3.64784,-1.60146 4.06231,0.45765 4.67113,-0.33688 5.29942,-6.91689 0.58447,-6.12105 0.88155,-8.8997304 0.54053,-10.2004104 h 5.2586 l 0.33538,1.77612 c 0.33077,1.7503 0.55375,4.2708004 0.49506,5.6017304 -0.13631,3.0907 -3.48683,9.26062 -7.33289,13.5046 -3.32308,3.6668996 -6.1189,4.5766296 -14.25443,4.6353696 -5.40436,0.039 -6.98197,-0.89735 -9.70018,-5.7582996 -1.81717,-3.24965 -1.94261,-4.00685 -1.48466,-8.89145 0.33439,-3.56662 0.20781,-5.8852 -0.38086,-6.98458 -0.70904,-1.3241804 -0.64773,-2.0027504 0.31316,-3.4685204 z m 13.80226,0 h 5.94486 c -0.63166,0.94147 -0.87954,2.44154 -0.87954,4.6700004 0,3.94658 -1.47023,11.14609 -2.27583,11.14609 -0.28571,0 -1.40771,-0.69828 -2.49338,-1.55183997 -1.63944,-1.28893 -1.97353,-2.15716003 -1.97353,-5.12269003 0,-1.96383 0.47758,-5.15767 1.06144,-7.0967204 z m -24.15253,0.0915 c 3.17414,0 3.68309,1.22047 3.12332,7.4915304 -0.4511,5.05379003 -0.66697,5.63621003 -2.17041,5.84977003 -1.03511,0.14705 -2.42211,-0.51482 -3.64887,-1.74097003 -1.73452,-1.73365 -1.93546,-2.43001 -1.62677,-5.641 0.42233,-4.3931304 1.5584,-5.9593304 4.32273,-5.9593304 z M 128.80073,8.3160964 c 0.89506,0.0197 1.6471,0.54145 2.48099,1.46968 1.74057,1.9374896 8.56717,6.6270896 12.71808,8.7364196 1.67763,0.8525 4.96468,3.10863 7.30447,5.01365 3.95357,3.21892 4.25328,3.68603 4.2416,6.60528 -0.009,2.3736 -0.82499,4.49218 -3.3383,8.66872 -2.00591,3.33335 -3.65035,7.19608 -4.14186,9.73324 -1.18508,6.11743 -1.87813,7.37719 -4.35994,7.92202 -1.21494,0.2667 -3.41869,1.83103 -4.89686,3.47679 -2.31019,2.57209 -2.90042,2.87835 -4.20646,2.17971 -2.99125,-1.60006 -1.17896,-4.33011 3.97081,-5.98363 3.56253,-1.14384 5.74104,-4.46571 5.74487,-8.75863 0.002,-2.43246 0.60054,-3.90814 2.70061,-6.65799 3.34427,-4.37904 4.33902,-7.12988 3.73776,-10.33322 -0.60555,-3.22627 -3.01924,-5.42224 -8.01657,-7.29206 -2.75582,-1.03114 -5.13069,-2.6858 -7.47964,-5.21002 -2.94112,-3.16057 -3.84969,-3.69848 -6.24562,-3.69848 -2.4193,0 -3.47344,0.64211 -7.68428,4.68033 -2.31901,2.22394 -4.61893,4.77204 -5.57537,6.14278 v -5.88439 l 4.79505,-4.76767 c 4.31235,-4.28779 6.54192,-6.0801296 8.25066,-6.0425296 z m 74.07145,11.2044896 c 0.82224,-0.0211 1.67777,0.34975 2.71353,1.07487 0.0639,0.0448 0.10986,0.0746 0.16898,0.11575 v 4.33617 c -0.29872,-0.0906 -0.66349,-0.12893 -1.04696,-0.11834 -0.65711,0.018 -1.36593,0.17717 -1.87327,0.44855 -2.74594,1.46885 -2.61642,3.5143 0.6444,10.18543 0.84688,1.73256 1.65454,3.30695 2.27583,4.45296 v 12.39664 l -2.35489,-4.98573 c -3.62099,-7.66746 -5.56319,-13.69016 -6.37377,-19.76106 -0.28458,-2.13141 0.0879,-3.14496 1.99522,-5.42861 1.51878,-1.81849 2.6492,-2.68581 3.85093,-2.71663 z m -73.57329,3.77444 c 2.11559,0.11423 2.27059,3.99269 -1.15135,8.05739 -2.2758,2.70326 -2.64604,2.7756 -4.38061,0.8599 -1.59518,-1.76177 -1.1504,-3.41647 1.7787,-6.62182 1.42129,-1.55532 2.63747,-2.2415 3.54242,-2.29495 0.0723,-0.004 0.1426,-0.004 0.21084,-5.2e-4 z m 48.03376,5.98982 c 0.36405,0.0261 0.72515,0.36939 1.36116,1.04955 1.14029,1.21948 1.30123,2.38113 1.01286,7.29723 l -0.34365,5.84615 -2.96984,1.87379 c -2.90238,1.83127 -5.10253,5.4512 -5.10253,8.39328 0,0.77886 1.00771,3.40043 2.23862,5.82653 2.38062,4.69212 2.82234,7.66511 1.35754,9.12915 -0.49445,0.49419 -1.26964,0.89813 -1.72289,0.89813 -1.48402,0 -2.62248,-1.75466 -2.64739,-4.08141 -0.0134,-1.25608 -0.67663,-4.1371 -1.47381,-6.40218 -2.47193,-7.0237 -1.83995,-9.49121 4.29896,-16.8119 1.61572,-1.92675 1.81285,-2.76909 1.53841,-6.56135 -0.25645,-3.54351 -0.0575,-4.58276 1.07125,-5.60379 0.64997,-0.58792 1.01727,-0.87929 1.38131,-0.85318 z m 11.47786,0.30231 c 1.23206,-0.0104 2.1233,2.19055 2.76778,6.73912 0.50759,3.58232 1.98543,7.85752 4.8364,13.99293 3.71832,8.00201 5.51107,14.49226 5.57693,20.18896 0.008,0.70622 -0.61209,1.62001 -1.37925,2.03038 -2.51542,1.34554 -3.65694,-0.53038 -4.06797,-6.68435 -0.43672,-6.53862 -3.08826,-13.64054 -6.96547,-18.65571 -2.32892,-3.01252 -2.55591,-3.75281 -2.55591,-8.36229 0,-2.78158 -0.18732,-5.5465 -0.41703,-6.14484 -0.22972,-0.59833 0.15513,-1.66134 0.85576,-2.36161 0.48995,-0.48971 0.93805,-0.7391 1.34876,-0.74259 z m -49.34376,0.34364 c 0.0801,-0.003 0.15997,-0.002 0.23978,0.002 0.99315,0.0519 1.95013,0.63881 2.47943,1.79989 0.73084,1.60321 0.65149,2.16358 -0.48421,3.41788 -2.72513,3.00974 -6.49814,0.93258 -5.17539,-2.84944 0.53057,-1.51701 1.73924,-2.32976 2.94039,-2.3704 z m -21.61263,8.35918 c 0.20575,0.009 0.41459,0.0506 0.62218,0.13023 1.7036,0.6534 2.78052,4.02122 1.84485,5.76864 -1.14952,2.14683 -3.44237,1.80852 -4.56613,0.0336 v -4.68964 c 0.51802,-0.79309 1.28808,-1.27844 2.0991,-1.24282 z m 13.70717,3.64112 c 0.0626,-4e-4 0.12565,0.003 0.19017,0.008 0.5161,0.0452 1.10237,0.28386 1.89445,0.72813 2.5189,1.41278 2.98582,3.36532 1.25988,5.2715 -0.71805,0.79303 -1.69446,1.44229 -2.1699,1.44229 -3.09329,0 -4.97687,-5.3736 -2.45618,-7.00783 0.44578,-0.28901 0.84347,-0.43955 1.28158,-0.44236 z m 50.8062,9.11418 c 0.19207,0.008 0.382,0.0458 0.56327,0.11523 3.11578,1.19504 7.71207,17.75513 5.6255,20.26801 -1.19968,1.44484 -3.31546,1.50471 -4.46019,0.1261 -0.62659,-0.75462 -0.65305,-1.97488 -0.0966,-4.45656 0.85998,-3.83548 0.40567,-5.53032 -2.5306,-9.43872 -1.06567,-1.41846 -1.93683,-3.14582 -1.93683,-3.83903 0,-1.47968 1.49102,-2.8326 2.83548,-2.77503 z m -66.61247,3.64112 c 0.54408,0.15737 1.22034,0.60693 1.66295,1.13998 0.84869,1.02209 0.78867,1.35843 -0.39378,2.22261 -0.41856,0.30591 -0.87828,0.52361 -1.26917,0.62735 z m 31.89366,9.47952 c 0.5878,0.017 1.20308,0.22608 1.79989,0.64389 1.78645,1.25066 2.09662,3.25829 0.71572,4.63849 -2.26518,2.26404 -6.41627,0.13576 -5.48081,-2.81017 0.51466,-1.6207 1.67206,-2.50952 2.9652,-2.47221 z m -12.04061,9.31571 c 1.29002,0.008 2.35444,0.93234 2.28565,2.76728 -0.002,0.0503 -0.002,0.0949 -0.003,0.14211 h -6.00892 c 0.0289,-0.0586 0.0579,-0.11594 0.0868,-0.17931 0.83365,-1.83018 2.34903,-2.7382 3.63905,-2.73008 z"
       id="path854"
       inkscape:connector-curvature="0" />
    <path
       style="fill:#de1650;stroke-width:1"
       d="m 118.76516,210.58477 c -3.324,0 -6.00015,2.67615 -6.00015,6.00015 v 87.99979 c 0,3.32399 2.67615,6.00014 6.00015,6.00014 h 87.99979 c 3.32401,0 6.00016,-2.67615 6.00016,-6.00014 v -87.99979 c 0,-3.324 -2.67615,-6.00015 -6.00016,-6.00015 z m 2.99981,5.00021 H 131.861 c -0.59939,1.35519 -1.27946,4.05244 -2.63447,9.42889 -1.16142,4.60833 -1.65781,5.4364 -4.48706,7.48791 -1.74957,1.26862 -4.3823,3.87741 -5.85081,5.79758 -0.44532,0.58229 -0.81434,1.09027 -1.12344,1.55339 v -12.31811 c 1.17156,-2.56134 2.58851,-4.22117 4.63486,-5.51232 2.4603,-1.55235 2.95714,-2.25514 2.76572,-3.91294 -0.18959,-1.64186 -0.65487,-2.05618 -2.48099,-2.2102 -1.94908,-0.16439 -2.52108,0.26388 -4.30774,3.22822 -0.2278,0.37795 -0.42948,0.73267 -0.61185,1.07436 v -0.61702 c 0,-2.216 1.78375,-3.99976 3.99975,-3.99976 z m 13.96556,0 h 8.33799 c -1.89451,2.76746 -3.4219,8.72781 -2.24896,11.83029 0.96082,2.54142 4.22198,6.16899 6.33708,7.04918 2.00452,0.83408 2.22155,0.83352 4.44624,-0.0119 2.67824,-1.01776 2.39675,-2.74085 -0.60978,-3.73259 -4.35542,-1.43669 -5.06087,-2.8345 -4.89531,-9.70019 0.0535,-2.2178 0.0105,-4.23792 -0.0951,-5.43481 h 11.71712 c 0.31808,0.0999 0.57627,0.0999 0.8015,0 h 11.09855 c -0.8478,1.26075 -1.35236,3.45118 -1.63453,6.81509 -0.46122,5.49869 0.40499,9.23314 2.86701,12.36152 1.00616,1.27848 2.24184,1.91875 3.70314,1.91875 1.20622,0 2.19314,-0.14094 2.19314,-0.31316 0,-0.17224 0.19175,-0.81195 0.42582,-1.42162 0.25629,-0.66753 -0.6773,-2.21086 -2.34663,-3.87935 -2.70659,-2.70522 -2.761,-2.87056 -2.3058,-7.00216 0.25642,-2.32737 0.68221,-5.49498 0.94619,-7.03936 0.1031,-0.60314 0.17238,-1.06669 0.20413,-1.43971 h 9.13432 c -0.54566,1.02106 -0.8675,2.72227 -1.04076,5.22552 -0.1908,2.75675 -0.59313,5.93333 -0.894,7.05901 -0.30085,1.12567 -0.35092,2.5576 -0.11111,3.18223 0.23981,0.62462 1.29752,1.13585 2.35076,1.13585 2.34791,0 3.37654,-2.28066 3.37654,-7.48792 0,-2.00555 0.32764,-4.50807 0.72812,-5.5609 0.57742,-1.51797 0.55053,-2.72289 -0.0512,-3.55379 h 7.79849 c -0.029,0.80093 0.0752,2.06991 0.24546,4.08296 0.41402,4.89532 0.26508,5.83093 -1.46192,9.17257 -1.05775,2.04668 -3.42779,5.60995 -5.26634,7.91837 -3.70161,4.6476 -4.25991,4.86776 -14.29784,5.63894 -5.80819,0.44623 -6.18281,0.3791 -8.43515,-1.51516 -1.29639,-1.0903 -3.26097,-3.52393 -4.36562,-5.40793 -2.03763,-3.47521 -2.10925,-4.58316 -0.7214,-11.17762 0.35325,-1.6785 0.0825,-2.75791 -1.03302,-4.11861 -1.42444,-1.73745 -1.58613,-1.76999 -2.80654,-0.57051 -1.03621,1.01844 -1.29176,2.59233 -1.27796,7.87239 0.0147,5.60374 0.32466,7.24832 2.0531,10.90011 1.99575,4.21653 5.00458,7.22994 8.6863,8.69869 1.01779,0.40599 3.36771,0.6016 5.2219,0.4346 16.79636,-1.51281 16.30156,-1.32006 20.18636,-7.85585 1.68344,-2.83223 3.39906,-5.35862 3.81269,-5.61413 1.09273,-0.675 4.1973,-7.06712 4.81159,-9.90689 0.33951,-1.5695 0.0845,-3.7653 -0.71727,-6.17791 -0.35014,-1.05365 -0.64066,-1.81733 -0.93017,-2.37402 h 4.09742 c 2.216,0 3.99977,1.78376 3.99976,3.99976 v 8.83357 c -0.55317,1.19003 -0.53181,1.96396 0,3.18999 v 12.8049 c -0.14275,-0.13928 -0.28982,-0.27345 -0.44287,-0.39378 -1.04049,-0.81803 -2.38209,-2.65962 -2.98121,-4.09277 -0.85531,-2.04601 -1.45472,-2.55419 -2.79053,-2.36471 -1.48304,0.21037 -1.70119,0.67673 -1.70119,3.6344 0,3.12353 -0.3456,3.74678 -4.35374,7.8543 l -4.35374,4.46174 -9.04647,-0.20257 c -11.57258,-0.25901 -11.83804,-0.0747 -11.83804,8.21862 0,5.74758 -0.0757,5.99167 -2.99465,9.6826 -1.64698,2.08253 -3.5137,5.57276 -4.14858,7.7556 -1.07994,3.71299 -1.06001,4.25156 0.31161,8.35918 0.80636,2.41484 1.69394,6.3904 1.97249,8.8346 0.57839,5.07542 1.42484,7.6387 3.11918,9.42424 h -7.88685 l -0.2558,-5.34799 c -0.26707,-5.58306 -0.61027,-6.95523 -2.42259,-9.69244 -1.93631,-2.9245 -2.07119,-3.57592 -1.63194,-7.86102 0.59123,-5.76785 1.45875,-8.31489 4.62246,-13.56609 3.44966,-5.72583 4.41083,-10.59046 2.85822,-14.46888 -0.65881,-1.64569 -1.41681,-2.99206 -1.68414,-2.99206 -0.26732,0 -2.64371,-1.88144 -5.28133,-4.18063 -2.63762,-2.29919 -6.60729,-4.98074 -8.82116,-5.95932 -2.21388,-0.97859 -5.44745,-2.93068 -7.18561,-4.33772 -1.73817,-1.40705 -4.25587,-3.11396 -5.59501,-3.79357 -2.715,-1.37786 -2.88493,-2.28175 -1.36943,-7.27242 0.5769,-1.89977 1.28593,-5.35345 1.57614,-7.67499 0.16536,-1.32287 0.27627,-2.22886 0.29042,-2.85254 z m -5.40794,18.84898 c 0.4815,0 1.5678,0.97154 2.41381,2.15904 1.51592,2.12784 8.40256,7.05607 15.10088,10.80658 1.8847,1.05528 5.20851,3.51981 7.38611,5.47667 3.85338,3.46277 3.95043,3.64944 3.62717,6.97218 -0.2201,2.26235 -1.49949,5.43452 -3.79305,9.40407 -2.48274,4.297 -3.70817,7.44149 -4.33513,11.12387 l -0.87437,5.13353 -3.60908,1.49914 c -2.46021,1.0219 -4.22323,2.4269 -5.53868,4.41368 -1.07474,1.62321 -2.53718,2.91455 -3.30109,2.91455 -2.20616,0 -3.98608,-2.55091 -3.71657,-5.32629 0.21675,-2.23205 0.63173,-2.62051 4.28604,-4.01009 5.02532,-1.91093 6.9128,-4.33584 7.40524,-9.51466 0.29734,-3.12711 0.92523,-4.62668 2.91145,-6.95255 1.3928,-1.63097 2.81155,-3.98965 3.15329,-5.24153 1.29947,-4.76023 -2.70273,-9.46625 -8.94777,-10.52081 -2.40593,-0.40627 -3.491,-1.16152 -5.41414,-3.76928 -4.36724,-5.92193 -7.96013,-5.68183 -14.13609,0.94517 -2.24323,2.40705 -4.02602,4.97119 -5.17539,7.35304 v -10.80865 l 5.33455,-5.5056 c 3.49126,-3.60356 6.74132,-6.55206 7.22282,-6.55206 z m 73.46425,12.73721 c 0.55115,4.8e-4 1.26767,0.17194 2.35489,0.46199 0.68303,0.18222 1.20869,0.3149 1.62316,0.39635 v 7.82175 c -0.47075,-0.32677 -1.07885,-0.41076 -1.84898,-0.30024 -2.40454,0.34507 -2.29385,2.46189 0.42581,8.13645 l 1.42317,2.96932 v 19.48667 c -0.30103,-0.86322 -0.66335,-1.82162 -1.10122,-2.95486 -1.40251,-3.62975 -3.24516,-7.96158 -4.09485,-9.62629 -0.84969,-1.6647 -2.19537,-5.33698 -2.99051,-8.16073 -0.79514,-2.82377 -1.87658,-6.18957 -2.40347,-7.47913 -1.02658,-2.51261 -1.16292,-2.22391 4.28449,-9.08162 0.9497,-1.19556 1.40892,-1.67046 2.32751,-1.66966 z m -72.68755,3.36052 c 0.22142,-0.0144 0.43065,0.0184 0.63717,0.0925 3.65138,1.30972 4.27109,3.56629 1.89704,6.90655 -0.77695,1.09317 -1.93965,3.2512 -2.58382,4.79557 -1.42406,3.41412 -2.99081,3.58871 -6.43269,0.71676 -3.12072,-2.60398 -2.82848,-3.87301 2.09807,-9.11779 2.23246,-2.37667 3.42473,-3.33116 4.38423,-3.39359 z m 59.21912,6.58616 c 0,0 1.62999,0.15994 2.61534,1.14722 0.98535,0.98728 1.38235,4.66121 1.38235,4.66121 0.38257,4.70033 1.18276,7.26203 4.74234,15.18614 4.07999,9.08253 5.77784,15.40825 5.96347,22.21517 0.0711,2.60692 0.0526,2.62192 -3.48713,2.84893 -1.95721,0.12552 -3.61223,-0.0427 -3.67833,-0.37412 -0.0661,-0.33144 -0.16427,-3.12999 -0.21807,-6.21877 -0.0795,-4.56324 -0.56956,-6.72265 -2.61431,-11.52073 -1.38405,-3.24771 -3.47756,-6.99907 -4.65192,-8.33592 -1.80414,-2.05377 -2.13475,-3.08108 -2.13475,-6.62647 0,-2.30777 -0.40038,-5.69111 -0.88935,-7.5184 -1.15036,-4.29889 1.20566,-5.50676 2.97036,-5.46426 z m -11.10785,0.0264 c 1.56559,-0.0521 4.14366,1.04083 3.97443,3.12281 -0.10042,1.23551 -0.30489,4.60506 -0.45423,7.4879 -0.14932,2.88285 -0.32001,5.48778 -0.37931,5.78828 -0.0593,0.30051 -1.44501,1.22798 -3.07939,2.06137 -5.34178,2.7238 -6.10219,7.17473 -2.34715,13.73457 2.43746,4.25808 3.04606,8.70625 1.38131,10.08774 -1.63224,1.35372 -4.62888,1.77335 -5.61671,0.786 -0.51362,-0.51334 -0.93431,-2.03536 -0.93431,-3.38169 0,-1.34634 -0.86025,-5.06948 -1.91203,-8.27392 -2.40682,-7.33293 -2.0285,-9.75833 2.35335,-15.08486 1.81759,-2.20946 3.34997,-4.56815 3.40548,-5.24155 0.0555,-0.67339 0.14008,-3.24645 0.18758,-5.71746 0,0 -0.40997,-2.77529 0.37,-3.78324 0.77997,-1.00795 2.75281,-1.56011 2.75281,-1.56011 0.0943,-0.0137 0.1938,-0.0224 0.29817,-0.0258 z m -38.36665,0.1354 c 0.27791,3.2e-4 0.56566,0.0346 0.86248,0.1049 4.2926,1.01625 5.74901,4.24716 3.4153,7.57731 -1.58412,2.26051 -3.41007,3.10332 -5.23173,2.41432 -2.55015,-0.96453 -3.57655,-2.77103 -3.05511,-5.37693 0.60734,-3.03515 2.06367,-4.72188 4.00906,-4.7196 z m -22.40535,7.28121 c 1.02264,-0.0151 2.0876,0.59845 3.35225,1.91873 1.857,1.93876 2.07635,2.66664 1.87327,6.22804 l -0.22996,4.03283 -3.55844,-0.0325 c -0.92427,-0.008 -1.60302,-0.005 -2.11046,0.0419 v -12.10778 c 0.0793,-0.0125 0.14912,-0.0199 0.23719,-0.0367 0.14482,-0.0276 0.29006,-0.0423 0.43615,-0.0444 z m 13.43639,3.69123 c 0.91923,-0.005 2.27218,0.73257 4.27364,2.10892 2.87752,1.97879 3.39256,2.71209 3.39256,4.82658 0,1.37121 -0.47549,2.88763 -1.05678,3.36982 -1.69436,1.40548 -5.90543,1.7754 -7.41144,0.65112 -1.10655,-0.82604 -1.31018,-1.88536 -1.12396,-5.84926 0.16471,-3.50599 0.58249,-5.09985 1.92598,-5.10718 z m 52.29345,9.70019 c 0.65913,-0.047 1.24745,0.36647 2.01486,1.22214 3.38328,3.77239 7.33249,19.65423 5.67873,22.83788 -0.90861,1.74918 -4.48948,1.68928 -6.71588,-0.11266 -1.61839,-1.30982 -1.68458,-1.62809 -0.83199,-3.98476 1.64565,-4.54866 1.11376,-6.90061 -2.55643,-11.31042 -2.22959,-2.67892 -2.23846,-5.03608 -0.0274,-7.11223 1.04932,-0.98529 1.77896,-1.49293 2.43809,-1.53995 z m -58.52563,1.50429 c 0.68512,-0.0626 1.62382,0.42654 2.93419,1.45676 2.27051,1.78508 2.52837,4.19027 0.80564,7.51996 -1.08985,2.10648 -1.06455,2.43506 0.37465,4.87309 1.86629,3.16155 1.90506,3.88285 0.30334,5.65186 -1.36694,1.50969 -4.79813,1.79893 -7.05022,0.59425 -1.00602,-0.53808 -1.90741,-0.53006 -2.94762,0.0264 -3.12079,1.66936 -0.87052,4.49273 3.58066,4.49273 1.22921,0 2.77187,0.65342 3.53622,1.4976 0.005,0.006 0.009,0.01 0.0145,0.0155 H 121.765 c -2.216,0 -3.99975,-1.78377 -3.99975,-3.99976 v -6.6921 c 1.78856,1.3149 2.71027,1.12831 5.19658,-0.96273 2.56142,-2.15422 3.4152,-4.14177 2.71973,-6.33191 -0.63311,-1.99376 -1.99225,-1.88959 -4.06073,0.31109 -0.93499,0.99475 -2.51108,2.01173 -3.50212,2.26033 -0.12445,0.0312 -0.24156,0.0705 -0.35346,0.11472 v -8.5695 c 0.72153,0.43996 1.75244,0.75586 3.20032,1.02628 2.55201,0.47664 2.81547,0.36099 3.26543,-1.43091 0.29554,-1.17693 0.72668,-1.79105 1.4118,-1.85365 z m 25.01553,11.98997 c 0.0765,0.003 0.15229,0.01 0.22634,0.0202 2.27861,0.32243 4.13449,5.30884 2.94607,7.91581 -0.62858,1.3789 -1.37456,1.69394 -4.01009,1.69394 -3.71927,0 -5.03535,-0.98131 -5.03535,-3.75378 0,-2.52902 3.49984,-5.96847 5.87303,-5.87612 z m -12.75168,8.8811 c 1.72481,0 3.89632,2.70116 4.07469,5.06791 0.005,0.067 0.0134,0.12817 0.0217,0.18915 h -10.61124 c 0.51115,-0.48712 1.10217,-1.10736 1.81901,-1.88775 1.81538,-1.9763 3.75728,-3.36931 4.69583,-3.36931 z m 39.78982,4.52687 c 1.31879,-0.004 2.6965,0.23944 3.66903,0.73019 h -6.94842 c 0.73717,-0.48233 1.97883,-0.72628 3.27939,-0.73019 z"
       id="path852"
       inkscape:connector-curvature="0" />
    <path
       style="fill:#cccccc;stroke-width:1"
       d="m 3.3767903,97.377426 c -3.32399996,0 -6.00015,2.676144 -6.00015,6.000144 v 87.9998 c 0,3.324 2.67615004,6.00015 6.00015,6.00015 H 91.37659 c 3.324,0 6.00015,-2.67615 6.00015,-6.00015 v -87.9998 c 0,-3.324 -2.67615,-6.000144 -6.00015,-6.000144 z m 31.6182277,5.000204 h 2.942455 c 4.209261,1.70611 3.31929,8.57041 0.937927,11.79463 -7.06483,6.32797 -9.352622,-9.19253 -3.880382,-11.79463 z m 11.440132,0 h 6.9975 c 0.18566,1.12398 0.0607,2.52337 -0.13332,3.90003 -1.59457,7.29192 -9.5466,0.79605 -6.86418,-3.90003 z m 14.14022,0 h 5.46788 c 1.53752,2.69861 0.5551,7.1255 0.31264,9.96477 0.24536,4.84018 -7.777,5.62853 -7.46879,0.44338 0.0111,-2.70185 -0.15305,-7.67605 1.68827,-10.40815 z m 25.05997,0 h 2.74143 c 2.216,0 3.99977,1.78376 3.99976,3.99976 v 6.47609 c -0.78781,0.66714 -1.80224,1.10016 -3.05615,1.17616 -4.31666,-1.72633 -3.02517,-7.90448 -3.68504,-11.65201 z m -8.43566,0.3297 c 4.59242,1.61957 4.29957,9.18459 1.449,12.34395 -2.41954,2.78285 -7.35159,0.73738 -6.33191,-3.12694 0.22331,-3.13813 0.77246,-8.99857 4.88291,-9.21701 z m -68.5234697,6.72724 c 0.0821,-4e-4 0.16488,0.001 0.24805,0.005 5.0440597,-0.005 4.3281997,6.98055 0.66197,8.7483 -2.95234,3.07121 -7.68617,-0.38089 -5.98258,-4.18941 0.49191,-2.41147 2.5263,-4.5516 5.07256,-4.56406 z M 22.35393,111.729 c 4.847625,0.23982 5.039622,10.00453 -0.53899,8.26771 -3.684,-0.8741 -3.76754,-8.45897 0.53899,-8.26771 z m 27.36887,0.70487 c 4.4248,0.43351 3.78737,6.30307 6.12727,9.11365 2.34888,2.69127 0.10201,7.72071 -3.58996,5.64617 -4.2422,-2.61554 -8.43778,-9.34698 -4.97437,-13.92938 0.65745,-0.59129 1.56109,-0.86776 2.43706,-0.83044 z m 38.31652,1.68 c 4.94172,0.41696 5.89217,10.64059 -0.22479,9.8025 -5.73612,0.71166 -6.4319,-8.147 0.22479,-9.8025 z m -18.62315,5.14077 c 5.62715,0.42949 2.80587,8.99357 -1.93735,8.38657 -5.51309,1.14377 -5.24936,-8.24444 -0.27337,-8.23257 0.73221,-0.10154 1.47071,-0.17122 2.21072,-0.154 z m -31.421335,2.88303 c 4.725035,-0.0146 6.778545,8.62052 0.92139,8.4584 -4.365816,0.2508 -7.798901,-6.51827 -2.738334,-8.2579 0.441822,-0.11622 0.893611,-0.19107 1.351854,-0.17156 0.157805,-0.0191 0.312668,-0.0285 0.46509,-0.0289 z m 41.622265,5.32215 c 0.0351,0.002 0.0705,0.006 0.10594,0.0134 4.82167,1.18966 1.86282,7.54683 -1.10536,9.35551 -2.41385,3.70744 -11.7423,3.88886 -8.53333,-2.14664 2.72776,-2.54598 5.74547,-5.00204 8.80669,-7.10551 0.24216,-0.0321 0.48034,-0.1306 0.72606,-0.11679 z m -27.30841,7.4042 c 4.63593,-0.10445 5.42692,6.44477 1.15238,8.1132 -4.48188,1.83657 -8.77542,-7.29665 -2.76934,-8.00209 0.38189,-0.0589 0.76975,-0.0885 1.15601,-0.0801 0.1575,-0.0176 0.3114,-0.0276 0.46095,-0.031 z m -38.32945,5.27565 c 0.11631,-0.004 0.23386,-0.003 0.35295,0.004 6.40409,1.42392 0.55764,13.04583 -4.23023,7.94319 -1.9479297,-2.92963 0.27182,-7.82481 3.87728,-7.9468 z m 76.28062,15.08745 c 0.0921,-0.002 0.18611,-0.001 0.28319,0.002 0.69661,0.0877 1.30813,0.36182 1.83348,0.76533 v 9.44438 c -3.99386,0.16172 -7.79099,-10.08511 -2.11667,-10.21177 z m -71.64421,2.21485 c 4.84203,0.005 4.90213,8.92706 -0.41393,7.60936 -4.03209,-0.41549 -3.67989,-7.69084 0.41393,-7.60936 z"
       id="path856-3"
       inkscape:connector-curvature="0" />
    <path
       style="fill:#cccccc;stroke-width:1"
       d="m -5.9778555,-22.359267 c -3.3240001,0 -6.0001495,2.676149 -6.0001495,6.000149 v 87.999797 c 0,3.324 2.6761494,6.000149 6.0001495,6.000149 H 82.021941 c 3.324,0 6.000149,-2.676149 6.000149,-6.000149 v -87.999797 c 0,-3.324 -2.676149,-6.000149 -6.000149,-6.000149 z m 5.55780035,5.000212 H 6.8347986 a 1.3224101,1.3224101 0 0 1 -0.1622637,0.636654 c -0.3730678,0.679265 -0.8689551,2.934525 -1.7714674,7.4393396 -0.4062095,2.0275709 -0.8151706,3.4874787 -1.8009235,5.0079616 -0.9857528,1.52049 -2.44550664,3.0390012 -4.9878085,5.5800212 a 1.3224101,1.3224101 0 0 1 -0.00207,0 L -6.0440014,5.4550556 A 1.3224101,1.3224101 0 0 1 -6.9777927,5.840045 V -4.3174744 c 0.0977,-0.2602111 0.1916298,-0.5184997 0.2697507,-0.7586099 0.6865196,-2.1100589 2.4494622,-4.2945197 4.6462261,-6.0936837 1.69346563,-1.386972 2.52466739,-2.498717 2.73058466,-3.197222 0.20591726,-0.698506 0.090723,-1.166678 -0.75395931,-2.1115 a 1.3224101,1.3224101 0 0 1 -0.3348646,-0.880565 z m 11.58689015,0 h 7.637261 a 1.3224101,1.3224101 0 0 1 -0.05323,0.376722 l -0.736388,2.472716 c -1.05378,3.546671 -1.302864,6.0808053 -0.804601,8.1622929 0.498261,2.0814916 1.74611,3.8659961 4.114993,5.94485616 2.145911,1.88319014 2.544779,2.02933354 5.509742,2.02933354 1.834859,0 3.094117,-0.027837 4.279326,0.7405232 1.185209,0.76836 1.854821,1.9362528 3.154328,3.966683 1.329253,2.0768998 3.960611,4.9534252 5.414139,6.0058352 2.003518,1.4506 3.546354,2.004849 5.041038,1.990059 3.131613,-0.03101 7.423546,-0.376341 11.119217,-0.83199 1.847834,-0.22783 3.551698,-0.48422 4.880838,-0.73639 1.329142,-0.25216 2.386454,-0.585449 2.476336,-0.632519 0.02262,-0.01185 0.430551,-0.311995 0.888833,-0.783415 0.458282,-0.47143 1.02153,-1.117598 1.63866,-1.8768879 1.234263,-1.5185699 2.691201,-3.4960755 4.103626,-5.5505656 1.412423,-2.0544801 2.783666,-4.1900689 3.855577,-6.027539 1.071915,-1.8374699 1.848689,-3.4556729 2.030887,-4.1113768 0.932706,-3.3554468 0.932029,-6.0152477 -0.0036,-9.3844407 -0.158895,-0.571876 -0.285946,-0.996239 -0.394806,-1.27744 a 1.3224101,1.3224101 0 0 1 -0.08733,-0.476457 h 3.790466 c 2.215999,0 3.999765,1.783755 3.999757,3.999754 v 24.625888 a 1.3224101,1.3224101 0 0 1 -0.820105,-0.28422 C 81.220992,10.206207 80.46872,8.9914203 79.893389,7.6151303 79.431996,6.5114204 78.916995,5.7353557 78.448,5.2793559 77.979004,4.8233558 77.608453,4.6780762 77.213448,4.6644063 76.85534,4.6519762 76.404969,4.7644 75.826971,5.1429298 c -0.599903,0.39287 -0.800947,0.6222336 -0.959115,0.9880537 -0.15817,0.3658198 -0.265617,1.0058773 -0.265617,2.1213175 0,2.59872 -0.819674,4.482882 -3.05666,7.157702 -1.958475,2.34178 -3.572264,3.874879 -5.886463,4.598169 -2.3142,0.72328 -5.057894,0.650387 -9.496063,0.335897 -3.591764,-0.25451 -5.450035,-0.344012 -6.421829,-0.207222 -0.971793,0.1368 -1.178555,0.347514 -2.21692,1.240234 -0.998381,0.85834 -1.24728,1.092194 -1.453139,1.818494 -0.205862,0.72629 -0.27654,2.176694 -0.287322,4.946984 -0.01122,2.87875 -0.01229,4.492774 -0.49971,6.033224 -0.487421,1.54046 -1.390264,2.71719 -2.916103,4.69532 -1.601454,2.07613 -3.424086,5.491434 -3.838008,6.969084 -0.463106,1.65321 -0.626007,2.51187 -0.433565,4.261239 0.192444,1.74937 0.801417,4.37629 1.982308,9.056812 0.440513,1.746009 0.960149,4.605946 1.19166,6.556706 0.193471,1.630259 1.050107,4.226816 1.628841,5.177977 a 1.3224101,1.3224101 0 0 1 0.0021,0.0016 l 0.642337,1.060915 a 1.3224101,1.3224101 0 0 1 0.19017,0.685232 h -7.663098 l -0.0036,-0.0098 C 35.76804,71.843029 35.612134,70.853815 35.473413,69.644487 35.334517,68.433626 35.24862,67.061624 35.24862,65.773405 c 0,-3.206091 -0.416936,-4.976214 -1.820045,-7.743714 -1.722842,-3.39817 -2.054058,-5.169593 -1.72444,-9.273852 0.264279,-3.29078 1.097759,-6.23911 2.521291,-8.80463 2.776254,-5.00344 4.439417,-8.892226 5.103564,-11.919686 0.664149,-3.02745 0.381569,-5.117595 -0.669724,-6.943245 C 38.068617,20.0626 35.40411,17.355901 32.391379,14.884971 29.37865,12.414031 25.920313,9.9822447 23.616205,8.8186747 21.392443,7.6956745 17.466633,5.1708164 14.619854,3.0608866 13.185434,1.9977566 12.083341,1.1924298 11.20766,0.36130979 10.331979,-0.46980016 9.6665467,-1.3877157 9.3462738,-2.4901958 8.7057335,-4.6951557 9.2826389,-7.1090251 10.176714,-11.779035 c 0.437427,-2.284769 0.812043,-4.418282 0.990121,-5.58002 z m 12.887586,0 h 7.085873 c 0.25804,0.288912 0.473413,0.619398 0.622183,0.976167 0.664647,1.593924 0.541579,3.544171 0.257866,6.7225864 -0.226809,2.5409789 -0.349943,3.956737 -0.767395,5.082378 -0.208727,0.5628201 -0.561059,1.1043301 -1.060918,1.4469401 -0.499856,0.34262 -1.017924,0.4475834 -1.472261,0.5121134 -1.744313,0.2478001 -3.358711,-0.703236 -4.769736,-2.1135659 -0.911762,-0.9113031 -1.597676,-1.7392158 -1.914094,-2.8360037 -0.316415,-1.0967852 -0.251367,-2.2251643 -0.09353,-3.8669463 0.220543,-2.294041 0.597707,-3.991509 1.529106,-5.275646 0.174048,-0.239964 0.369379,-0.455586 0.582911,-0.648023 z m 12.306226,0 h 9.183934 a 1.3224101,1.3224101 0 0 1 -0.02636,0.269235 l -0.837674,4.036962 c -1.276334,6.1499407 -0.321268,10.9479363 2.72438,14.6409663 1.581121,1.91721 3.046823,2.506259 3.941363,2.3941691 0.894541,-0.1121 1.764678,-0.8394898 2.293401,-2.94504 0.120311,-0.47909984 0.230086,-0.90365131 0.462502,-1.34772136 0.0041,-0.00781 0.01749,-0.0118168 0.0217,-0.0196368 -0.165405,-0.0522102 -0.405384,-0.0831043 -0.535366,-0.14624447 -0.227224,-0.11036988 -0.45851,-0.2432423 -0.711068,-0.40049238 -0.505116,-0.31448989 -1.084945,-0.72453289 -1.663983,-1.17977289 -0.898951,-0.7067499 -1.626127,-1.4737815 -2.019514,-2.4959717 -0.393388,-1.0221899 -0.458886,-2.1336373 -0.458886,-3.6659267 0,-2.1778061 0.475147,-5.3440511 1.117243,-7.4765451 l 0.500745,-1.663981 h 8.645985 a 1.3224101,1.3224101 0 0 1 -0.222726,0.735873 c -0.358568,0.534434 -0.654224,1.802952 -0.654224,3.93361 0,2.137437 -0.378434,4.9522964 -0.861447,7.3184151 -0.241506,1.18306 -0.50705,2.2410267 -0.789098,3.0685467 -0.0882,0.25878 -0.195382,0.4659464 -0.295072,0.6872965 0.731036,-0.10405 1.485969,-0.060159 2.542995,0.058911 0.969579,0.10923 1.670635,0.1221629 2.074294,0.050643 0.403659,-0.07151 0.488074,-0.1293712 0.664041,-0.3591512 0.351935,-0.4595699 0.784754,-2.165509 1.095541,-5.4203398 0.584909,-6.1256493 0.754306,-9.0664563 0.57826,-9.7379073 a 1.3224101,1.3224101 0 0 1 -0.04186,-0.335897 h 7.924064 l 0.289904,1.529104 c 0.353729,1.871776 0.58361,4.355124 0.515215,5.9061007 -0.08745,1.9829488 -1.047324,4.3391994 -2.433444,6.8926023 -1.386118,2.5534102 -3.229523,5.2267133 -5.238438,7.4434734 -1.748909,1.92986 -3.533029,3.2712398 -5.894215,4.0390299 C 55.891662,9.219035 53.038591,9.4509296 48.92267,9.4806497 46.143235,9.5007096 44.112666,9.2821111 42.379918,8.2538512 40.64717,7.2255912 39.451864,5.5389568 38.057182,3.0448668 37.133524,1.3930869 36.549991,0.21487852 36.311554,-1.2148213 c -0.238437,-1.4297001 -0.131395,-2.9404064 0.09922,-5.4001871 0.326522,-3.4827206 0.03026,-5.7493716 -0.230479,-6.2363106 -0.406307,-0.758812 -0.699101,-1.557714 -0.621149,-2.424142 0.06769,-0.75233 0.37905,-1.402001 0.801501,-2.083594 z M 6.0963439,3.2422709 c 1.3932244,0.03067 2.5039399,0.8707609 3.4375169,1.9099609 0.6504962,0.72409 2.8135262,2.445471 5.2188032,4.097941 2.405277,1.6524802 5.129675,3.3338742 7.113259,4.3418532 1.895689,0.963311 5.125442,3.202504 7.539075,5.167644 1.988367,1.61889 3.138873,2.562704 3.886586,3.726904 0.74771,1.16421 0.849897,2.404589 0.843875,3.909839 -0.01014,2.6735 -0.977463,5.106672 -3.527433,9.344132 -1.937956,3.22043 -3.54212,7.060025 -3.976502,9.302275 -0.598456,3.08927 -1.047642,5.008089 -1.833996,6.43785 -0.786355,1.429769 -2.116344,2.212708 -3.540869,2.525427 -0.242229,0.05318 -1.059836,0.43458 -1.867069,1.007689 -0.807236,0.573111 -1.668037,1.325531 -2.328024,2.06034 -1.175107,1.30833 -1.902182,2.113573 -2.85564,2.607593 -0.476729,0.24702 -1.058833,0.377224 -1.591633,0.320394 -0.532802,-0.05683 -0.968861,-0.251918 -1.367358,-0.465087 -0.934715,-0.499991 -1.6819063,-1.187199 -1.9962631,-2.122868 -0.3143541,-0.935681 -0.069723,-1.964227 0.4490694,-2.746087 1.0375847,-1.563709 3.0029627,-2.663137 5.7366007,-3.540868 3.002566,-0.96405 4.822629,-3.653978 4.826061,-7.500318 0.0023,-2.649079 0.807974,-4.624136 2.972945,-7.458976 3.25891,-4.26726 4.017354,-6.478381 3.490227,-9.286771 -0.254021,-1.35337 -0.832421,-2.400686 -1.953368,-3.419946 -1.12095,-1.019261 -2.823538,-1.977454 -5.228622,-2.877344 -2.957494,-1.1066 -5.528839,-2.910129 -7.984008,-5.548499 -1.4498,-1.55797 -2.3617,-2.398878 -3.0334083,-2.796728 -0.6717083,-0.39784 -1.1454342,-0.480591 -2.2443069,-0.480591 -1.0924276,0 -1.574972,0.07969 -2.4820192,0.63252 -0.9070472,0.55283 -2.1945441,1.676675 -4.285525,3.681945 -2.2702043,2.17713 -4.5809085,4.758037 -5.4079404,5.943307 a 1.3224101,1.3224101 0 0 1 -1.0841699,0.563273 v -9.06818 L -3.1144633,9.6697855 C -0.94285593,7.5105453 0.71288803,5.9605048 2.1255275,4.9041849 3.5381644,3.8478648 4.7672307,3.2130209 6.0963439,3.2422709 Z M 80.106297,14.447271 c 1.028578,-0.0264 1.972622,0.345883 2.915584,0.927593 v 7.242968 a 1.3224101,1.3224101 0 0 1 -0.382408,-0.05529 c -0.113866,-0.03453 -0.356354,-0.07 -0.626835,-0.06253 -0.468945,0.01285 -1.041029,0.161295 -1.287259,0.293005 -0.570113,0.30497 -0.870428,0.578072 -1.027326,0.822172 -0.156901,0.24409 -0.242737,0.509149 -0.207225,1.070219 0.07103,1.12215 0.833753,3.253007 2.443779,6.546887 0.376912,0.771078 0.739828,1.493725 1.087274,2.176095 V 49.981536 A 1.3224101,1.3224101 0 0 1 81.82712,49.226544 l -2.355411,-4.986259 c -3.657242,-7.74423 -5.656431,-13.918482 -6.488493,-20.150191 -0.155911,-1.16773 -0.140594,-2.242335 0.243914,-3.289205 0.384506,-1.04686 1.057111,-1.978861 2.045351,-3.162081 1.593199,-1.9076 3.017621,-3.144976 4.833816,-3.191537 z M 6.6337788,18.222752 a 1.3224101,1.3224101 0 0 1 0.00568,0 c 0.9304179,0.05024 1.816264,0.623712 2.2634284,1.390612 0.4471643,0.76691 0.5609643,1.651566 0.4826582,2.587956 C 9.2289364,24.0741 8.2773043,26.254745 6.4265571,28.453135 5.269603,29.827395 4.6615349,30.789257 3.2763618,31.060728 2.5837753,31.196468 1.8540253,30.937237 1.3700178,30.597707 0.88601019,30.258177 0.50542295,29.846984 0.05330295,29.347654 -0.92356516,28.268764 -1.434756,26.779108 -1.049991,25.347898 c 0.38476765,-1.43121 1.36820801,-2.739125 2.8866465,-4.400765 1.5441559,-1.68977 2.9413781,-2.633704 4.4415894,-2.722314 a 1.3224101,1.3224101 0 0 1 0.00568,0 c 0.102235,-0.0057 0.2171303,-0.0088 0.3498506,-0.0021 z m 47.8523742,5.988781 c 0.06817,-0.0027 0.137229,-0.0014 0.20774,0.0036 0.564828,0.04049 0.997236,0.311211 1.316715,0.569991 0.319482,0.25878 0.588468,0.546636 0.915707,0.896586 a 1.3224101,1.3224101 0 0 1 0.0021,0 c 0.692113,0.74018 1.211262,1.728397 1.384929,2.982247 0.173668,1.25384 0.125741,2.816903 -0.01964,5.295284 l -0.343649,5.845638 a 1.3224101,1.3224101 0 0 1 -0.615466,1.040763 l -2.96881,1.873271 c -2.492248,1.572489 -4.486031,4.992953 -4.486031,7.275524 0,-0.09032 0.02668,0.190984 0.125055,0.531233 0.09837,0.340252 0.252349,0.78622 0.445452,1.288812 0.386205,1.00516 0.930601,2.236571 1.524971,3.408061 1.226299,2.41699 1.989297,4.428077 2.249993,6.177917 0.260694,1.749849 -0.03872,3.38895 -1.134816,4.484479 -0.364636,0.364442 -0.774105,0.647388 -1.203026,0.870749 -0.428924,0.223369 -0.837025,0.414446 -1.456759,0.414446 -1.263335,0 -2.336056,-0.777039 -2.980698,-1.77147 -0.644639,-0.994429 -0.973328,-2.244146 -0.988052,-3.619415 -0.0087,-0.81171 -0.643485,-3.825621 -1.400431,-5.97638 -1.263767,-3.59084 -1.820741,-6.29594 -1.113626,-9.060428 0.707112,-2.764491 2.544606,-5.339993 5.646681,-9.039243 0.763887,-0.91094 1.047952,-1.362881 1.205096,-2.032951 0.157143,-0.67008 0.164515,-1.717997 0.02946,-3.584277 -0.130683,-1.80571 -0.166812,-3.02652 0.03721,-4.09174 0.20402,-1.06521 0.765535,-1.953816 1.466578,-2.587956 0.336084,-0.304 0.614719,-0.557227 0.959114,-0.782897 0.301347,-0.197462 0.717108,-0.3932 1.194242,-0.411862 z m 11.57914,0.302307 c 0.702858,-0.0059 1.378601,0.349997 1.824178,0.810287 0.445574,0.4603 0.74722,1.015602 1.015442,1.670182 0.536437,1.30918 0.920067,3.065543 1.250053,5.394503 0.478097,3.37418 1.901256,7.542161 4.726842,13.622941 3.765055,8.10259 5.629947,14.768188 5.698876,20.730517 0.01691,1.49256 -0.852895,2.555883 -2.077908,3.211174 -0.778179,0.416259 -1.608576,0.681532 -2.492354,0.525031 -0.883779,-0.156498 -1.628155,-0.784259 -2.084112,-1.533239 -0.91191,-1.49797 -1.224708,-3.604273 -1.435052,-6.753593 -0.417253,-6.24714 -3.005482,-13.167865 -6.691583,-17.935855 -1.183724,-1.531171 -1.948309,-2.62768 -2.369364,-4.00389 -0.421056,-1.37622 -0.462503,-2.839573 -0.462503,-5.166093 0,-1.36127 -0.04659,-2.725282 -0.119374,-3.802352 -0.03639,-0.53854 -0.08045,-1.007063 -0.125056,-1.353923 -0.04461,-0.34685 -0.127053,-0.628094 -0.08372,-0.515213 -0.297244,-0.774211 -0.153964,-1.447341 0.07028,-2.066541 0.224242,-0.6192 0.582342,-1.204262 1.083654,-1.705322 0.615857,-0.61555 1.33478,-1.120654 2.271696,-1.128614 z m -49.376832,0.343649 c 0.117189,0.0013 0.352817,0.0041 0.353468,0.0041 1.468503,0.07674 2.906056,1.016166 3.615282,2.571936 0.39705,0.87099 0.693198,1.66516 0.564306,2.57452 -0.128889,0.909359 -0.648443,1.59053 -1.271757,2.27893 -1.667967,1.84217 -4.008236,2.339467 -5.724196,1.394747 -1.715961,-0.94471 -2.49564,-3.236055 -1.680001,-5.568135 0.688379,-1.96821 2.375725,-3.196342 4.142898,-3.256132 z m -21.7630105,8.360213 c 0.084246,-0.0029 0.1689497,-0.0027 0.2547646,10e-4 0.347345,0.0152 0.6985371,0.08775 1.035595,0.217041 1.4737398,0.56524 2.2538558,1.913678 2.6990596,3.304708 0.44520376,1.39102 0.57418813,2.950717 -0.1601973,4.322217 -0.7611348,1.42149 -2.1575368,2.243899 -3.5176142,2.183329 -0.8130434,-0.03621 -1.5725034,-0.341101 -2.2148509,-0.835608 v -8.51886 c 0.5508916,-0.395959 1.1980201,-0.649643 1.9032432,-0.67386 z m 13.8916567,3.639571 c 0.1051269,-2.4e-4 0.4580837,0.01995 0.3162591,0.01395 0.8330432,0.07296 1.5678017,0.410972 2.4262107,0.892452 1.455724,0.81647 2.528432,1.90208 2.861323,3.29489 0.332888,1.39281 -0.214074,2.852205 -1.267624,4.015775 -0.438475,0.48426 -0.928801,0.902833 -1.424202,1.232483 -0.4954,0.32966 -0.885896,0.646472 -1.726509,0.646472 -2.3123209,0 -3.908179,-1.85756 -4.5800831,-3.77548 C 5.0865325,42.218857 4.9529179,41.18865 5.1315434,40.178 5.3101716,39.16735 5.8583618,38.142923 6.8291153,37.513564 7.397816,37.144854 8.0807268,36.862973 8.8171072,36.857273 Z M 59.68997,45.974546 c 0.333775,-5.9e-4 1.789877,0.306088 0.980818,0.201538 0.815407,0.31275 1.31943,0.887687 1.814362,1.562179 0.49493,0.6745 0.952595,1.491803 1.394746,2.422073 0.884301,1.86055 1.700067,4.173672 2.355411,6.535002 0.655346,2.361321 1.146566,4.759721 1.343588,6.797002 0.09851,1.018638 0.125624,1.945476 0.04496,2.771405 -0.08066,0.825921 -0.218403,1.577295 -0.783415,2.257745 -1.676252,2.0188 -4.826384,2.133597 -6.494177,0.125055 -0.530714,-0.639169 -0.77702,-1.495874 -0.796851,-2.394685 -0.01983,-0.898819 0.136467,-1.902616 0.425815,-3.193087 0.410049,-1.828789 0.472697,-2.938333 0.172083,-4.060732 -0.300615,-1.1224 -1.034439,-2.387939 -2.467033,-4.294828 -0.583722,-0.776962 -1.100956,-1.615713 -1.491899,-2.390553 -0.390943,-0.77484 -0.711067,-1.343366 -0.711067,-2.244307 0,-1.184111 0.565764,-2.196549 1.324467,-2.919719 0.758251,-0.72274 1.754132,-1.221998 2.888194,-1.174088 z m -66.6295224,3.639055 a 1.3224101,1.3224101 0 0 1 0.00103,0 1.3224101,1.3224101 0 0 1 0.3281469,0.05271 c 0.9101031,0.263239 1.6813159,0.806122 2.3125191,1.566312 0.2397443,0.288719 0.4488471,0.556088 0.6247686,0.904338 0.1759214,0.34826 0.3127533,0.840803 0.2247926,1.339453 -0.1759188,0.997289 -0.8317521,1.41669 -1.4805289,1.89084 -0.5504021,0.402259 -1.124204,0.680934 -1.7089411,0.836125 a 1.3224101,1.3224101 0 0 1 -0.3400293,0.04289 v -6.632154 a 1.3224101,1.3224101 0 0 1 0.03824,-5.16e-4 z m 31.8952104,9.478491 c 0.875314,0.02532 1.741993,0.339603 2.517675,0.882632 1.136004,0.7953 1.904381,1.913442 2.095997,3.152264 0.191614,1.238819 -0.249145,2.553877 -1.201478,3.505729 -1.564897,1.5641 -3.834207,1.632918 -5.480285,0.789099 -1.646079,-0.84382 -2.863633,-2.837157 -2.197283,-4.935617 0.645747,-2.033511 2.344023,-3.449537 4.265374,-3.394107 z m -12.072133,9.316225 c 0.958663,0.0059 1.939055,0.378619 2.623098,1.132748 0.684041,0.754131 1.02095,1.82522 0.976683,3.006018 a 1.3224101,1.3224101 0 0 1 0,0.0021 c -1.14e-4,0.0031 -7.3e-4,0.04475 -0.0015,0.09147 H 7.8280206 A 1.3224101,1.3224101 0 0 1 7.9634132,72.05464 c 0.037666,-0.07635 0.060148,-0.119245 0.070797,-0.142626 1.015738,-2.22993 2.9320648,-3.515733 4.8493148,-3.503663 z"
       id="path854-6"
       inkscape:connector-curvature="0" />
    <path
       style="fill:#cccccc;stroke-width:1"
       d="m 3.3218303,208.13468 c -3.32399996,0 -6.00015,2.67615 -6.00015,6.00015 v 87.99979 c 0,3.324 2.67615004,6.00015 6.00015,6.00015 H 91.32163 c 3.324008,0 6.000149,-2.67615 6.000149,-6.00015 v -87.99979 c 0,-3.324 -2.676141,-6.00015 -6.000149,-6.00015 z m 2.99982,5.00021 H 17.60985 c -1.3e-4,0.15945 -0.0315,0.32261 -0.10232,0.48214 -0.49791,1.12576 -1.2154,3.86032 -2.57039,9.23664 -0.58639,2.32669 -1.01153,3.7911 -1.74976,5.02347 -0.73822,1.23237 -1.74201,2.08724 -3.1915397,3.13831 -1.58096,1.14636 -4.23783,3.76865 -5.60534,5.55677 -0.43521,0.56908 -0.78915,1.05682 -1.07849,1.49034 -0.24791,0.37204 -0.62156,0.5355 -0.99012,0.53176 v -16.01505 c 1.06814,-1.68725 2.36977,-2.98597 4.00028,-4.01474 1.19205,-0.75214 1.81119,-1.27383 2.03863,-1.59577 0.22744,-0.32195 0.25782,-0.48085 0.17777,-1.17408 -0.0834,-0.72211 -0.19661,-0.87666 -0.2341,-0.91003 -0.0375,-0.0334 -0.32954,-0.17988 -1.1622,-0.25011 -0.87846,-0.0741 -1.06325,-0.0449 -1.4025,0.20929 -0.33926,0.25416 -0.90959,0.99323 -1.78697,2.44894 -0.21782,0.36139 -0.40809,0.69688 -0.58032,1.01958 -0.23486,0.44186 -0.64478,0.63488 -1.05059,0.63045 v -1.80816 c 0,-2.216 1.78376,-3.99975 3.99976,-3.99975 z m 12.7738997,0 h 10.095505 c 0.05645,0.22682 0.03213,0.4595 -0.113172,0.67179 -0.80639,1.17797 -1.118696,3.27236 -1.562696,5.36505 -0.444008,2.0927 -0.462179,4.21573 -0.02532,5.37125 0.389051,1.02908 1.380656,2.51985 2.507858,3.77341 1.127189,1.25356 2.451576,2.29715 3.173965,2.59778 0.98819,0.41117 1.382705,0.53406 1.679486,0.53329 0.296788,-7.7e-4 0.784198,-0.14044 1.884637,-0.55862 0.558821,-0.21236 0.895551,-0.44953 1.017511,-0.57826 0.02383,-0.0251 0.01687,-0.0149 0.02791,-0.0258 -0.03311,-0.0452 -0.09705,-0.11932 -0.221176,-0.21601 -0.25531,-0.19864 -0.723392,-0.45065 -1.382861,-0.66818 -2.268691,-0.74836 -3.946946,-1.65114 -4.833816,-3.40806 -0.886859,-1.75691 -0.962834,-3.97769 -0.879014,-7.45329 0.0458,-1.89959 -0.08523,-4.09223 0.336412,-5.40432 h 25.567433 c 5.85e-4,0.22398 -0.06097,0.45358 -0.202572,0.66404 -0.613691,0.91262 -1.161759,2.96133 -1.437638,6.25026 -0.44708,5.33019 0.356222,8.6522 2.617412,11.5254 0.832879,1.05829 1.654392,1.46451 2.767272,1.46451 0.48306,0 0.882242,-0.0338 1.197342,-0.0703 0.0851,-0.27888 0.190606,-0.58764 0.310576,-0.9002 -0.15545,0.40487 -0.02207,0.0354 -0.35915,-0.52142 -0.337061,-0.55678 -0.9353,-1.30674 -1.71876,-2.08979 -1.359099,-1.35841 -2.219079,-2.19539 -2.627228,-3.43597 -0.408152,-1.24056 -0.247502,-2.4662 -0.01912,-4.53874 0.259209,-2.35282 0.681201,-5.50793 0.954979,-7.10964 0.09208,-0.53862 0.150529,-0.936 0.180869,-1.23817 H 69.55397 c 10e-5,0.18654 -0.0424,0.37797 -0.140042,0.56069 -0.37793,0.70721 -0.733938,2.30646 -0.902787,4.74596 -0.194432,2.80903 -0.55445,5.87572 -0.931209,7.28534 -0.1222,0.45722 -0.20206,1.02683 -0.219109,1.51361 -0.01582,0.45025 0.05104,0.8308 0.06253,0.89245 0.02023,0.0109 0.10496,0.11211 0.281635,0.1974 0.25264,0.12201 0.628343,0.21498 0.962732,0.21498 0.78872,0 1.063858,-0.15681 1.484148,-1.08831 0.42028,-0.93151 0.701249,-2.68172 0.701249,-5.20692 0,-2.13538 0.259959,-4.54893 0.80667,-5.98619 0.49875,-1.31116 0.388747,-2.02795 0.09767,-2.42983 -0.159036,-0.2189 -0.227666,-0.46191 -0.226859,-0.69918 h 10.177156 c -8e-6,0.0145 0.0031,0.0282 0.0026,0.0429 -0.0237,0.65377 0.07017,1.92848 0.240294,3.93981 0.41711,4.93177 0.168439,6.42242 -1.5875,9.82007 -1.13194,2.19023 -3.493013,5.72769 -5.392952,8.1132 -1.863301,2.33949 -3.135939,3.79857 -5.26738,4.639 -2.131449,0.84042 -4.845323,1.05875 -9.871231,1.44487 -2.91061,0.22362 -4.496139,0.34776 -5.85339,0.10387 -1.357239,-0.24389 -2.293843,-0.93088 -3.439584,-1.89446 -1.510998,-1.2708 -3.437276,-3.68975 -4.627107,-5.71903 -1.043699,-1.78005 -1.692648,-3.17481 -1.806607,-4.94337 -0.113961,-1.76857 0.249688,-3.76735 0.947227,-7.08174 0.306822,-1.45791 0.19294,-1.92177 -0.787029,-3.11712 -0.312622,-0.38131 -0.53021,-0.62748 -0.69505,-0.79737 -0.105191,0.0904 -0.17503,0.14303 -0.357601,0.32247 -0.334689,0.32894 -0.522329,0.63991 -0.69143,1.67948 -0.169111,1.03955 -0.237328,2.71776 -0.230478,5.33818 0.0146,5.56022 0.246456,6.81786 1.939417,10.39471 1.891691,3.99668 4.682818,6.75964 8.051188,8.10338 0.553429,0.22076 2.991276,0.50499 4.673616,0.35347 8.401651,-0.75672 12.476014,-1.13866 14.609445,-1.96888 1.06671,-0.41511 1.669896,-0.88206 2.333707,-1.68723 0.663789,-0.80517 1.350912,-1.98019 2.326473,-3.62148 0.853059,-1.43518 1.712558,-2.79001 2.421557,-3.83388 0.354502,-0.52193 0.669697,-0.96555 0.93948,-1.31413 0.269758,-0.34859 0.313129,-0.53987 0.849558,-0.87127 -0.227269,0.1404 0.314817,-0.35415 0.738458,-1.04283 0.42364,-0.68867 0.920797,-1.61378 1.402498,-2.60552 0.963419,-1.98348 1.874165,-4.30326 2.132687,-5.49837 0.264789,-1.22411 0.07392,-3.271 -0.683681,-5.55057 -0.34231,-1.0301 -0.623022,-1.74881 -0.857311,-2.19935 -0.09333,-0.17943 -0.133421,-0.3663 -0.133326,-0.5488 h 5.287534 c 2.215999,0 3.999764,1.78375 3.999754,3.99975 v 26.02012 c -0.291018,0.002 -0.587912,-0.10176 -0.831472,-0.34003 -0.12432,-0.12129 -0.242424,-0.22775 -0.347784,-0.31058 -1.33195,-1.04719 -2.638893,-2.88649 -3.341915,-4.56819 -0.403,-0.964 -0.737547,-1.44604 -0.886767,-1.57252 -0.14923,-0.12648 -0.142042,-0.14276 -0.63872,-0.0723 -0.307031,0.0436 -0.463524,0.0995 -0.496094,0.11524 -0.0538,0.11657 -0.181385,0.89273 -0.181385,2.3399 0,1.60565 -0.11661,2.85821 -0.824238,4.13463 -0.707609,1.27643 -1.856401,2.4881 -3.869531,4.55115 l -4.353224,4.46277 c -0.230809,0.23575 -0.549174,0.36485 -0.879015,0.35709 l -9.046993,-0.20309 c -5.779759,-0.12936 -8.642408,0.0596 -9.552389,0.69143 -0.454991,0.3159 -0.686612,0.70849 -0.863513,1.72289 -0.176911,1.01439 -0.203089,2.54825 -0.203089,4.61523 0,2.87898 0.0032,4.47443 -0.456819,5.96294 -0.46034,1.48851 -1.330907,2.60555 -2.795177,4.45709 -1.51697,1.91812 -3.384145,5.44067 -3.939297,7.34942 -1.070289,3.67977 -1.066125,3.56913 0.296625,7.65018 0.847529,2.53814 1.732936,6.49378 2.027266,9.07645 0.568709,4.99042 1.360572,7.22386 2.799313,8.74004 0.230217,0.24186 0.330869,0.53422 0.329179,0.8201 h -10.27121 l -0.25373,-5.29063 c -0.132601,-2.77192 -0.28875,-4.44629 -0.597379,-5.68182 -0.308631,-1.23552 -0.752665,-2.08916 -1.62729,-3.41013 -0.983562,-1.48553 -1.611107,-2.53918 -1.880508,-3.83594 -0.269399,-1.29676 -0.16515,-2.64334 0.05633,-4.80436 0.599652,-5.8501 1.585431,-8.74613 4.787308,-14.06064 3.346227,-5.55418 4.133394,-10.00779 2.771404,-13.41004 -0.312539,-0.7807 -0.651118,-1.49538 -0.91984,-1.973 -0.11575,-0.20573 -0.206851,-0.33664 -0.26975,-0.42375 -0.0669,-0.0321 -0.13003,-0.0632 -0.185518,-0.0956 -0.145831,-0.0852 -0.287944,-0.1813 -0.454753,-0.29869 -0.333621,-0.23476 -0.749514,-0.55234 -1.238684,-0.93948 -0.97836,-0.77426 -2.242833,-1.82606 -3.573941,-2.98638 -2.537272,-2.21173 -6.558238,-4.90143 -8.517827,-5.76761 -2.35735,-1.042 -5.574032,-2.97953 -7.454833,-4.50205 -1.66734,-1.3497 -4.22637,-3.07032 -5.38469,-3.65817 -0.72109,-0.36595 -1.33642,-0.72217 -1.8557,-1.21698 -0.51928,-0.4948 -0.9082,-1.16865 -1.04696,-1.90583 -0.27754,-1.47436 0.16666,-3.03051 0.93379,-5.55677 0.53912,-1.77533 1.2546,-5.24968 1.53324,-7.47861 0.16262,-1.30096 0.26542,-2.18888 0.27957,-2.70319 z m 48.327797,14.99805 c -0.0087,-0.005 -0.0091,0.003 0.0062,0.0429 -6.8e-5,-1.7e-4 -0.0053,-0.0379 -0.0062,-0.0429 z m -29.642117,2.15181 c 0.03489,0.0477 0.03562,0.0628 0.031,0.0336 -0.0075,-0.0459 0.01442,-0.0787 -0.031,-0.0336 z m -22.90093,0.50797 c 1.63753,0.50402 0.46127,-0.2938 1.86345,0.93793 0.51801,0.46352 1.04418,1.05559 1.51774,1.72031 0.51559,0.7237 2.62385,2.57966 5.33197,4.51755 2.70812,1.93788 6.075933,4.09013 9.382894,5.94176 2.053421,1.14975 5.343485,3.60331 7.599537,5.63066 1.930934,1.7352 3.009895,2.66255 3.640603,3.87522 0.630701,1.21267 0.539681,2.4225 0.376722,4.09742 -0.252781,2.59813 -1.611972,5.84325 -3.947046,9.88467 -2.441851,4.22624 -3.590894,7.18731 -4.193543,10.72699 l -0.872815,5.13251 c -0.0684,0.40334 -0.339011,0.74313 -0.716751,0.9002 l -3.6096,1.50017 c -2.28922,0.95087 -3.816088,2.17899 -5.003831,3.97288 -0.59437,0.8977 -1.28036,1.69142 -1.97042,2.30064 -0.69006,0.60921 -1.26975,1.1467 -2.32234,1.1467 -1.56195,0 -2.90535,-0.90338 -3.76359,-2.13321 -0.85824,-1.22983 -1.30147,-2.82637 -1.13895,-4.49998 0.11478,-1.18202 0.37043,-2.27472 1.22473,-3.07423 0.8543,-0.79952 1.97438,-1.23066 3.82199,-1.93322 2.40253,-0.91358 3.90511,-1.88916 4.88704,-3.15071 0.981929,-1.26154 1.523203,-2.90098 1.757513,-5.36504 0.308851,-3.24838 1.1196,-5.18759 3.18947,-7.61143 1.284041,-1.5036 2.691265,-3.97284 2.912483,-4.78317 0.541711,-1.98441 0.0069,-3.90749 -1.402498,-5.56452 -1.40902,-1.65703 -3.719039,-2.98272 -6.595978,-3.46852 -1.29346,-0.21842 -2.3851,-0.57135 -3.36879,-1.25625 -0.98369,-0.6849 -1.81253,-1.63442 -2.80499,-2.98018 -1.04323,-1.41462 -2.0117,-2.40918 -2.89027,-3.00188 -0.87858,-0.59272 -1.62953,-0.80598 -2.46135,-0.75035 -1.66361,0.11124 -3.94026,1.56832 -6.9546097,4.80281 -2.17021,2.32871 -3.88961,4.80947 -4.97489,7.05849 -0.22655,0.47068 -0.65133,0.67746 -1.07229,0.67282 V 242.33 l 4.4788,-4.62297 c 1.76131,-1.81795 3.4600997,-3.4702 4.7966097,-4.68188 0.66825,-0.60585 1.24338,-1.09831 1.711,-1.46245 0.23381,-0.18208 0.43735,-0.33162 0.64079,-0.45733 0.20344,-0.1257 0.26371,-0.31265 0.93121,-0.31265 z m 73.465283,12.73669 c 0.798351,7.7e-4 1.560057,0.21046 2.659785,0.50385 0.55504,0.14808 0.973288,0.25033 1.316199,0.32505 v 10.23399 c -0.229757,6.4e-4 -0.465336,-0.0643 -0.679543,-0.21342 -0.154771,-0.10743 -0.4016,-0.18765 -0.99994,-0.1018 -0.430411,0.0618 -0.554341,0.16653 -0.593762,0.21291 -0.0394,0.0464 -0.119361,0.16344 -0.0956,0.61753 0.0475,0.90818 0.681906,2.82425 2.019515,5.61516 l 0.349332,0.72916 v 23.43784 c -0.465185,0.005 -0.932654,-0.24743 -1.124479,-0.80357 -0.293378,-0.84127 -0.651619,-1.78934 -1.087787,-2.91817 -1.391031,-3.60002 -3.257074,-7.97558 -4.043164,-9.51569 -0.940292,-1.84218 -2.261087,-5.47649 -3.078366,-8.37882 -0.78576,-2.79049 -1.889358,-6.20373 -2.35748,-7.34942 -0.250158,-0.61227 -0.494403,-1.11697 -0.603062,-1.77147 -0.10867,-0.65451 0.0146,-1.40233 0.343648,-2.09961 0.658048,-1.39458 1.993308,-2.97646 4.714957,-6.40271 0.485029,-0.6106 0.864566,-1.09007 1.378728,-1.48622 0.514149,-0.39615 1.216261,-0.63518 1.881021,-0.63459 z m -72.479293,3.36207 c 0.28765,0.0121 0.57107,0.0688 0.82889,0.16123 2.01002,0.72098 3.49925,1.84138 3.95479,3.49798 0.45554,1.65659 -0.19951,3.40552 -1.48828,5.2188 -0.67342,0.9475 -1.85529,3.12648 -2.45514,4.56458 -0.3845,0.92183 -0.79164,1.67898 -1.33171,2.2872 -0.54007,0.60822 -1.27888,1.06136 -2.09599,1.15239 -1.63421,0.18207 -3.07062,-0.76702 -4.8689597,-2.26757 -0.8237,-0.6873 -1.48658,-1.31929 -1.94354,-2.09392 -0.45699,-0.77463 -0.63157,-1.74394 -0.42168,-2.65617 0.41976,-1.82447 1.87138,-3.447 4.3594197,-6.09575 2.26856,-2.41509 3.49435,-3.6564 5.17384,-3.76567 0.096,-0.006 0.19247,-0.007 0.28836,-0.003 z m 59.037738,6.5872 c 0.0287,3e-4 0.05718,0.002 0.08578,0.004 0,0 1.938033,0.0837 3.341912,1.49035 0.9579,0.95978 1.145593,2.18381 1.382863,3.29489 0.23726,1.11108 0.34158,2.07998 0.34158,2.07998 0.001,0.0111 0.0031,0.0225 0.0041,0.0336 0.37452,4.60141 1.092932,6.89542 4.640542,14.7929 4.11403,9.15829 5.877883,15.68516 6.068365,22.66993 0.0178,0.65325 0.04148,1.16853 -0.02532,1.69499 -0.0668,0.52645 -0.301643,1.17033 -0.800983,1.57819 -0.99867,0.81572 -2.00401,0.68324 -3.77548,0.79685 -1.034071,0.0663 -1.98224,0.0586 -2.744018,-0.0191 -0.380891,-0.0389 -0.709649,-0.0887 -1.035079,-0.18965 -0.162711,-0.0505 -0.325652,-0.109 -0.5271,-0.2403 -0.201451,-0.13128 -0.515948,-0.38149 -0.615466,-0.88056 -0.0683,-0.3422 -0.05586,-0.47611 -0.07596,-0.84594 -0.0201,-0.36984 -0.04046,-0.85169 -0.06046,-1.42007 -0.04,-1.13678 -0.07897,-2.61326 -0.105936,-4.16409 -0.0781,-4.48475 -0.496049,-6.33166 -2.517159,-11.07426 -1.343901,-3.15348 -3.542797,-6.98326 -4.451408,-8.0176 -0.943261,-1.07378 -1.608339,-2.01231 -1.982309,-3.17345 -0.37398,-1.16114 -0.449066,-2.4288 -0.449066,-4.2385 0,-2.17029 -0.412062,-5.58176 -0.848011,-7.21093 -0.634802,-2.37225 -0.343408,-4.2138 0.611333,-5.41 0.954738,-1.1962 2.37105,-1.57889 3.537252,-1.55081 z m -11.176064,0.0253 c 1.081162,-0.036 2.267458,0.27161 3.320727,0.94929 1.053272,0.6777 2.006037,1.91431 1.880505,3.45871 -0.0968,1.19063 -0.302194,4.58041 -0.451133,7.45536 -0.0749,1.44655 -0.156713,2.82036 -0.226343,3.87676 -0.0348,0.52819 -0.06635,0.97701 -0.09405,1.31827 -0.0276,0.34126 -0.02485,0.47146 -0.08165,0.75964 -0.0813,0.41208 -0.229124,0.54392 -0.337966,0.67386 -0.108839,0.12993 -0.211997,0.22874 -0.324527,0.3266 -0.225049,0.19572 -0.48509,0.38483 -0.790649,0.58963 -0.611121,0.40962 -1.39664,0.86658 -2.252059,1.30276 -2.457471,1.25308 -3.634367,2.70274 -3.953248,4.5682 -0.318879,1.86545 0.294928,4.36467 2.097547,7.51375 1.286331,2.24713 2.099469,4.5386 2.375049,6.55257 0.275568,2.01398 0.102856,3.90582 -1.267624,5.0431 -1.045308,0.86694 -2.365952,1.35459 -3.64422,1.53324 -1.278271,0.17865 -2.595179,0.15662 -3.57446,-0.82217 -0.557951,-0.55765 -0.765829,-1.18162 -0.964798,-1.90221 -0.19898,-0.72059 -0.318328,-1.5233 -0.318328,-2.32027 0,-0.41957 -0.193485,-1.71047 -0.531233,-3.1719 -0.337759,-1.46144 -0.807043,-3.16664 -1.320335,-4.73046 -1.221298,-3.72101 -1.803804,-6.35006 -1.413864,-8.84959 0.389937,-2.49953 1.741977,-4.64459 3.978566,-7.36337 0.881152,-1.07112 1.698273,-2.18756 2.285132,-3.09025 0.293441,-0.45135 0.529812,-0.85073 0.681614,-1.14619 0.1518,-0.29545 0.189876,-0.5679 0.171564,-0.34571 0.043,-0.52224 0.13806,-3.17019 0.185518,-5.62137 -0.0192,-0.13608 -0.103825,-0.68554 -0.109035,-1.50584 -0.006,-0.91499 -0.04899,-2.00324 0.72657,-3.00551 0.623059,-0.80515 1.449734,-1.21594 2.124935,-1.51773 0.675208,-0.30179 1.250053,-0.46096 1.250053,-0.46096 0.0488,-0.0135 0.09827,-0.0238 0.148312,-0.031 0.14296,-0.0208 0.286229,-0.0326 0.429429,-0.0372 z m -38.325824,0.13488 c 0.37121,3.6e-4 0.75078,0.0455 1.134814,0.13642 2.39223,0.56635 4.202329,1.81205 5.003829,3.58996 0.801489,1.77791 0.450802,3.92146 -0.886767,5.83014 -0.875601,1.24945 -1.864042,2.18505 -3.003952,2.71094 -1.13991,0.52588 -2.440904,0.58071 -3.625104,0.13281 -1.45572,-0.55059 -2.61752,-1.40899 -3.29282,-2.59777 -0.67529,-1.18877 -0.80856,-2.62471 -0.50798,-4.12688 0.33124,-1.65538 0.89795,-3.02195 1.76372,-4.03696 0.86578,-1.01503 2.09728,-1.64022 3.41426,-1.63866 z m -22.4239597,7.2812 c 1.51031,-0.0223 2.86053,0.85679 4.22869,2.28514 0.96384,1.00628 1.65176,1.86146 1.99006,2.98638 0.3383,1.12493 0.31609,2.32502 0.2129,4.13463 l -0.2284,4.03128 c -0.0361,0.63434 -0.56408,1.12848 -1.19942,1.12293 l -3.55844,-0.031 c -0.9174,-0.008 -1.57843,-0.003 -1.99212,0.0351 -0.0369,0.003 -0.0733,0.004 -0.10956,0.004 v -14.50144 c 0.003,-5.6e-4 0.0125,-0.002 0.0155,-0.003 0.2191,-0.0418 0.43391,-0.0617 0.64078,-0.0646 z m 13.4472497,3.68918 c 1.56283,-0.008 2.90907,0.91461 4.95318,2.32028 1.46798,1.00949 2.42446,1.73092 3.0763,2.65823 0.65184,0.92731 0.83406,1.99474 0.83406,3.14865 0,0.82318 -0.13585,1.64265 -0.36536,2.37505 -0.22951,0.73241 -0.48257,1.38085 -1.12292,1.91202 -1.18069,0.97939 -2.80956,1.40072 -4.43177,1.54306 -1.6222,0.14234 -3.22218,0.0619 -4.45141,-0.85576 -0.72065,-0.53796 -1.29787,-1.40635 -1.50379,-2.47633 -0.20591,-1.06999 -0.19191,-2.37534 -0.0977,-4.38268 0.0842,-1.79166 0.20939,-3.1243 0.58601,-4.2013 0.1883,-0.53851 0.45178,-1.03979 0.89245,-1.43195 0.44067,-0.39216 1.05993,-0.60615 1.63091,-0.60927 z m 52.442272,9.70019 c 0.525073,0.0126 1.038738,0.19434 1.458309,0.45837 0.47952,0.30175 0.879935,0.69255 1.300697,1.16168 1.04617,1.16651 1.921682,2.93537 2.767272,5.06843 0.8456,2.13306 1.617612,4.61232 2.230871,7.07812 0.613262,2.4658 1.066866,4.91239 1.265558,6.99234 0.198689,2.07995 0.275561,3.71577 -0.41393,5.0431 -0.751909,1.44752 -2.382687,1.94196 -3.941877,1.91564 -1.559192,-0.0263 -3.230803,-0.55881 -4.581633,-1.65209 -0.839639,-0.67956 -1.548561,-1.2783 -1.758032,-2.28151 -0.20946,-1.00323 0.121073,-1.82918 0.556554,-3.03289 0.786521,-2.17399 0.994791,-3.6215 0.673862,-5.04104 -0.320921,-1.41956 -1.240597,-2.95692 -3.027207,-5.10356 -1.2242,-1.47091 -1.947428,-2.98338 -1.953368,-4.53926 -0.006,-1.55588 0.757693,-3.01025 2.027783,-4.20285 1.10196,-1.03472 1.967401,-1.77353 3.169832,-1.85931 0.07524,-0.005 0.150299,-0.007 0.225309,-0.005 z m -58.527692,1.4981 c 1.22758,-0.0157 2.23318,0.69982 3.53053,1.71979 1.32231,1.03961 2.17999,2.42295 2.34766,3.99045 0.16768,1.56752 -0.29644,3.22137 -1.22266,5.01158 -0.53157,1.02742 -0.65137,1.40225 -0.63045,1.6738 0.0209,0.27154 0.26533,0.84539 0.97462,2.04691 0.9515,1.61187 1.54977,2.67315 1.61488,3.89071 0.0651,1.21756 -0.59659,2.21798 -1.45469,3.1657 -0.99066,1.09411 -2.45609,1.57535 -3.97495,1.70326 -1.51886,0.12792 -3.1370297,-0.11774 -4.5196197,-0.85731 -0.74045,-0.39604 -1.02937,-0.39664 -1.82211,0.0274 -0.60468,0.32345 -0.7782,0.61351 -0.81029,0.71468 -0.0321,0.10116 -0.0516,0.13916 0.12868,0.36535 0.36052,0.45238 1.72509,1.16996 3.69899,1.16996 1.64999,0 3.3204997,0.68237 4.4142097,1.88825 9.7e-4,10e-4 0.003,9.5e-4 0.004,0.002 0.002,0.003 0.004,0.005 0.006,0.008 0.22117,0.23978 0.31888,0.526 0.31729,0.80615 H 6.3213203 c -2.216,0 -3.99976,-1.78375 -3.99976,-3.99976 v -7.88323 c 0.23966,-9.5e-4 0.48505,0.0688 0.70539,0.23099 0.79413,0.58382 1.05079,0.65369 1.41231,0.58601 0.36153,-0.0677 1.1132,-0.49022 2.31407,-1.50017 1.19248,-1.0029 1.90961,-1.91322 2.25206,-2.71094 0.34245,-0.79773 0.37143,-1.48696 0.0977,-2.34921 -0.11578,-0.36462 -0.24034,-0.53151 -0.28318,-0.57619 -0.0967,0.0129 -0.833,0.34128 -1.77509,1.34358 -1.11504,1.18633 -2.63539,2.23531 -4.08037,2.59778 -0.0637,0.016 -0.13029,0.0386 -0.20516,0.0682 -0.14569,0.0577 -0.29334,0.0846 -0.4377,0.0848 v -10.95386 c 0.20751,-3.5e-4 0.42067,0.0544 0.6196,0.17571 0.50781,0.30964 1.4177,0.61499 2.80087,0.87333 1.2006,0.22424 1.70558,0.16878 1.65416,0.2067 0.051,-0.11156 0.13763,-0.35696 0.23823,-0.75757 0.16904,-0.67317 0.3768,-1.25713 0.75757,-1.76785 0.38068,-0.5106 1.02794,-0.92087 1.6991297,-0.98237 0,0 5.1e-4,0 5.1e-4,0 0.0838,-0.008 0.16638,-0.0119 0.24805,-0.0129 z m 24.589196,11.99926 c 0.110059,-0.004 0.220822,-0.004 0.33228,0 0.11393,0.01 0.344416,0.0289 0.345715,0.0289 0.968989,0.13712 1.729947,0.71704 2.325955,1.41025 0.596011,0.6932 1.055846,1.53943 1.396815,2.45515 0.681939,1.83144 0.952251,3.94754 0.14211,5.72472 -0.37374,0.81984 -0.987824,1.59245 -1.872753,1.9668 -0.88492,0.37436 -1.855583,0.42579 -3.220992,0.42582 -1.964362,0 -3.473146,-0.21641 -4.624525,-1.07436 -1.15139,-0.85795 -1.603521,-2.29618 -1.603521,-3.87108 0,-1.81373 1.076235,-3.45139 2.398305,-4.7656 1.239441,-1.23208 2.729738,-2.237 4.380611,-2.30064 z m -12.464876,8.87853 c 1.48404,0 2.63026,0.9538 3.54501,2.09186 0.914736,1.13809 1.602859,2.56782 1.716688,4.07831 v 0.002 c 0.002,0.0247 0.0063,0.0585 0.01395,0.1173 0.0074,0.0539 0.0097,0.10691 0.0098,0.15968 H 14.75781 c -0.002,-0.30397 0.10974,-0.61388 0.36897,-0.86093 0.47666,-0.45425 1.05425,-1.06011 1.76371,-1.83245 0.9566,-1.0414 1.94481,-1.93019 2.86133,-2.58743 0.91651,-0.65723 1.65425,-1.16841 2.71249,-1.16841 z m 39.785172,4.52737 c 1.468001,-0.004 2.976112,0.23618 4.211113,0.85938 0.457213,0.23061 0.657188,0.64857 0.652672,1.06247 h -9.33173 c -0.0037,-0.37174 0.162459,-0.74872 0.540536,-0.9958 1.095621,-0.71688 2.48008,-0.9217 3.927409,-0.92605 z"
       id="path852-6"
       inkscape:connector-curvature="0" />
  </g>
</svg>
