<?xml version="1.0" encoding="UTF-8" standalone="no"?>
<!-- Created with Inkscape (http://www.inkscape.org/) -->

<svg
   xmlns:dc="http://purl.org/dc/elements/1.1/"
   xmlns:cc="http://creativecommons.org/ns#"
   xmlns:rdf="http://www.w3.org/1999/02/22-rdf-syntax-ns#"
   xmlns:svg="http://www.w3.org/2000/svg"
   xmlns="http://www.w3.org/2000/svg"
   xmlns:sodipodi="http://sodipodi.sourceforge.net/DTD/sodipodi-0.dtd"
   xmlns:inkscape="http://www.inkscape.org/namespaces/inkscape"
   width="210mm"
   height="297mm"
   viewBox="0 0 210 297"
   version="1.1"
   id="svg839"
   inkscape:version="0.92.2 (5c3e80d, 2017-08-06)"
   sodipodi:docname="voronoi.svg">
  <defs
     id="defs833">
    <clipPath
       id="clipPath1408"
       clipPathUnits="userSpaceOnUse">
      <path
         inkscape:connector-curvature="0"
         id="path1406"
         d="M 0,500 V 0 h 500 v 500 z" />
    </clipPath>
  </defs>
  <sodipodi:namedview
     id="base"
     pagecolor="#ffffff"
     bordercolor="#666666"
     borderopacity="1.0"
     inkscape:pageopacity="0.0"
     inkscape:pageshadow="2"
     inkscape:zoom="0.55234375"
     inkscape:cx="193.80513"
     inkscape:cy="430.58877"
     inkscape:document-units="mm"
     inkscape:current-layer="layer1"
     showgrid="false"
     inkscape:window-width="1920"
     inkscape:window-height="1001"
     inkscape:window-x="-9"
     inkscape:window-y="-9"
     inkscape:window-maximized="1" />
  <metadata
     id="metadata836">
    <rdf:RDF>
      <cc:Work
         rdf:about="">
        <dc:format>image/svg+xml</dc:format>
        <dc:type
           rdf:resource="http://purl.org/dc/dcmitype/StillImage" />
        <dc:title />
      </cc:Work>
    </rdf:RDF>
  </metadata>
  <g
     inkscape:label="Ebene 1"
     inkscape:groupmode="layer"
     id="layer1">
    <path
       style="fill:#00aa17;fill-opacity:1;stroke:none;stroke-width:0.2;stroke-miterlimit:4;stroke-dasharray:none;stroke-opacity:1"
       d="m 8.83756,5.0138353 c -3.324,0 -6.000151,2.676147 -6.000151,6.0001467 v 87.9998 c 0,3.323998 2.676151,6.000148 6.000151,6.000148 h 87.999796 c 3.324004,0 6.000154,-2.67615 6.000154,-6.000148 v -87.9998 c 0,-3.3239997 -2.67615,-6.0001467 -6.000154,-6.0001467 z M 96.616176,17.753622 h 5.2e-4 c 0.11591,0.002 0.23042,0.0257 0.33745,0.0703 0.0207,0.009 0.041,0.0179 0.061,0.0279 0.0106,0.005 0.0211,0.0101 0.0315,0.0155 0.009,0.005 0.018,0.0105 0.0269,0.016 0.0199,0.0115 0.0394,0.0237 0.0584,0.0367 0.23047,0.1592 0.37552,0.41502 0.39377,0.69453 1.8e-4,8e-4 2.6e-4,0.002 5.2e-4,0.003 0.002,0.0248 0.002,0.0496 0.002,0.0744 -5.3e-4,0.0429 -0.004,0.0857 -0.0103,0.12816 l -1.63143,58.52356 c 0.0186,0.15545 -0.003,0.31308 -0.0625,0.45785 -0.12247,0.32952 -0.42259,0.55999 -0.77256,0.59325 l -32.87396,11.00656 c -0.1768,0.10809 -0.38501,0.15308 -0.59066,0.12764 l -51.192255,5.58157 c -0.159687,0.0593 -0.332727,0.0729 -0.499711,0.0393 -0.269205,-0.0485 -0.502679,-0.21472 -0.636654,-0.4532 -0.0026,-0.005 -0.0052,-0.0103 -0.0078,-0.0155 -0.01129,-0.0203 -0.0218,-0.041 -0.03152,-0.062 -0.0078,-0.0182 -0.01507,-0.0366 -0.0217,-0.0553 -0.0034,-0.008 -0.0067,-0.0168 -0.0098,-0.0253 -0.05232,-0.15309 -0.06319,-0.31729 -0.03152,-0.47594 L 7.837621,38.511972 v -15.74581 c 0.06124,-0.0464 0.127381,-0.0863 0.198954,-0.11627 0.0043,-0.002 0.0086,-0.004 0.01292,-0.006 0.01416,-0.006 0.02846,-0.011 0.04289,-0.016 0.0048,-0.002 0.0096,-0.003 0.01447,-0.005 0.0113,-0.004 0.02267,-0.007 0.03411,-0.0109 0.01046,-0.003 0.02097,-0.006 0.03152,-0.008 0.0094,-0.002 0.01891,-0.005 0.02842,-0.007 0.01218,-0.003 0.02441,-0.005 0.03669,-0.007 0.0052,-7.9e-4 0.01033,-0.002 0.0155,-0.003 0.01493,-0.002 0.02992,-0.004 0.04496,-0.006 0.0088,-7.9e-4 0.01756,-0.002 0.02636,-0.002 0.01289,-0.002 0.02582,-0.003 0.03876,-0.004 0.0095,2e-5 0.01895,1.8e-4 0.02842,5.2e-4 0.0034,-1.9e-4 0.0069,-2.6e-4 0.01033,-5.2e-4 0.0055,2.6e-4 0.01103,5.1e-4 0.01654,10e-4 0.02071,5.3e-4 0.04139,0.002 0.06201,0.004 0.0059,5.3e-4 0.01172,10e-4 0.01757,0.002 l 84.822211,-4.33961 c 0.0463,-0.009 0.0933,-0.0153 0.14056,-0.0176 0.0112,-2.1e-4 0.0224,-2.1e-4 0.0336,0 l 2.83084,-0.42582 c 0.0939,-0.0306 0.19217,-0.0457 0.29093,-0.045 z"
       id="rect871-9"
       inkscape:connector-curvature="0" />
    <g
       id="g1400"
       transform="matrix(0.35277777,0,0,-0.35277777,18.29236,298.2325)" />
    <path
       style="color:#000000;font-style:normal;font-variant:normal;font-weight:normal;font-stretch:normal;font-size:medium;line-height:normal;font-family:sans-serif;font-variant-ligatures:normal;font-variant-position:normal;font-variant-caps:normal;font-variant-numeric:normal;font-variant-alternates:normal;font-feature-settings:normal;text-indent:0;text-align:start;text-decoration:none;text-decoration-line:none;text-decoration-style:solid;text-decoration-color:#000000;letter-spacing:normal;word-spacing:normal;text-transform:none;writing-mode:lr-tb;direction:ltr;text-orientation:mixed;dominant-baseline:auto;baseline-shift:baseline;text-anchor:start;white-space:normal;shape-padding:0;clip-rule:nonzero;display:inline;overflow:visible;visibility:visible;opacity:1;isolation:auto;mix-blend-mode:normal;color-interpolation:sRGB;color-interpolation-filters:linearRGB;solid-color:#000000;solid-opacity:1;vector-effect:none;fill:#540000;fill-opacity:1;fill-rule:nonzero;stroke:none;stroke-width:7.33315563;stroke-linecap:round;stroke-linejoin:miter;stroke-miterlimit:10;stroke-dasharray:none;stroke-dashoffset:0;stroke-opacity:1;color-rendering:auto;image-rendering:auto;shape-rendering:auto;text-rendering:auto;enable-background:accumulate"
       d="m 113.21321,110.47543 c -3.324,0 -6.00015,2.67615 -6.00015,6.00015 v 87.9998 c 0,3.324 2.67615,6.00015 6.00015,6.00015 H 201.213 c 3.324,0 6.00015,-2.67615 6.00015,-6.00015 v -87.9998 c 0,-3.324 -2.67615,-6.00015 -6.00015,-6.00015 z m 2.99981,5.00021 h 14.82959 l -2.70164,19.28203 -16.1277,9.70122 V 119.4754 c 0,-2.216 1.78375,-3.99976 3.99975,-3.99976 z m 22.23431,0 h 29.00752 L 152.70537,146.40605 138.838,138.7445 c -0.0248,-0.0177 -0.0497,-0.0351 -0.0749,-0.0522 l -3.14399,-3.03289 z m 38.10206,0 h 17.8294 l 2.10426,14.02137 -18.81952,-12.21683 z m -4.68861,7.79746 5.50716,30.22503 -18.48362,-3.01326 z m 8.24446,4.33513 18.83554,12.22613 c 0.13195,0.11548 0.27201,0.22134 0.4191,0.31678 l 2.85306,2.3952 v 12.57546 l -13.79968,3.37085 -3.14296,-2.53628 z m -48.89881,13.98468 1.50068,1.44746 -3.58066,26.34671 -16.91318,-3.66903 V 153.0165 Z m 8.29613,5.8968 11.91555,6.58306 -7.56905,20.02617 -7.55664,-2.97295 z m 18.36528,10.26087 22.43222,3.65611 -28.30989,16.92403 -1.94045,0.10542 z m 44.3451,4.91908 v 38.8059 c 0,2.216 -1.78377,3.99976 -3.99976,3.99976 h -5.95209 l -5.22552,-15.60939 4.08761,-24.48791 z m -18.99574,5.53661 -2.89698,17.35553 -17.9555,-4.89117 z m -71.00393,5.01623 12.67054,2.74919 -4.16563,14.48955 -8.50491,-6.34586 z m 19.90266,4.14135 11.25564,4.42712 0.60307,1.12448 -3.0701,22.55987 h -5.46478 l -8.58604,-9.81233 z m 20.55946,8.2734 c 0.0134,0.001 0.0269,0.003 0.0403,0.004 l 27.6996,7.54528 4.11396,12.28866 H 148.3046 l 2.68718,-19.7466 z m -40.46212,7.62692 8.05894,6.01307 5.42344,6.19808 h -9.48263 c -2.216,0 -3.99975,-1.78376 -3.99975,-3.99976 z"
       id="path1428"
       inkscape:connector-curvature="0" />
    <path
       style="color:#000000;font-style:normal;font-variant:normal;font-weight:normal;font-stretch:normal;font-size:medium;line-height:normal;font-family:sans-serif;font-variant-ligatures:normal;font-variant-position:normal;font-variant-caps:normal;font-variant-numeric:normal;font-variant-alternates:normal;font-feature-settings:normal;text-indent:0;text-align:start;text-decoration:none;text-decoration-line:none;text-decoration-style:solid;text-decoration-color:#000000;letter-spacing:normal;word-spacing:normal;text-transform:none;writing-mode:lr-tb;direction:ltr;text-orientation:mixed;dominant-baseline:auto;baseline-shift:baseline;text-anchor:start;white-space:normal;shape-padding:0;clip-rule:nonzero;display:inline;overflow:visible;visibility:visible;opacity:1;isolation:auto;mix-blend-mode:normal;color-interpolation:sRGB;color-interpolation-filters:linearRGB;solid-color:#000000;solid-opacity:1;vector-effect:none;fill:#f3ff00;fill-opacity:1;fill-rule:nonzero;stroke:none;stroke-width:1.83328891;stroke-linecap:round;stroke-linejoin:miter;stroke-miterlimit:10;stroke-dasharray:none;stroke-dashoffset:0;stroke-opacity:1;color-rendering:auto;image-rendering:auto;shape-rendering:auto;text-rendering:auto;enable-background:accumulate"
       d="m 112.28525,4.6556941 c -3.324,0 -6.00015,2.6761499 -6.00015,6.0001499 v 87.999788 c 0,3.323998 2.67615,6.000148 6.00015,6.000148 h 87.99979 c 3.32401,0 6.00016,-2.67615 6.00016,-6.000148 V 10.655844 c 0,-3.324 -2.67615,-6.0001499 -6.00016,-6.0001499 z m 2.99982,5.0002099 h 82.00016 c 2.216,0 3.99975,1.78375 3.99975,3.99975 v 4.22662 c -0.25317,-0.1246 -0.57245,-0.22893 -0.70486,-0.32039 -0.019,-0.013 -0.0385,-0.0252 -0.0584,-0.0367 -0.009,-0.006 -0.0178,-0.0108 -0.0269,-0.016 -0.0104,-0.005 -0.0209,-0.0105 -0.0315,-0.0155 -0.02,-0.01 0.11679,0.0682 -0.061,-0.0279 -0.10719,-0.0446 -0.22187,-0.0685 -0.33796,-0.0703 -0.0989,-8e-4 -0.19737,0.0143 -0.29146,0.045 l -2.83083,0.42581 c -0.0112,-2.1e-4 -0.0224,-2.1e-4 -0.0336,0 -0.0472,0.002 -0.0942,0.008 -0.14056,0.0176 l -84.82221,4.33979 c -0.006,-5.3e-4 -0.0117,-10e-4 -0.0176,-0.002 -0.0206,-0.002 -0.0413,-0.003 -0.062,-0.004 -0.005,-2.6e-4 -0.011,-7.7e-4 -0.0165,-10e-4 -0.003,1.5e-4 -0.007,2.5e-4 -0.0103,5.1e-4 -0.009,-2.6e-4 -0.0189,-5.1e-4 -0.0284,-5.1e-4 -0.0129,10e-4 -0.0259,0.002 -0.0388,0.004 -0.009,5.3e-4 -0.0176,0.001 -0.0263,0.002 -0.015,0.002 -0.03,0.004 -0.045,0.006 -0.005,7.9e-4 -0.0103,0.002 -0.0155,0.003 -0.0123,0.002 -0.0245,0.005 -0.0367,0.007 -0.01,0.002 -0.019,0.004 -0.0284,0.007 -0.0106,0.003 -0.0211,0.005 -0.0315,0.008 -0.0114,0.003 -0.0228,0.007 -0.0341,0.0109 -0.005,0.002 -0.01,0.003 -0.0145,0.005 -0.0144,0.005 -0.0287,0.0103 -0.0429,0.016 -0.004,0.002 -0.009,0.004 -0.0129,0.006 -0.0716,0.03 -0.13771,0.0698 -0.19896,0.11627 v -8.75192 c 0,-2.216 1.78376,-3.99975 3.99976,-3.99975 z m 82.50917,9.93583 -1.24178,1.47898 0.92914,-1.43196 z m -12.1145,0.69505 -34.48265,7.44708 -29.70878,-4.1615 z m 6.24251,0.52658 -23.97321,14.80581 -13.89786,-6.62647 z m 7.14117,0.11472 -1.37511,49.33239 -9.02168,-36.94814 z m -5.11546,0.7891 -6.83627,10.53217 -14.49266,2.64067 z m -80.32636,2.60501 35.70118,4.99917 -20.13779,20.87057 z m 87.66338,2.76365 v 68.56998 c 0,2.216 -1.78375,3.999748 -3.99975,3.999748 h -82.00016 c -2.216,0 -3.99976,-1.783748 -3.99976,-3.999748 v -57.50244 l 1.31827,55.55062 c -0.0317,0.15865 -0.0208,0.32285 0.0315,0.47594 0.003,0.008 0.006,0.0169 0.01,0.0253 0.007,0.0187 0.0139,0.0371 0.0217,0.0553 0.01,0.0211 0.0202,0.0418 0.0315,0.062 0.003,0.005 0.005,0.0104 0.008,0.0155 0.13397,0.23848 0.36745,0.40468 0.63665,0.4532 0.16698,0.0336 0.34002,0.02 0.49971,-0.0393 l 51.19222,-5.58157 c 0.20566,0.0254 0.41386,-0.0195 0.59067,-0.12764 l 32.87396,-11.00656 c 0.34996,-0.0333 0.65009,-0.26373 0.77256,-0.59325 0.0596,-0.14477 0.0811,-0.3024 0.0625,-0.45785 z m -87.64736,0.81804 14.40429,23.94634 -5.49734,25.33179 z m 37.98011,1.95854 14.3614,6.84816 -25.81858,13.89217 z m -4.54236,4.42918 -9.72498,17.60513 -6.4208,-0.87333 z m 38.32635,0.1323 -20.17655,24.98917 3.58118,-21.96559 z m -72.36044,0.49351 8.44858,46.73926 -7.11326,9.53327 z m 74.35463,0.92242 9.79734,40.12572 -26.3617,-4.40129 z m -20.59616,2.51199 -3.76204,23.07869 -22.9831,-8.68732 z m 16.90388,1.09399 -14.31231,30.86582 -4.51393,-7.54786 z m -53.86648,13.27929 6.73189,0.91519 -9.00048,22.87923 z m 8.53436,1.34152 23.18153,8.76226 -33.74574,18.0945 z m 24.55406,10.10533 1.24488,23.0079 -35.21077,-4.79403 z m 1.95285,2.16369 3.62872,6.07043 -2.75332,10.10585 z m -38.23952,0.62167 -1.40767,14.76964 -1.69189,-0.48679 z m 43.52189,6.35362 24.47499,4.08605 -28.15591,9.4263 z m -47.34233,9.62887 1.3534,0.38964 -4.73614,4.14445 z m 3.50935,0.93792 31.27922,4.25866 -41.29205,4.50257 z"
       id="path1502"
       inkscape:connector-curvature="0" />
    <path
       style="fill:#cccccc;fill-opacity:1;stroke:none;stroke-width:0.2;stroke-miterlimit:4;stroke-dasharray:none;stroke-opacity:1"
       d="m 7.7716101,110.31044 c -3.324,0 -6.00015,2.67616 -6.00015,6.00016 v 88.00031 c 0,3.324 2.67615,5.99963 6.00015,5.99963 H 95.77141 c 3.324,0 6.00015,-2.67563 6.00015,-5.99963 V 116.3106 c 0,-3.324 -2.67615,-6.00016 -6.00015,-6.00016 z m 2.9998199,5.00022 h 15.84502 a 1.0162545,1.0162545 0 0 1 -0.009,0.14056 l -2.70319,19.28151 a 1.0162545,1.0162545 0 0 1 -0.48214,0.73019 l -16.1271799,9.70121 a 1.0162545,1.0162545 0 0 1 -0.52349,0.14367 v -25.99739 c 0,-2.21599 1.78376,-3.99975 3.9997599,-3.99975 z m 21.20904,0 h 31.04927 a 1.0162545,1.0162545 0 0 1 -0.0977,0.4377 l -14.75001,30.92938 a 1.0162545,1.0162545 0 0 1 -1.41025,0.45113 l -13.86737,-7.65999 a 1.0162545,1.0162545 0 0 1 -0.0977,-0.0625 c -0.0343,-0.0245 -0.0524,-0.0356 -0.0548,-0.0372 a 1.0162545,1.0162545 0 0 1 -0.13436,-0.11111 l -3.14451,-3.0334 a 1.0162545,1.0162545 0 0 1 -0.30076,-0.87075 z m 38.1124,0 H 89.9666 l 2.08049,13.87099 a 1.0162545,1.0162545 0 0 1 -1.55856,1.002 L 71.67004,117.96683 a 1.0162545,1.0162545 0 0 1 -0.31213,-0.31626 l -1.11569,-1.80661 a 1.0162545,1.0162545 0 0 1 -0.14935,-0.5333 z m -3.69951,6.7815 a 1.0162545,1.0162545 0 0 1 0.002,0 1.0162545,1.0162545 0 0 1 1.02526,0.83406 l 5.50612,30.22451 a 1.0162545,1.0162545 0 0 1 -1.16427,1.18339 l -18.48259,-3.0117 a 1.0162545,1.0162545 0 0 1 -0.75396,-1.43919 L 65.50295,122.6699 a 1.0162545,1.0162545 0 0 1 0.89091,-0.57774 z m 8.21862,4.33565 a 1.0162545,1.0162545 0 0 1 0.002,0 1.0162545,1.0162545 0 0 1 0.60358,0.16433 l 18.83606,12.22665 a 1.0162545,1.0162545 0 0 1 0.11679,0.0858 c 0.0967,0.0846 0.19535,0.16209 0.30076,0.23048 a 1.0162545,1.0162545 0 0 1 0.0997,0.0723 l 2.2009,1.8464 v 14.94844 l -13.56041,3.31246 a 1.0162545,1.0162545 0 0 1 -0.8785,-0.19533 l -3.14296,-2.53732 a 1.0162545,1.0162545 0 0 1 -0.36122,-0.60926 l -5.16403,-28.34763 a 1.0162545,1.0162545 0 0 1 0.94775,-1.19734 z m -48.88901,13.98468 a 1.0162545,1.0162545 0 0 1 0.74775,0.28473 l 1.50017,1.44746 a 1.0162545,1.0162545 0 0 1 0.30283,0.86713 l -3.58015,26.34775 a 1.0162545,1.0162545 0 0 1 -1.22266,0.85524 L 6.7716701,166.59177 V 151.66606 L 25.24237,140.55666 a 1.0162545,1.0162545 0 0 1 0.4806,-0.14417 z m 8.30078,5.89628 a 1.0162545,1.0162545 0 0 1 0.52917,0.12712 l 11.91607,6.58358 a 1.0162545,1.0162545 0 0 1 0.45889,1.2485 l -7.56802,20.02514 a 1.0162545,1.0162545 0 0 1 -1.3224,0.58601 l -7.55664,-2.97243 a 1.0162545,1.0162545 0 0 1 -0.63666,-1.08211 l 3.20859,-23.6368 a 1.0162545,1.0162545 0 0 1 0.971,-0.87901 z m 18.39268,10.2619 a 1.0162545,1.0162545 0 0 1 0.17363,0.0134 l 22.43378,3.65611 a 1.0162545,1.0162545 0 0 1 0.35708,1.87533 L 47.0705,179.03903 a 1.0162545,1.0162545 0 0 1 -0.46663,0.14263 l -1.94149,0.10542 a 1.0162545,1.0162545 0 0 1 -1.00562,-1.3746 l 7.81813,-20.68556 a 1.0162545,1.0162545 0 0 1 0.94154,-0.65629 z m 44.31409,4.91805 a 1.0162545,1.0162545 0 0 1 0.0408,5.2e-4 v 39.82134 c 0,2.216 -1.78376,4.00027 -3.99976,4.00027 H 85.74977 L 80.63122,190.0234 a 1.0162545,1.0162545 0 0 1 -0.0393,-0.48989 l 4.08812,-24.48842 a 1.0162545,1.0162545 0 0 1 0.76171,-0.81855 l 11.08976,-2.70888 a 1.0162545,1.0162545 0 0 1 0.19895,-0.0289 z m -18.99418,5.53661 a 1.0162545,1.0162545 0 0 1 1.04128,1.18391 l -2.89647,17.35552 a 1.0162545,1.0162545 0 0 1 -1.26969,0.81236 l -17.95498,-4.89065 a 1.0162545,1.0162545 0 0 1 -0.25373,-1.85365 l 20.85144,-12.46486 a 1.0162545,1.0162545 0 0 1 0.48215,-0.14263 z m -70.9352099,5.01571 a 1.0162545,1.0162545 0 0 1 0.18551,0.0238 l 12.6700299,2.7497 a 1.0162545,1.0162545 0 0 1 0.76171,1.27331 l -4.16409,14.49059 a 1.0162545,1.0162545 0 0 1 -1.58388,0.5333 l -7.8987399,-5.89473 v -13.17543 a 1.0162545,1.0162545 0 0 1 0.0295,-5.1e-4 z m 19.8824999,4.1429 a 1.0162545,1.0162545 0 0 1 0.36174,0.0703 l 11.25564,4.42557 a 1.0162545,1.0162545 0 0 1 0.52348,0.46508 l 0.60358,1.125 a 1.0162545,1.0162545 0 0 1 0.11317,0.61702 l -3.05149,22.42395 h -7.84293 l -8.00003,-9.14259 a 1.0162545,1.0162545 0 0 1 -0.21084,-0.95137 l 5.2617,-18.29862 a 1.0162545,1.0162545 0 0 1 0.98598,-0.73432 z m 20.63079,8.26306 c -0.0106,-0.007 -0.006,-0.005 0.22686,0.0491 l 27.70115,7.54527 a 1.0162545,1.0162545 0 0 1 0.69556,0.65784 l 4.11293,12.28917 a 1.0162545,1.0162545 0 0 1 0.0517,0.32247 H 41.84756 a 1.0162545,1.0162545 0 0 1 0.008,-0.13695 l 2.68718,-19.74815 a 1.0162545,1.0162545 0 0 1 0.95343,-0.8785 l 1.68362,-0.0899 c 0.17104,0.0144 0.14491,-0.003 0.13436,-0.0103 z m -40.5132899,7.63726 a 1.0162545,1.0162545 0 0 1 0.57825,0.20102 l 8.0584299,6.01152 a 1.0162545,1.0162545 0 0 1 0.15813,0.14469 l 5.42395,6.19911 a 1.0162545,1.0162545 0 0 1 0.25064,0.67024 h -10.4991 c -2.2160099,0 -3.9997599,-1.78427 -3.9997599,-4.00027 v -9.2258 a 1.0162545,1.0162545 0 0 1 0.0295,-5.1e-4 z"
       id="rect871-9-6"
       inkscape:connector-curvature="0" />
    <path
       style="fill:#cccccc;fill-opacity:1;stroke:none;stroke-width:0.2;stroke-miterlimit:4;stroke-dasharray:none;stroke-opacity:1"
       d="m 114.47451,212.0173 c -3.324,0 -6.00015,2.67615 -6.00015,6.00015 v 87.99979 c 0,3.324 2.67615,6.00015 6.00015,6.00015 h 87.9998 c 3.324,0 6.00015,-2.67615 6.00015,-6.00015 v -87.99979 c 0,-3.324 -2.67615,-6.00015 -6.00015,-6.00015 z m 87.78896,11.21688 c 0.33341,0.003 1.13599,0.33575 1.21078,0.34417 v 45.45252 l -0.42736,15.33446 c 0.0109,0.33897 -0.0472,0.67753 -0.17208,0.99168 -0.30119,0.78311 -0.98285,1.35236 -1.79473,1.5167 l -32.66054,10.93525 c -0.36088,0.17941 -0.76096,0.26817 -1.1684,0.25424 l -50.94056,5.55471 c -0.34675,0.0859 -0.70758,0.0958 -1.05885,0.0284 -0.71021,-0.1319 -1.33143,-0.56881 -1.68569,-1.19941 a 1.5243827,1.5243827 0 0 1 -0.0119,-0.0196 c -0.0389,-0.0698 -0.0623,-0.12319 -0.0796,-0.16072 v -74.14586 c 0.004,-8.1e-4 0.005,-0.001 0.009,-0.002 0.004,-0.001 0.054,-0.0114 0.1173,-0.0232 0.0305,-0.006 -0.0143,0.001 0.006,-0.002 a 1.5243827,1.5243827 0 0 1 0.078,-0.0119 c -0.10528,0.0141 -0.0864,0.009 0.0491,-0.009 a 1.5243827,1.5243827 0 0 1 0.0646,-0.006 c -0.004,3.5e-4 0.0257,-0.002 0.0253,-0.002 0.015,-0.001 0.0566,-0.006 0.0584,-0.006 a 1.5243827,1.5243827 0 0 1 0.0274,0 1.5243827,1.5243827 0 0 1 0.0935,-0.004 c 0.0619,1.2e-4 0.004,-0.001 0.0295,0 a 1.5243827,1.5243827 0 0 1 0.0605,0.001 1.5243827,1.5243827 0 0 1 0.0253,0 c 0.091,0.005 0.0211,1.6e-4 0.0351,0.002 l 84.72092,-4.334 h 0.004 c 0.01,-9.7e-4 0.0196,-0.003 0.0289,-0.004 l 2.74712,-0.41342 c 0.19837,-0.049 0.40544,-0.0743 0.60875,-0.0729 z m -0.60875,0.0729 c -0.0556,0.0137 -0.11089,0.0284 -0.16484,0.046 l 0.24598,-0.0584 z m -85.34414,80.31087 c 0.0846,-0.021 0.16928,-0.0428 0.25166,-0.0734 l -0.36535,0.0858 z m 50.94056,-5.55471 0.13694,-0.015 -0.35346,-0.001 c 0.0722,0.009 0.14457,0.0141 0.21652,0.0165 z m 1.1684,-0.25424 c 0.0644,-0.032 0.12746,-0.0667 0.18914,-0.10439 l -0.31006,0.1447 z m 32.66054,-10.93525 0.0915,-0.0305 -0.34003,0.0724 c 0.0845,-0.008 0.1665,-0.0253 0.24857,-0.0419 z m 1.96681,-2.50838 c -0.002,-0.0665 -0.002,-0.13309 -0.0103,-0.19947 l 0.01,0.22428 z m 0.37672,-60.82677 c 0.0261,0.0144 0.0271,0.0169 0.0506,0.031 v 0.001 c -0.009,-0.007 -0.0177,-0.0139 -0.0506,-0.032 z"
       id="rect871-9-0"
       inkscape:connector-curvature="0" />
    <path
       style="color:#000000;font-style:normal;font-variant:normal;font-weight:normal;font-stretch:normal;font-size:medium;line-height:normal;font-family:sans-serif;font-variant-ligatures:normal;font-variant-position:normal;font-variant-caps:normal;font-variant-numeric:normal;font-variant-alternates:normal;font-feature-settings:normal;text-indent:0;text-align:start;text-decoration:none;text-decoration-line:none;text-decoration-style:solid;text-decoration-color:#000000;letter-spacing:normal;word-spacing:normal;text-transform:none;writing-mode:lr-tb;direction:ltr;text-orientation:mixed;dominant-baseline:auto;baseline-shift:baseline;text-anchor:start;white-space:normal;shape-padding:0;clip-rule:nonzero;display:inline;overflow:visible;visibility:visible;opacity:1;isolation:auto;mix-blend-mode:normal;color-interpolation:sRGB;color-interpolation-filters:linearRGB;solid-color:#000000;solid-opacity:1;vector-effect:none;fill:#cccccc;fill-opacity:1;fill-rule:nonzero;stroke:none;stroke-width:1.83328891;stroke-linecap:round;stroke-linejoin:miter;stroke-miterlimit:10;stroke-dasharray:none;stroke-dashoffset:0;stroke-opacity:1;color-rendering:auto;image-rendering:auto;shape-rendering:auto;text-rendering:auto;enable-background:accumulate"
       d="m 9.6502667,212.51056 c -3.324,0 -6.00015,2.67615 -6.00015,6.00015 v 87.99979 c 0,3.324 2.67615,6.00015 6.00015,6.00015 H 97.650057 c 3.324013,0 6.000163,-2.67615 6.000163,-6.00015 v -87.99979 c 0,-3.324 -2.67615,-6.00015 -6.000163,-6.00015 z m 2.9998203,5.00021 h 82.00016 c 2.216,0 3.99975,1.78375 3.99975,3.99975 v 4.22662 c -0.25317,-0.1246 -0.57245,-0.22893 -0.70486,-0.32039 -0.019,-0.013 -0.0385,-0.0252 -0.0584,-0.0367 -0.009,-0.006 -0.0178,-0.0108 -0.0269,-0.016 -0.0104,-0.005 -0.0209,-0.0105 -0.0315,-0.0155 -0.02,-0.01 0.11679,0.0682 -0.061,-0.0279 -0.10719,-0.0446 -0.22187,-0.0685 -0.33796,-0.0703 -0.0989,-7.9e-4 -0.19737,0.0143 -0.29146,0.045 l -2.83083,0.42581 c -0.0112,-2.1e-4 -0.0224,-2.1e-4 -0.0336,0 -0.0472,0.002 -0.0942,0.008 -0.14056,0.0176 l -84.8222103,4.33979 c -0.006,-5.3e-4 -0.0117,-0.001 -0.0176,-0.002 -0.0206,-0.002 -0.0413,-0.003 -0.062,-0.004 -0.005,-2.6e-4 -0.011,-7.6e-4 -0.0165,-0.001 -0.003,1.5e-4 -0.007,2.5e-4 -0.0103,5.1e-4 -0.009,-2.6e-4 -0.0189,-5.1e-4 -0.0284,-5.1e-4 -0.0129,0.001 -0.0259,0.002 -0.0388,0.004 -0.009,5.3e-4 -0.0176,0.001 -0.0263,0.002 -0.015,0.002 -0.03,0.004 -0.045,0.006 -0.005,8e-4 -0.0103,0.002 -0.0155,0.003 -0.0123,0.002 -0.0245,0.005 -0.0367,0.007 -0.01,0.002 -0.019,0.004 -0.0284,0.007 -0.0106,0.003 -0.0211,0.005 -0.0315,0.008 -0.0114,0.003 -0.0228,0.007 -0.0341,0.0109 -0.005,0.002 -0.01,0.003 -0.0145,0.005 -0.0144,0.005 -0.0287,0.0103 -0.0429,0.016 -0.004,0.002 -0.009,0.004 -0.0129,0.006 -0.0716,0.03 -0.13771,0.0698 -0.19896,0.11627 v -8.75192 c 0,-2.216 1.7837603,-3.99975 3.9997603,-3.99975 z m 82.50917,9.93583 -1.24178,1.47898 0.92914,-1.43196 z m -12.1145,0.69505 -34.48265,7.44708 -29.70878,-4.1615 z m 6.24251,0.52658 -23.97321,14.80581 -13.89786,-6.62647 z m 7.14117,0.11472 -1.37511,49.33239 -9.02168,-36.94814 z m -5.11546,0.7891 -6.83627,10.53217 -14.49266,2.64067 z m -80.32636,2.60501 35.70118,4.99917 -20.13779,20.87058 z m 87.66338,2.76365 v 68.56998 c 0,2.216 -1.78375,3.99975 -3.99975,3.99975 h -82.00016 c -2.216,0 -3.9997603,-1.78375 -3.9997603,-3.99975 v -57.50244 l 1.31827,55.55062 c -0.0317,0.15865 -0.0208,0.32285 0.0315,0.47594 0.003,0.008 0.006,0.0169 0.01,0.0253 0.007,0.0187 0.0139,0.0371 0.0217,0.0553 0.01,0.0211 0.0202,0.0418 0.0315,0.062 0.003,0.005 0.005,0.0104 0.008,0.0155 0.13397,0.23848 0.36745,0.40468 0.63665,0.4532 0.16698,0.0336 0.34002,0.02 0.49971,-0.0393 l 51.19222,-5.58156 c 0.20566,0.0254 0.41385,-0.0195 0.59067,-0.12764 l 32.87396,-11.00656 c 0.34996,-0.0333 0.65009,-0.26373 0.77256,-0.59325 0.0596,-0.14477 0.0811,-0.3024 0.0625,-0.45785 z m -87.64736,0.81804 14.40429,23.94634 -5.49734,25.33179 z m 37.98011,1.95854 14.3614,6.84816 -25.81858,13.89217 z m -4.54236,4.42918 -9.72498,17.60513 -6.4208,-0.87333 z m 38.32635,0.1323 -20.17655,24.98917 3.58118,-21.96559 z m -72.36044,0.49351 8.44858,46.73926 -7.11326,9.53327 z m 74.35463,0.92242 9.79734,40.12572 -26.3617,-4.40129 z m -20.59616,2.51199 -3.76204,23.07869 -22.9831,-8.68732 z m 16.90388,1.09399 -14.31231,30.86582 -4.51393,-7.54786 z m -53.86648,13.27929 6.73189,0.91519 -9.00048,22.87923 z m 8.53436,1.34152 23.18152,8.76226 -33.74573,18.0945 z m 24.55406,10.10533 1.24488,23.0079 -35.21077,-4.79403 z m 1.95285,2.16369 3.62872,6.07043 -2.75332,10.10585 z m -38.23952,0.62167 -1.40767,14.76964 -1.69189,-0.48679 z m 43.52189,6.35362 24.47499,4.08605 -28.15592,9.4263 z m -47.34233,9.62887 1.3534,0.38964 -4.73614,4.14445 z m 3.50935,0.93792 31.27922,4.25866 -41.29205,4.50257 z"
       id="path1502-8"
       inkscape:connector-curvature="0" />
  </g>
</svg>
